<?xml version="1.0" encoding="UTF-8"?>
<!DOCTYPE svg PUBLIC "-//W3C//DTD SVG 1.1//EN" "http://www.w3.org/Graphics/SVG/1.1/DTD/svg11.dtd">
<!-- Creator: CorelDRAW X5 -->
<svg xmlns="http://www.w3.org/2000/svg" xml:space="preserve" width="210mm" height="297mm" style="shape-rendering:geometricPrecision; text-rendering:geometricPrecision; image-rendering:optimizeQuality; fill-rule:evenodd; clip-rule:evenodd"
viewBox="0 0 21000 29700"
 xmlns:xlink="http://www.w3.org/1999/xlink">
 <defs>
  <style type="text/css">
   <![CDATA[
    .str0 {stroke:#332C2B;stroke-width:21.21}
    .fil2 {fill:none}
    .fil0 {fill:#332C2B}
    .fil1 {fill:#FEFEFE}
   ]]>
  </style>
 </defs>
 <g id="图层_x0020_1">
  <metadata id="CorelCorpID_0Corel-Layer"/>
  <g id="_241832936">
   <path class="fil0" d="M4666 5937c-127,37 -252,90 -322,139l65 -5c67,-47 138,-76 264,-113 187,-55 398,-117 483,-236l-18 -12c-80,113 -288,174 -471,228z"/>
   <path class="fil0" d="M4863 5707c1,-2 197,-209 254,-169 27,-121 124,-246 217,-250 77,-1 137,-92 192,-59 35,53 176,84 189,156 -5,42 -49,67 -63,122 -38,139 -111,183 -253,252 -21,10 -42,17 -63,21 0,118 -54,74 -94,157 18,-93 -18,-110 0,-162 -20,7 -52,39 -88,18 -26,-16 -19,-35 -23,-48 -38,25 -94,57 -88,150 -47,-78 -58,-173 35,-220 -58,-11 -54,-60 -214,32z"/>
   <path class="fil1" d="M5188 5454c12,-34 25,-81 80,-102 67,-37 122,-27 182,-76 0,60 14,116 69,128 -100,4 -263,-11 -331,51z"/>
   <path class="fil1" d="M5191 5474c6,-9 129,67 172,64 92,13 122,-7 158,-52 33,-17 95,-7 144,-80 7,-7 18,-6 26,-9 -26,33 -53,64 -70,104 -5,37 -24,76 -46,104 -84,93 -179,129 -267,147 -52,8 -134,-18 -153,-64 -15,-73 -30,-160 35,-215z"/>
   <path class="fil1" d="M5314 5428c110,-15 227,23 331,-21 -24,47 -83,52 -151,75 -14,16 -77,45 -169,32 -39,-17 -101,-40 -107,-61 30,-16 64,-21 96,-26z"/>
   <path class="fil1" d="M5563 5364c35,-17 -16,-28 -11,-48l3 -5c20,-3 59,13 81,22 20,7 66,40 24,49 -20,4 -160,21 -162,-10 -1,-18 52,-2 64,-8z"/>
   <path class="fil1" d="M5518 5258c14,20 -8,55 -17,29 -15,31 44,31 37,56l7 2c-23,-7 -44,-3 -63,-20 -20,-17 -22,-37 -10,-58 11,-20 31,-33 47,-10z"/>
   <path class="fil1" d="M5122 5680c0,17 15,29 24,35 -12,32 -107,46 -116,130 -26,-62 -13,-138 92,-164z"/>
   <path class="fil0" d="M3414 6596c14,247 -248,542 -442,634l25 26c203,-96 465,-402 450,-662l-33 2z"/>
   <path class="fil0" d="M3854 6781l0 -33c-130,-1 -265,69 -379,166 7,8 14,17 20,26 108,-93 236,-160 359,-159z"/>
   <path class="fil0" d="M3897 6073l33 3c7,-79 44,-156 114,-243l-26 -21c-73,90 -113,176 -121,260z"/>
   <path class="fil0" d="M3593 6370c171,-530 101,-1210 -363,-1558 -244,-183 -683,-228 -930,18 -88,87 -100,222 -57,328 39,94 127,162 215,164 115,3 180,-114 193,-143 0,0 -69,127 -193,122 -79,-3 -159,-64 -195,-151 -40,-97 -18,-201 62,-284 216,-227 615,-189 851,-11 446,334 509,973 352,1487 21,11 43,21 65,29z"/>
   <path class="fil1" d="M5152 6821c-19,-4 -29,-18 -29,-18 0,0 79,-29 94,-50 -30,-17 -69,-31 -69,-31 0,0 5,-18 22,-21 -20,-26 -59,-42 -59,-42 0,0 13,-11 29,-16 -29,-29 -67,-40 -67,-40 0,0 5,-14 19,-20 -26,-23 -61,-32 -61,-32 0,0 6,-20 28,-27 -32,-27 -77,-38 -77,-38 0,0 3,-15 21,-23 -25,-25 -74,-36 -74,-36 0,0 12,-16 31,-25 -32,-24 -99,-37 -99,-37 0,0 11,-21 26,-31 -26,-20 -96,-28 -96,-28 0,0 9,-24 31,-28 -39,-23 -125,-26 -125,-26 0,0 10,-26 28,-31 -38,-18 -98,-11 -98,-11 0,0 0,-23 16,-39 -46,1 -105,19 -105,19 0,0 -4,-22 4,-36 -32,6 -70,29 -70,29 0,0 -6,-21 7,-38 -32,7 -126,51 -126,51 0,0 -11,-16 -8,-42 -75,30 -182,125 -182,125 0,0 -9,-19 -6,-41 -53,26 -127,108 -127,108 0,0 -6,-10 -8,-29 -200,173 -209,411 -212,413 2,225 100,348 123,363 4,-6 17,-28 17,-28 0,0 57,92 77,105 9,-14 13,-28 13,-28 0,0 47,51 72,63 2,-14 8,-29 8,-29 0,0 50,40 81,58 -1,-9 -3,-30 -3,-30 0,0 41,43 72,56 -2,-16 -1,-33 -1,-33 0,0 36,27 70,36 -12,-22 -13,-45 -13,-45 0,0 48,29 85,32 -14,-19 -10,-41 -10,-41 0,0 59,29 95,30 -10,-15 -9,-44 -9,-44 0,0 56,29 93,33 -10,-19 -8,-46 -8,-46 0,0 52,26 90,27 -4,-13 -5,-40 -5,-40 0,0 62,24 101,6 -8,-11 -11,-35 -11,-35 0,0 43,10 83,-18 -14,-9 -23,-28 -23,-28 0,0 63,-12 89,-32 -16,-12 -30,-21 -30,-21 0,0 52,-4 82,-21 -13,-13 -32,-18 -32,-18 0,0 53,-12 76,-35 -22,-12 -27,-15 -27,-15 0,0 53,-9 79,-36 -19,-10 -19,-18 -19,-18 0,0 55,-12 78,-28 -18,-9 -30,-21 -30,-21 0,0 95,-28 76,-31z"/>
   <path class="fil2 str0" d="M5152 6821c-19,-4 -29,-18 -29,-18 0,0 79,-29 94,-50 -30,-17 -69,-31 -69,-31 0,0 5,-18 22,-21 -20,-26 -59,-42 -59,-42 0,0 13,-11 29,-16 -29,-29 -67,-40 -67,-40 0,0 5,-14 19,-20 -26,-23 -61,-32 -61,-32 0,0 6,-20 28,-27 -32,-27 -77,-38 -77,-38 0,0 3,-15 21,-23 -25,-25 -74,-36 -74,-36 0,0 12,-16 31,-25 -32,-24 -99,-37 -99,-37 0,0 11,-21 26,-31 -26,-20 -96,-28 -96,-28 0,0 9,-24 31,-28 -39,-23 -125,-26 -125,-26 0,0 10,-26 28,-31 -38,-18 -98,-11 -98,-11 0,0 0,-23 16,-39 -46,1 -105,19 -105,19 0,0 -4,-22 4,-36 -32,6 -70,29 -70,29 0,0 -6,-21 7,-38 -32,7 -126,51 -126,51 0,0 -11,-16 -8,-42 -75,30 -182,125 -182,125 0,0 -9,-19 -6,-41 -53,26 -127,108 -127,108 0,0 -6,-10 -8,-29 -200,173 -209,411 -212,413 2,225 100,348 123,363 4,-6 17,-28 17,-28 0,0 57,92 77,105 9,-14 13,-28 13,-28 0,0 47,51 72,63 2,-14 8,-29 8,-29 0,0 50,40 81,58 -1,-9 -3,-30 -3,-30 0,0 41,43 72,56 -2,-16 -1,-33 -1,-33 0,0 36,27 70,36 -12,-22 -13,-45 -13,-45 0,0 48,29 85,32 -14,-19 -10,-41 -10,-41 0,0 59,29 95,30 -10,-15 -9,-44 -9,-44 0,0 56,29 93,33 -10,-19 -8,-46 -8,-46 0,0 52,26 90,27 -4,-13 -5,-40 -5,-40 0,0 62,24 101,6 -8,-11 -11,-35 -11,-35 0,0 43,10 83,-18 -14,-9 -23,-28 -23,-28 0,0 63,-12 89,-32 -16,-12 -30,-21 -30,-21 0,0 52,-4 82,-21 -13,-13 -32,-18 -32,-18 0,0 53,-12 76,-35 -22,-12 -27,-15 -27,-15 0,0 53,-9 79,-36 -19,-10 -19,-18 -19,-18 0,0 55,-12 78,-28 -18,-9 -30,-21 -30,-21 0,0 95,-28 76,-31z"/>
   <path class="fil0" d="M3879 6721c10,-9 82,-52 82,-52 90,-154 295,-283 350,-301 -48,28 -219,150 -307,287 61,-21 123,-37 202,-45 107,-105 354,-203 431,-187 -73,7 -288,91 -390,185 84,-7 164,-10 252,-1 113,-44 277,-80 342,-60 -83,1 -285,67 -285,67 2,1 265,34 381,132 -115,-56 -207,-84 -330,-105 77,45 119,84 191,181 -81,-79 -161,-143 -256,-188 -101,-14 -171,-17 -269,-9 180,34 322,155 383,249 -94,-94 -252,-212 -469,-242l0 -1c-70,9 -116,19 -170,40 152,1 327,233 369,285 -64,-68 -283,-303 -447,-253 -19,10 -36,21 -50,33l-11 -14z"/>
   <path class="fil1" d="M5487 2781c3,-1 3,-1 0,0 25,-42 39,-56 56,-68 -3,14 3,26 3,26 0,0 69,-57 103,-71 0,12 6,27 6,27 0,0 39,-37 68,-50 1,12 7,23 7,23 0,0 49,-31 66,-34 -1,10 6,20 6,20 0,0 56,-35 81,-41 -4,10 -5,23 -5,23 0,0 63,-28 97,-26 -6,13 -10,23 -10,23 0,0 53,-19 74,-15 -7,8 -13,23 -13,23 0,0 46,-15 71,-10 -9,7 -12,20 -12,20 0,0 52,-14 81,2 -9,7 -12,19 -12,19 0,0 54,-7 74,2 -7,7 -10,18 -10,18 0,0 30,-2 47,3 -5,7 -10,18 -10,18 0,0 33,-2 44,4 -13,10 -14,18 -14,18 0,0 15,0 26,12 -9,6 -11,18 -11,18 0,0 12,17 69,17 -56,15 -119,58 -119,58 0,0 6,10 16,13 -17,22 -64,32 -64,32 0,0 9,14 19,14 -18,25 -69,35 -69,35 0,0 6,12 15,14 -14,18 -70,41 -70,41 0,0 7,8 13,12 -17,19 -58,26 -58,26 0,0 7,6 13,12 -22,16 -61,21 -61,21 0,0 7,11 14,16 -20,11 -60,11 -60,11 0,0 6,9 10,16 -28,14 -90,6 -90,6 0,0 10,16 17,21 -27,15 -99,7 -99,7 0,0 7,12 13,18 -36,12 -149,-25 -149,-25l1 36c0,0 -174,-30 -237,-230 12,-53 13,-91 62,-150z"/>
   <path class="fil2 str0" d="M5487 2781c3,-1 3,-1 0,0 25,-42 39,-56 56,-68 -3,14 3,26 3,26 0,0 69,-57 103,-71 0,12 6,27 6,27 0,0 39,-37 68,-50 1,12 7,23 7,23 0,0 49,-31 66,-34 -1,10 6,20 6,20 0,0 56,-35 81,-41 -4,10 -5,23 -5,23 0,0 63,-28 97,-26 -6,13 -10,23 -10,23 0,0 53,-19 74,-15 -7,8 -13,23 -13,23 0,0 46,-15 71,-10 -9,7 -12,20 -12,20 0,0 52,-14 81,2 -9,7 -12,19 -12,19 0,0 54,-7 74,2 -7,7 -10,18 -10,18 0,0 30,-2 47,3 -5,7 -10,18 -10,18 0,0 33,-2 44,4 -13,10 -14,18 -14,18 0,0 15,0 26,12 -9,6 -11,18 -11,18 0,0 12,17 69,17 -56,15 -119,58 -119,58 0,0 6,10 16,13 -17,22 -64,32 -64,32 0,0 9,14 19,14 -18,25 -69,35 -69,35 0,0 6,12 15,14 -14,18 -70,41 -70,41 0,0 7,8 13,12 -17,19 -58,26 -58,26 0,0 7,6 13,12 -22,16 -61,21 -61,21 0,0 7,11 14,16 -20,11 -60,11 -60,11 0,0 6,9 10,16 -28,14 -90,6 -90,6 0,0 10,16 17,21 -27,15 -99,7 -99,7 0,0 7,12 13,18 -36,12 -149,-25 -149,-25l1 36c0,0 -174,-30 -237,-230 12,-53 13,-91 62,-150z"/>
   <path class="fil0" d="M5514 2891c-31,15 -59,32 -83,49 0,-10 3,-20 5,-30 57,-37 103,-60 142,-74 60,-33 136,-84 163,-117 -16,32 -66,73 -111,103 51,-16 106,-29 161,-39 59,-18 114,-41 158,-76 -15,19 -49,49 -90,66 95,-14 218,-16 307,-12 -96,5 -293,25 -401,47 67,6 179,59 179,59 -66,-22 -140,-49 -217,-50 -68,16 -117,29 -172,54 78,-6 173,33 208,47 -84,-26 -166,-38 -250,-26z"/>
   <path class="fil1" d="M3591 6438c-1,-5 -1,-5 0,0 37,-64 45,-92 49,-124 -16,14 -36,15 -36,15 0,0 25,-132 18,-187 -16,9 -39,12 -39,12 0,0 20,-79 16,-125 -16,7 -35,7 -35,7 0,0 5,-87 -4,-112 -13,9 -30,7 -30,7 0,0 5,-100 -5,-137 -10,13 -27,24 -27,24 0,0 -9,-103 -37,-147 -14,17 -22,31 -22,31 0,0 -14,-84 -34,-109 -5,15 -20,34 -20,34 0,0 -14,-71 -39,-101 -3,18 -17,30 -17,30 0,0 -20,-79 -62,-105 -3,18 -15,30 -15,30 0,0 -30,-76 -57,-96 -3,14 -16,26 -16,26 0,0 -19,-41 -39,-60 -6,11 -16,26 -16,26 0,0 -21,-44 -38,-54 -4,25 -13,31 -13,31 0,0 -11,-20 -34,-25 -2,16 -16,28 -16,28 0,0 -32,-3 -72,-78 21,84 11,199 11,199 0,0 -18,-1 -29,-12 -16,39 5,107 5,107 0,0 -25,-2 -33,-15 -19,42 4,116 4,116 0,0 -21,1 -29,-10 -14,31 -2,122 -2,122 0,0 -16,-3 -25,-9 -13,36 8,95 8,95 0,0 -13,-5 -26,-9 -5,41 17,95 17,95 0,0 -19,-1 -30,-7 1,35 30,87 30,87 0,0 -16,-2 -28,-2 2,47 59,123 59,123 0,0 -28,-2 -41,-7 1,47 63,135 63,135 0,0 -21,-1 -33,-4 10,56 142,177 142,177l-47 25c0,0 166,207 476,144 61,-55 110,-84 153,-191z"/>
   <path class="fil2 str0" d="M3591 6438c-1,-5 -1,-5 0,0 37,-64 45,-92 49,-124 -16,14 -36,15 -36,15 0,0 25,-132 18,-187 -16,9 -39,12 -39,12 0,0 20,-79 16,-125 -16,7 -35,7 -35,7 0,0 5,-87 -4,-112 -13,9 -30,7 -30,7 0,0 5,-100 -5,-137 -10,13 -27,24 -27,24 0,0 -9,-103 -37,-147 -14,17 -22,31 -22,31 0,0 -14,-84 -34,-109 -5,15 -20,34 -20,34 0,0 -14,-71 -39,-101 -3,18 -17,30 -17,30 0,0 -20,-79 -62,-105 -3,18 -15,30 -15,30 0,0 -30,-76 -57,-96 -3,14 -16,26 -16,26 0,0 -19,-41 -39,-60 -6,11 -16,26 -16,26 0,0 -21,-44 -38,-54 -4,25 -13,31 -13,31 0,0 -11,-20 -34,-25 -2,16 -16,28 -16,28 0,0 -32,-3 -72,-78 21,84 11,199 11,199 0,0 -18,-1 -29,-12 -16,39 5,107 5,107 0,0 -25,-2 -33,-15 -19,42 4,116 4,116 0,0 -21,1 -29,-10 -14,31 -2,122 -2,122 0,0 -16,-3 -25,-9 -13,36 8,95 8,95 0,0 -13,-5 -26,-9 -5,41 17,95 17,95 0,0 -19,-1 -30,-7 1,35 30,87 30,87 0,0 -16,-2 -28,-2 2,47 59,123 59,123 0,0 -28,-2 -41,-7 1,47 63,135 63,135 0,0 -21,-1 -33,-4 10,56 142,177 142,177l-47 25c0,0 166,207 476,144 61,-55 110,-84 153,-191z"/>
   <path class="fil0" d="M3427 6483c2,51 1,100 -4,146 13,-8 25,-19 36,-29 7,-102 3,-180 -6,-242 -1,-103 11,-240 35,-300 -31,44 -48,141 -55,222 -16,-79 -39,-160 -66,-241 -19,-91 -29,-180 -16,-264 -15,34 -28,100 -21,166 -51,-136 -138,-298 -209,-413 63,130 181,404 231,562 -56,-84 -208,-192 -208,-192 77,71 167,149 225,249 29,102 47,176 55,265 -49,-107 -170,-204 -214,-239 96,91 171,190 217,310z"/>
   <path class="fil1" d="M3971 5599c3,-3 3,-3 0,0 -7,-73 -1,-103 8,-133 8,20 27,29 27,29 0,0 34,-130 64,-176 10,15 30,28 30,28 0,0 16,-80 39,-120 12,14 29,22 29,22 0,0 33,-80 51,-100 8,13 24,20 24,20 0,0 38,-92 63,-122 4,17 14,33 14,33 0,0 52,-89 96,-117 5,21 7,37 7,37 0,0 48,-70 78,-84 -2,15 4,39 4,39 0,0 43,-59 78,-75 -5,17 3,34 3,34 0,0 52,-63 101,-69 -5,17 1,33 1,33 0,0 60,-56 92,-62 -3,15 3,31 3,31 0,0 35,-29 60,-37 0,12 3,31 3,31 0,0 38,-31 58,-33 -7,24 -1,34 -1,34 0,0 18,-13 42,-8 -5,15 2,32 2,32 0,0 30,11 99,-40 -55,67 -95,175 -95,175 0,0 16,6 32,1 -2,42 -50,95 -50,95 0,0 23,9 36,1 -1,47 -53,103 -53,103 0,0 18,10 31,3 -1,34 -50,111 -50,111 0,0 16,4 27,3 -4,38 -48,82 -48,82 0,0 14,1 27,3 -13,39 -56,79 -56,79 0,0 18,7 30,7 -16,31 -64,66 -64,66 0,0 15,5 26,10 -22,41 -106,86 -106,86 0,0 26,10 40,11 -20,42 -115,95 -115,95 0,0 19,8 32,10 -33,46 -204,100 -204,100l32 43c0,0 -238,116 -492,-74 -31,-76 -63,-123 -56,-238z"/>
   <path class="fil2 str0" d="M3971 5599c3,-3 3,-3 0,0 -7,-73 -1,-103 8,-133 8,20 27,29 27,29 0,0 34,-130 64,-176 10,15 30,28 30,28 0,0 16,-80 39,-120 12,14 29,22 29,22 0,0 33,-80 51,-100 8,13 24,20 24,20 0,0 38,-92 63,-122 4,17 14,33 14,33 0,0 52,-89 96,-117 5,21 7,37 7,37 0,0 48,-70 78,-84 -2,15 4,39 4,39 0,0 43,-59 78,-75 -5,17 3,34 3,34 0,0 52,-63 101,-69 -5,17 1,33 1,33 0,0 60,-56 92,-62 -3,15 3,31 3,31 0,0 35,-29 60,-37 0,12 3,31 3,31 0,0 38,-31 58,-33 -7,24 -1,34 -1,34 0,0 18,-13 42,-8 -5,15 2,32 2,32 0,0 30,11 99,-40 -55,67 -95,175 -95,175 0,0 16,6 32,1 -2,42 -50,95 -50,95 0,0 23,9 36,1 -1,47 -53,103 -53,103 0,0 18,10 31,3 -1,34 -50,111 -50,111 0,0 16,4 27,3 -4,38 -48,82 -48,82 0,0 14,1 27,3 -13,39 -56,79 -56,79 0,0 18,7 30,7 -16,31 -64,66 -64,66 0,0 15,5 26,10 -22,41 -106,86 -106,86 0,0 26,10 40,11 -20,42 -115,95 -115,95 0,0 19,8 32,10 -33,46 -204,100 -204,100l32 43c0,0 -238,116 -492,-74 -31,-76 -63,-123 -56,-238z"/>
   <path class="fil0" d="M4100 5710c-24,45 -44,90 -59,133 -8,-13 -14,-28 -20,-42 37,-96 74,-164 109,-216 45,-93 92,-221 97,-286 9,53 -17,148 -45,224 49,-65 104,-128 163,-189 55,-74 103,-151 127,-232 -1,37 -18,103 -52,159 104,-101 253,-210 366,-284 -113,90 -336,287 -449,409 87,-51 271,-85 271,-85 -100,31 -215,63 -310,129 -70,80 -118,139 -163,216 90,-76 241,-112 296,-125 -125,42 -236,99 -329,187z"/>
   <path class="fil0" d="M6034 1900c-16,438 -443,765 -844,845 4,-10 -24,-33 -23,-43 393,-81 807,-389 823,-816 8,-204 -128,-444 -341,-477 -79,-12 -146,16 -185,77 -35,55 -38,124 -9,170 46,72 145,61 145,61 -22,4 -114,13 -157,-53 -33,-50 -30,-127 9,-186 42,-66 124,-113 208,-97 236,43 384,309 376,519z"/>
   <path class="fil0" d="M3364 7070c-316,260 -701,334 -1034,227l9 -29c353,60 688,-23 936,-221 375,-300 596,-796 549,-1192l-18 -145c-92,-743 -190,-1877 609,-2250l13 27c-779,364 -609,1486 -518,2220l18 145c48,406 -186,905 -564,1217z"/>
   <path class="fil0" d="M3578 7288c-3,-105 -79,-170 -172,-187 -36,-7 -101,5 -140,22 1,11 -53,33 -55,45 102,-45 169,-40 221,-20 61,23 119,125 61,200 -16,-136 -222,-53 -101,52 83,72 189,-27 187,-111z"/>
   <path class="fil0" d="M5417 6077c-134,-72 -339,-119 -546,-116 -235,4 -682,58 -969,473l5 38c281,-406 734,-483 964,-487 227,-4 420,49 540,116 42,82 112,247 189,184 94,-77 -80,-200 -183,-209z"/>
   <path class="fil0" d="M5543 2213c63,-54 117,-216 20,-222 -80,-5 -47,135 -35,208 -46,100 -146,225 -295,330 -49,35 -118,75 -201,110 6,6 11,12 17,19 80,-36 146,-78 195,-113 135,-95 246,-222 299,-332z"/>
   <path class="fil0" d="M3405 4783c-116,-171 -271,-313 -407,-381 -66,-80 -267,-152 -276,-30 -8,99 167,62 259,49 123,60 277,188 404,376 129,191 404,685 252,1193l7 141c226,-555 -107,-1153 -239,-1348z"/>
   <path class="fil0" d="M4095 3184c6,-179 136,-204 105,-404 -19,-110 -143,-263 -50,-278 52,5 181,34 198,165 12,-137 90,-296 175,-363 32,34 40,51 52,69 120,-135 277,-46 319,81 76,-31 141,3 165,39 49,120 122,88 193,126 190,117 280,316 225,521 157,16 145,128 72,189 25,13 57,28 76,31 -6,30 -1,46 -37,70 48,-6 87,33 113,67 20,55 -17,76 -19,122 73,51 62,353 -16,480 -32,-46 -137,-67 -194,-55 -143,35 -214,184 -313,103 -32,-26 -31,73 -74,64 -107,-51 -91,-175 -240,-202 -64,240 318,376 279,405 -276,129 -622,-77 -631,-177 -8,-91 -73,-437 -234,-562 -125,-71 -328,-59 -423,-203 -151,-197 -247,-375 -405,-524 355,17 498,22 661,233z"/>
   <path class="fil1" d="M4521 2406c-62,294 188,451 229,682 13,49 -30,78 -87,102 -26,1 -51,-2 -74,-14 -16,-9 -42,-29 -74,-33 -31,-94 -68,-180 -26,-296 -71,102 -17,214 -2,298 -18,4 -37,13 -56,34 -15,-1 -98,-207 -55,-418 10,-37 43,-345 145,-353z"/>
   <path class="fil1" d="M4318 3604c0,0 185,-45 60,-480 -21,-68 -59,-116 -40,-342 15,-49 -65,-203 -139,-214 -62,-9 70,139 42,253 26,172 -139,410 -111,519 -4,33 -7,101 107,231 26,39 82,34 82,34z"/>
   <path class="fil1" d="M4578 3262c-23,-21 -78,-74 -78,-74 0,0 201,71 433,-92 60,-33 223,4 415,209 37,39 90,62 178,88 -182,117 -422,82 -622,-4 -49,-29 -258,-6 -325,-126z"/>
   <path class="fil1" d="M4631 3373c6,8 42,38 65,51 292,101 320,245 346,286 16,25 75,134 48,252 -51,69 55,218 -21,169 -81,-43 -60,-166 -328,-177 -43,4 -352,-39 -421,-318 35,-27 76,-46 102,-91 75,100 225,75 276,194 -41,-140 -196,-120 -264,-219 9,-22 9,-29 13,-72 141,112 314,97 387,259 -32,-167 -328,-201 -384,-335 0,-61 -11,-134 -11,-134 0,0 67,-44 191,133z"/>
   <path class="fil1" d="M5125 2650c-21,5 11,144 53,157 23,-23 14,-54 41,-54 47,25 174,162 129,256 5,29 50,52 50,52 0,0 47,-23 33,-111 -14,-88 -166,-332 -307,-300z"/>
   <path class="fil1" d="M5167 2869c45,52 88,35 129,104 27,-65 -66,-157 -87,-155 -27,2 -53,10 -42,51z"/>
   <path class="fil1" d="M5165 2893c-58,-66 -57,-174 -81,-270 -24,-3 -237,339 -235,444 216,-118 493,167 540,196 86,55 153,29 164,-56 -190,10 -388,-314 -387,-314z"/>
   <path class="fil1" d="M4732 2361c47,20 55,61 94,100 -21,1 -39,1 -45,5 -225,62 -56,315 -40,525 -44,-115 -132,-227 -153,-271 -51,-108 -77,-198 2,-312 31,-46 84,-72 142,-48z"/>
   <path class="fil1" d="M4716 3396c167,47 303,203 379,339 64,116 -1,375 138,390 61,7 154,-102 211,-115 65,-15 143,-12 200,21 -49,-63 -103,-100 -174,-111 -236,-35 -284,-229 -355,-350 -25,-43 -197,-198 -398,-174z"/>
   <path class="fil1" d="M4501 3913c0,0 82,119 39,229 61,-90 26,-183 18,-195 15,7 23,10 39,15 42,66 48,181 15,255 48,-51 61,-169 29,-242 43,12 130,25 167,23 -40,177 154,332 270,413 -95,42 -416,-30 -486,-93 -104,-93 -67,-324 -177,-480 24,31 51,53 86,75z"/>
   <path class="fil1" d="M5241 3590c89,57 208,101 268,41 -44,26 -167,-2 -257,-59 -31,-20 -49,-39 -87,-58 115,14 230,-24 287,-29 67,-6 87,26 149,6 33,1 60,57 25,129 122,119 24,209 27,370 -84,-93 -159,-117 -283,-128 -87,-8 -217,-282 -264,-342 54,18 88,40 135,70z"/>
   <path class="fil1" d="M4935 2518c57,21 58,120 8,192 -34,49 -72,164 -120,290 2,-23 -10,-278 45,-322 -95,35 -70,367 -88,408 12,-228 -204,-474 -16,-587 60,-27 129,3 171,19z"/>
   <path class="fil1" d="M4104 3235c-3,26 -5,49 -2,78 -60,-66 -133,-115 -172,-111 41,15 176,142 176,142 4,24 9,46 17,70 -85,-76 -199,-142 -264,-144 45,10 200,116 287,207 22,49 48,80 85,113 -83,-22 -234,-50 -369,-155 -118,-128 -138,-303 -339,-441 318,22 581,241 581,241z"/>
   <path class="fil0" d="M4100 4428c87,-33 145,-105 183,-184 47,-98 -1,-165 16,-261 15,-90 179,-265 91,-355 -63,-64 -181,11 -222,69 -86,120 13,234 38,358 28,139 -10,268 -106,372z"/>
   <path class="fil0" d="M3769 3994c-6,-138 84,-179 187,-239 51,-30 238,-124 170,-185 -58,-51 -264,52 -299,97 -64,80 -62,231 -58,327z"/>
   <path class="fil0" d="M3743 4016c-1,-3 -199,-309 -279,-272 -5,-159 -99,-338 -215,-365 -96,-19 -151,-147 -228,-119 -56,58 -241,64 -274,152 -4,54 46,96 51,168 15,183 97,256 259,376 24,18 49,31 75,41 -74,75 -78,117 -79,151 7,35 44,67 74,181 55,-230 152,-139 166,-266 25,8 54,7 80,-3 19,-8 32,-21 41,-37 42,40 88,72 59,189 77,-87 114,-204 7,-285 75,0 82,-62 261,90z"/>
   <path class="fil1" d="M3393 3622c-7,-46 -13,-108 -77,-148 -75,-62 -147,-63 -211,-138 -14,75 -45,142 -116,145 125,28 333,47 404,141z"/>
   <path class="fil1" d="M3385 3646c-5,-12 -178,54 -231,41 -119,-5 -152,-37 -187,-102 -38,-30 -118,-31 -163,-134 -8,-10 -21,-12 -31,-17 24,47 51,93 63,147 -2,48 13,101 34,141 84,137 195,204 301,247 63,22 173,9 207,-45 36,-89 75,-194 7,-278z"/>
   <path class="fil1" d="M3242 3560c-134,-44 -290,-25 -411,-104 19,65 92,84 172,130 14,23 86,74 205,80 53,-12 136,-27 149,-52 -34,-28 -75,-41 -115,-55z"/>
   <path class="fil1" d="M2944 3421c-40,-30 26,-31 25,-58l-3 -7c-25,-9 -77,3 -107,8 -27,5 -92,35 -42,55 24,10 197,65 205,26 5,-22 -65,-15 -79,-25z"/>
   <path class="fil1" d="M3026 3298c-22,22 -3,71 15,41 11,43 -63,28 -60,61l-9 1c30,-3 57,6 84,-10 29,-17 37,-41 27,-70 -9,-27 -31,-48 -57,-23z"/>
   <path class="fil1" d="M3424 3921c-5,21 -25,33 -38,38 8,43 123,82 115,190 47,-72 48,-170 -77,-228z"/>
   <path class="fil1" d="M3457 3766c9,52 -1,96 -19,131 46,19 97,-3 128,-2 41,1 84,33 121,61 -31,-44 -153,-192 -230,-190z"/>
   <path class="fil1" d="M3207 4133c28,-20 76,-54 64,-119 -22,15 -95,14 -119,-8 -48,45 -74,112 -72,141 2,35 36,69 47,119 -5,-51 41,-104 80,-132z"/>
   <path class="fil0" d="M3488 4595c95,238 229,539 312,1014l11 -172c-83,-478 -207,-611 -302,-850 -87,-218 -149,-376 -134,-558l-21 -2c-16,187 48,347 135,568z"/>
  </g>
 </g>
</svg>
