<?xml version="1.0" encoding="UTF-8"?>
<!DOCTYPE svg PUBLIC "-//W3C//DTD SVG 1.1//EN" "http://www.w3.org/Graphics/SVG/1.1/DTD/svg11.dtd">
<!-- Creator: CorelDRAW X5 -->
<svg xmlns="http://www.w3.org/2000/svg" xml:space="preserve" width="210mm" height="297mm" style="shape-rendering:geometricPrecision; text-rendering:geometricPrecision; image-rendering:optimizeQuality; fill-rule:evenodd; clip-rule:evenodd"
viewBox="0 0 21000 29700"
 xmlns:xlink="http://www.w3.org/1999/xlink">
 <defs>
  <style type="text/css">
   <![CDATA[
    .fil0 {fill:#332C2B}
    .fil1 {fill:#FEFEFE}
   ]]>
  </style>
 </defs>
 <g id="图层_x0020_1">
  <metadata id="CorelCorpID_0Corel-Layer"/>
  <g id="_244552792">
   <path class="fil0" d="M2484 6452c-89,31 -142,119 -146,206 -4,77 34,153 93,183 77,39 161,-19 179,-35 0,0 -89,64 -172,20 -53,-28 -88,-96 -84,-167 4,-80 54,-143 136,-174 222,-84 483,72 586,271 30,58 92,178 107,253 17,-4 14,-99 15,-137 -14,-61 -34,-70 -64,-128 -107,-205 -400,-379 -650,-292z"/>
   <path class="fil0" d="M4216 3958c-116,131 -240,74 -195,-4 135,-231 500,-250 529,-74 0,0 -83,-207 -334,77z"/>
   <path class="fil0" d="M3130 2948c59,113 88,266 31,418 -11,1 -22,3 -33,4 40,-150 8,-307 -44,-407 -81,-156 -221,-235 -366,-205 -101,21 -186,104 -207,201 -17,81 11,156 80,210 39,31 103,39 153,20 36,-14 59,-39 67,-72 7,-31 0,-56 -18,-71 -19,-15 -47,-18 -69,-8 -27,12 -34,50 -34,50 -2,-28 7,-47 29,-60 27,-15 60,-15 84,5 14,11 35,37 24,88 -8,39 -36,69 -77,84 -56,21 -125,12 -168,-22 -73,-58 -104,-141 -86,-228 22,-106 111,-191 220,-214 151,-32 330,43 415,206z"/>
   <path class="fil0" d="M4018 4335c50,-169 202,-337 393,-345 78,-3 145,49 175,115 27,59 20,128 -17,169 -48,54 -130,34 -149,27 0,0 88,23 139,-36 32,-38 39,-101 15,-155 -27,-60 -85,-95 -157,-94 -175,2 -316,159 -360,325 -13,-3 -26,-5 -39,-7z"/>
   <path class="fil0" d="M1991 3992c-103,22 -182,116 -202,216 -17,82 14,160 83,215 41,32 107,40 160,20 39,-15 64,-43 72,-80 10,-48 -10,-73 -24,-83 -23,-18 -54,-19 -79,-4 -21,12 -29,30 -27,57 0,0 6,-36 32,-47 21,-9 47,-7 65,7 18,14 24,38 18,67 -7,31 -29,56 -62,69 -47,18 -109,11 -146,-18 -66,-51 -93,-122 -77,-198 19,-92 99,-171 195,-192 132,-29 310,56 396,217 3,-31 -6,-91 -23,-119 -88,-125 -251,-154 -381,-125z"/>
   <path class="fil0" d="M4714 4835c74,-32 164,-10 222,43 47,43 63,105 45,170 -11,38 -48,73 -90,84 -31,8 -59,2 -80,-17 -28,-25 -26,-50 -23,-62 6,-21 25,-36 47,-38 18,-2 32,6 42,23 0,0 -20,-20 -41,-15 -17,4 -32,17 -37,34 -5,16 2,34 19,49 18,16 43,21 69,15 37,-10 72,-42 82,-76 18,-61 3,-117 -41,-157 -53,-49 -138,-62 -206,-32 -94,41 -167,173 -148,311 -16,-18 -37,-59 -39,-84 -2,-117 86,-207 179,-248z"/>
   <path class="fil0" d="M2876 5408c-151,340 -41,793 292,1119 96,94 213,173 325,250 155,105 301,204 399,339 96,132 131,271 103,413 -34,176 -124,295 -346,452l-42 84c298,-168 416,-336 452,-522 29,-151 -37,-311 -137,-449 -102,-140 -258,-246 -408,-348 -111,-75 -226,-154 -320,-245 -322,-315 -435,-742 -281,-1064 123,-259 377,-366 723,-327l23 -89c-362,-42 -653,93 -783,387z"/>
   <path class="fil0" d="M2513 3749c-15,-119 11,-200 1,-240 -13,-26 -47,-17 -66,-8 4,-73 -4,-103 -10,-116 -5,-5 -23,-7 -43,2 -25,-42 -51,-92 -97,-123 -12,-5 -26,0 -28,12 -52,-37 -109,-64 -177,-62 -17,1 -37,-1 -44,15 -39,-10 -72,-26 -112,-30 -18,-1 -42,1 -32,26 -40,2 -78,-1 -113,-10 -19,-4 -39,-29 -56,-12 -3,58 -36,169 13,262 -34,19 -11,66 7,94 0,0 -33,11 -36,26 20,93 114,135 175,174 0,0 -14,11 -25,33 9,46 120,70 195,66 0,0 13,5 3,33 11,12 66,-6 95,-8 215,-33 347,-71 426,117 19,-19 23,-19 42,-38 -65,-72 -106,-130 -118,-216z"/>
   <path class="fil1" d="M2107 3299c59,89 107,182 133,284 -147,-121 -311,-199 -448,-341 41,4 86,15 134,11 -5,-14 -10,-32 2,-36 15,-1 145,13 179,83z"/>
   <path class="fil1" d="M2186 3290c70,110 111,231 130,363 -18,-22 -45,-37 -56,-60 -30,-125 -86,-240 -172,-339 -4,-8 -6,-13 3,-16 48,-12 69,23 95,53z"/>
   <path class="fil1" d="M2077 3482c-88,39 -213,34 -297,-9 -27,-68 -39,-197 -20,-240 39,74 210,178 316,248z"/>
   <path class="fil1" d="M2385 3410c-28,-40 -43,-84 -83,-118 -14,-1 -6,22 -16,21 -20,-28 -72,-52 -111,-65 78,95 114,207 146,320 10,25 6,64 10,91 11,15 22,23 37,35 4,-42 35,-144 42,-168 37,-111 1,-125 -25,-116z"/>
   <path class="fil1" d="M2012 3522c32,-5 61,-20 90,-24 81,59 159,113 229,195 -114,66 -267,72 -407,56 -62,-34 -167,-89 -183,-160l52 -8c-17,-26 -58,-66 -43,-87 30,4 56,16 80,18 59,9 121,20 182,10z"/>
   <path class="fil1" d="M2469 3839c-127,-25 -254,17 -367,33 -8,-14 -15,-35 -46,-35 -48,0 -146,1 -157,-41 -4,-15 25,-30 25,-30 81,15 171,10 254,-2 58,-11 116,-22 166,-56 37,29 98,98 126,131z"/>
   <path class="fil1" d="M2495 3827c-3,-59 -6,-125 -7,-149 -2,-25 2,-48 7,-73 4,-20 12,-56 7,-77 -5,-18 -32,-32 -84,50 -23,36 -27,79 -36,126l113 124z"/>
   <polygon class="fil0" points="3479,8218 3430,8218 3430,2760 3479,2760 "/>
   <polygon class="fil0" points="3678,7982 3628,7982 3628,2774 3678,2774 "/>
   <path class="fil0" d="M3855 3369c-113,-59 -88,37 -360,-149 -113,-59 -235,5 -308,148 -12,-94 -69,-76 -109,-103 -82,-41 -130,-50 -167,62 -140,30 -320,119 -336,195 11,207 -35,175 -61,273 -8,62 41,85 18,102 -60,2 -136,24 -165,122 -15,52 -70,58 -83,97 0,35 4,80 39,144 14,117 -35,314 275,545 153,66 508,81 642,-39 90,76 135,85 256,95 277,38 259,-102 372,-312 22,-43 140,-86 190,-152 101,-149 108,-300 35,-413 94,-147 -88,-595 -237,-614z"/>
   <path class="fil1" d="M3057 4407c-6,24 -24,48 -47,59 -9,5 -37,15 -70,-11 -80,-62 -137,-138 -173,-204 0,0 -157,-17 -103,147 34,101 12,156 358,207 85,13 149,24 195,12 39,-14 50,-66 103,-131 -41,5 -200,-41 -264,-78z"/>
   <path class="fil1" d="M3489 3840c-23,-21 -59,-30 -97,-27 0,59 -14,130 -53,205 1,23 -3,49 13,64 23,11 100,-105 176,-139 0,-39 -14,-79 -38,-102z"/>
   <path class="fil1" d="M3146 4161c-61,-9 -147,-26 -177,-58 -49,-52 -32,-77 -58,-75 6,55 39,118 78,194 25,48 238,16 228,-31 -18,-7 -43,-17 -71,-30z"/>
   <path class="fil1" d="M3317 3973c1,-23 12,-56 7,-76 -41,42 -152,110 -199,150 -21,19 -51,28 -77,29 57,39 153,90 181,98 24,-2 79,-42 113,-86 -24,-42 -27,-91 -26,-115z"/>
   <path class="fil1" d="M3529 3896c4,4 7,6 7,6 0,0 -2,-2 -7,-6z"/>
   <path class="fil1" d="M3220 3515c3,-24 8,-124 -148,-67 -348,125 -287,276 -286,275 124,-56 137,-127 248,-143 111,-16 110,5 138,-10 27,-15 46,-31 49,-56z"/>
   <path class="fil1" d="M3166 3414c-20,-37 4,-73 -73,-95 -52,-15 -61,-31 -88,-45 -27,5 -36,50 -54,66 -116,105 -359,62 -340,279 4,49 14,72 -13,112 -27,41 -63,61 -34,115 23,43 95,85 140,102 17,6 31,10 44,10 -103,-113 13,-199 12,-251 -10,-147 255,-319 407,-293z"/>
   <path class="fil1" d="M3802 3689c-1,0 -1,0 -2,0 -34,6 -80,49 -107,83 -2,7 -4,14 -7,21 -42,100 -185,172 -243,242 -58,70 -216,222 -297,225 -87,4 -160,-2 -186,-3 -23,-1 -2,40 52,91 53,51 168,90 290,108 23,3 94,34 193,-44 27,-21 33,-54 43,-85 7,-22 14,-45 27,-67 51,-87 155,-129 248,-166l56 -23c40,-18 84,-53 97,-98 7,-27 -16,-83 -16,-83 -1,-2 -2,-5 -4,-7 -66,-117 -107,-185 -144,-195z"/>
   <path class="fil1" d="M3871 3426c-90,-13 -196,-20 -308,-115 -113,-94 -263,-25 -303,24 -40,49 -53,71 -53,71 40,17 50,56 50,56 0,0 79,-57 225,27 72,41 133,92 170,144 -9,-46 -13,-104 3,-140 7,-16 24,-29 37,-34 0,0 -23,23 -27,41 -11,49 -3,126 13,175 3,8 6,15 9,23 12,-40 36,-84 65,-112 25,-25 53,-38 79,-37l-3 9c-28,-1 -50,23 -66,39 -34,34 -62,90 -68,134 0,2 1,4 1,6 30,-32 70,-62 101,-68 11,-2 20,-1 27,2 47,11 97,81 168,238 2,5 4,16 5,29 18,4 33,10 46,20 27,-20 58,-60 36,-127 -75,-233 -128,-386 -207,-405z"/>
   <path class="fil1" d="M3016 4638c-244,-44 -318,-47 -376,-224 -45,-138 49,-175 93,-185 -64,-41 -191,-85 -261,-68l-11 -5c87,-30 215,17 280,58 -19,-22 -38,-50 -55,-76l-15 -24c-24,-35 -61,-55 -93,-71l24 2c31,15 57,26 81,61l16 24c12,18 24,35 37,50 -34,-99 -24,-179 11,-201 0,0 -168,-58 -240,-47 -62,9 -89,120 -151,162 -62,42 26,129 10,226 -19,120 133,327 205,412 72,85 444,59 518,58 136,-1 165,-115 136,-143 -48,6 -136,6 -209,-8z"/>
   <path class="fil1" d="M3996 3960c0,10 -1,19 -3,25 -12,42 -52,79 -116,107l-57 23c-80,32 -170,69 -221,134 13,-5 28,-7 44,-5 63,8 130,72 155,113l-9 1c-24,-38 -89,-92 -148,-99 -24,-3 -44,3 -60,18 -9,17 -16,36 -21,53 82,17 148,66 205,155l-8 4c-55,-86 -122,-130 -202,-145 -9,29 -20,58 -45,84 -10,47 32,150 62,201l-6 4c-23,-32 -71,-130 -71,-190 -37,33 -91,58 -146,47 -46,38 -89,113 -94,139 -4,17 -2,52 2,69 10,40 56,74 93,91 76,35 173,27 252,16 97,-13 137,-76 170,-164 14,-37 18,-86 43,-118 27,-36 68,-42 105,-63 143,-83 214,-286 142,-437 -7,-14 -16,-29 -26,-43 -13,-10 -25,-17 -40,-21z"/>
   <path class="fil1" d="M3224 3717c54,57 117,85 117,85 0,0 -73,-5 -127,-67 -53,-62 -120,-1 -176,29 -90,49 -115,186 -115,186 0,0 -1,-141 97,-201 99,-60 158,-80 203,-32zm9 205c69,-128 -16,-100 -66,-80 -50,19 -122,-23 -124,59 -2,82 134,76 134,76 0,0 -148,34 -155,-89 -5,-90 93,-42 150,-66 40,-17 169,-52 61,101zm-33 -22c-13,-2 -31,1 -26,-15 9,-28 58,0 49,43 -7,-21 -10,-26 -23,-28zm36 46c-49,19 -100,5 -123,-6 -24,-11 -44,-58 -3,-73 49,-18 24,19 26,38 2,19 3,43 99,41zm220 -426c-162,-77 -213,-27 -221,-17 -22,90 -90,97 -157,94 -16,4 -34,9 -53,17 -103,38 -139,97 -223,130 -85,33 -90,157 -27,237 -50,50 -66,245 177,454 4,4 33,21 51,11 18,-10 35,-32 36,-51l1 0c-21,-15 -42,-32 -61,-54 -79,-91 -50,-99 -8,-108 -23,-62 -78,-153 -81,-217 -43,-20 -43,-74 -23,-95 22,-24 -12,-136 117,-162 -115,52 -64,146 -90,173 -25,27 -26,52 24,60 50,8 15,40 61,84 21,21 73,41 124,56 -50,-26 -94,-52 -105,-76 -15,-31 -2,-64 22,-82 -13,30 -16,51 -3,69 13,18 79,10 123,-27 47,-40 178,-112 194,-148 9,3 8,118 8,124 25,-91 16,-142 26,-193 12,-61 -1,-117 -52,-119 -52,-2 -46,-75 -98,-66 -52,10 -111,55 -172,102 32,-37 98,-99 165,-122 67,-23 68,60 117,58 18,-1 38,24 52,64 6,-43 24,-90 65,-113l2 9c-52,29 -59,105 -57,153 1,3 1,6 2,9 3,0 6,0 9,0 11,-49 66,-64 104,-62l5 7c-32,6 -83,15 -95,56 35,5 61,29 86,52 27,25 42,63 44,104 60,-52 104,-101 105,-133 3,-80 -13,-191 -191,-277z"/>
   <path class="fil0" d="M3476 5106c75,-77 80,6 247,-213 75,-77 188,-58 283,37 -15,-78 35,-79 60,-111 55,-54 90,-74 149,5 119,-13 286,11 318,67 45,167 74,130 120,201 23,47 -10,78 13,86 48,-14 114,-16 163,54 26,38 70,28 91,55 10,28 18,64 7,125 20,96 110,240 -76,505 -105,93 -383,197 -521,137 -52,84 -85,103 -179,142 -211,103 -233,-13 -377,-151 -29,-28 -134,-32 -191,-71 -119,-92 -164,-210 -136,-319 -113,-92 -86,-496 27,-550z"/>
   <path class="fil1" d="M4383 5722c11,17 32,32 52,34 9,1 33,2 53,-27 47,-71 73,-146 84,-207 0,0 120,-55 120,90 0,89 31,127 -231,258 -64,32 -112,58 -152,60 -35,-1 -57,-40 -116,-77 34,-7 148,-85 189,-132z"/>
   <path class="fil1" d="M3891 5384c13,-23 39,-39 70,-47 15,47 45,100 96,149 5,19 15,38 6,54 -15,15 -107,-57 -176,-64 -10,-31 -10,-67 4,-91z"/>
   <path class="fil1" d="M4248 5549c47,-23 110,-59 125,-93 25,-54 5,-69 26,-74 10,45 0,104 -11,175 -7,45 -184,75 -189,35 12,-10 30,-25 49,-43z"/>
   <path class="fil1" d="M4063 5445c-7,-18 -24,-42 -26,-59 44,23 150,48 198,67 22,9 48,9 69,3 -35,46 -98,111 -119,125 -19,4 -74,-13 -113,-38 9,-40 -2,-79 -10,-98z"/>
   <path class="fil1" d="M3874 5439c-2,4 -4,6 -4,6 0,0 1,-2 4,-6z"/>
   <path class="fil1" d="M4019 5055c-9,-19 -39,-96 101,-92 310,8 301,144 299,144 -113,-12 -142,-65 -235,-48 -92,16 -86,33 -112,28 -26,-5 -45,-13 -53,-31z"/>
   <path class="fil1" d="M4036 4961c6,-35 -22,-57 33,-95 37,-26 40,-41 58,-59 23,-3 42,30 60,38 120,53 302,-45 343,132 9,40 8,61 40,86 33,26 66,32 57,83 -7,40 -53,93 -84,118 -12,10 -22,16 -32,20 52,-117 -62,-155 -75,-196 -30,-120 -286,-187 -401,-127z"/>
   <path class="fil1" d="M3603 5346c1,0 1,0 2,0 28,-4 77,17 107,38 3,5 7,10 11,15 60,68 192,89 257,129 65,40 230,120 295,101 70,-20 127,-43 147,-51 18,-7 12,31 -17,86 -29,54 -110,116 -202,162 -18,9 -66,52 -165,16 -27,-10 -41,-34 -57,-57 -11,-16 -23,-32 -39,-46 -63,-56 -157,-62 -241,-67l-51 -4c-37,-4 -81,-20 -103,-53 -13,-20 -9,-70 -9,-70 0,-2 1,-4 1,-6 22,-110 37,-175 63,-193z"/>
   <path class="fil1" d="M3478 5155c68,-34 150,-67 215,-172 65,-105 203,-89 247,-61 45,28 60,43 60,43 -28,24 -25,58 -25,58 0,0 -78,-24 -172,80 -47,52 -81,107 -98,159 -5,-38 -17,-86 -39,-111 -9,-11 -27,-17 -38,-17 0,0 24,12 32,26 22,36 35,100 36,142 -1,7 -1,14 -1,21 -20,-29 -51,-57 -81,-72 -27,-13 -52,-17 -72,-9l5 6c22,-8 46,5 63,13 36,18 72,55 89,89 0,2 0,3 1,5 -33,-17 -72,-31 -98,-28 -9,1 -16,5 -21,9 -34,21 -56,90 -71,234 0,4 1,14 4,25 -13,8 -23,17 -32,28 -26,-9 -61,-33 -62,-91 -1,-205 1,-340 58,-376z"/>
   <path class="fil1" d="M4476 5895c182,-99 240,-120 240,-277 0,-121 -84,-126 -122,-122 40,-50 130,-117 189,-122l7 -7c-77,-1 -166,69 -208,119 10,-22 17,-50 24,-75l6 -23c9,-34 34,-60 56,-81l-18 8c-20,20 -39,36 -48,70l-6 23c-5,18 -10,34 -16,49 2,-87 -28,-149 -61,-157 0,0 118,-90 178,-100 51,-9 102,72 162,89 60,17 13,109 51,183 47,90 -20,295 -55,381 -35,86 -338,163 -397,182 -108,35 -162,-48 -146,-78 40,-8 109,-31 164,-61z"/>
   <path class="fil1" d="M3519 5612c3,8 6,15 9,19 20,30 62,50 120,55l52 4c72,5 153,10 211,49 -12,0 -24,2 -36,8 -48,23 -85,91 -94,130l8 -2c9,-37 47,-96 91,-118 18,-9 36,-9 52,-1 12,11 22,24 31,37 -61,35 -100,91 -122,177l7 1c21,-83 63,-135 122,-168 15,21 31,41 58,55 20,35 14,128 3,176l6 2c10,-32 22,-122 7,-170 38,16 88,22 129,-1 47,18 100,66 112,86 8,13 15,41 16,55 2,34 -25,74 -50,97 -51,48 -130,66 -196,79 -80,15 -129,-25 -178,-86 -21,-25 -37,-64 -65,-83 -31,-21 -65,-15 -100,-23 -136,-29 -245,-171 -228,-310 2,-13 5,-27 10,-41 7,-11 16,-20 27,-27z"/>
   <path class="fil1" d="M4239 5189c94,22 130,134 130,134 0,0 -55,-103 -140,-118 -52,-9 -121,-40 -147,23 -26,63 -83,87 -83,87 0,0 43,-39 71,-99 23,-50 75,-50 169,-28zm-100 97c52,5 117,-59 136,13 27,99 -100,111 -100,111 0,0 110,-31 87,-96 -23,-65 -70,-12 -114,-14 -45,-2 -120,-2 -32,81 -125,-93 -14,-99 23,-96zm-13 98c-18,-32 13,-68 27,-47 8,12 -7,14 -17,19 -10,5 -10,10 -11,28zm63 -41c-4,-16 -33,-38 11,-37 37,2 33,44 17,59 -15,14 -52,39 -96,37 77,-24 72,-43 68,-59zm-434 48c9,26 57,52 119,78 -10,-33 -8,-67 7,-94 14,-25 28,-50 55,-64 -20,-30 -63,-24 -90,-19l2 -6c30,-12 77,-14 99,22 2,-1 4,-2 7,-2 -1,-3 -1,-5 -1,-7 -10,-38 -36,-97 -85,-106l-1 -8c39,8 65,40 82,73 0,-36 10,-60 25,-64 39,-11 18,-77 78,-77 59,1 129,33 164,54 -61,-21 -120,-42 -163,-36 -44,6 -20,63 -61,78 -40,15 -35,62 -10,108 21,38 27,81 71,147 -2,-5 -32,-96 -26,-100 22,24 145,47 193,67 44,18 99,7 105,-11 5,-18 -2,-34 -21,-54 24,8 43,30 39,59 -3,22 -31,54 -64,88 36,-25 72,-55 84,-77 25,-48 -12,-63 26,-83 38,-20 30,-40 3,-54 -27,-15 -11,-103 -117,-114 109,-13 112,85 135,98 21,12 35,54 6,82 14,51 -6,138 -8,194 36,-4 61,-4 22,88 -10,22 -21,42 -34,59l1 0c6,15 25,28 42,31 17,3 35,-18 37,-22 139,-230 75,-381 22,-408 29,-80 -8,-177 -84,-181 -76,-4 -119,-42 -212,-45 -18,-1 -33,0 -47,1 -53,20 -108,32 -149,-33 -9,-6 -63,-33 -171,71 -119,115 -103,207 -79,270z"/>
   <path class="fil0" d="M3182 1882c-100,79 -159,238 -147,394 15,190 125,352 311,458 104,59 208,69 308,78 147,14 287,27 434,185 85,92 132,219 127,349 -4,98 -29,194 -169,323l51 89c116,-108 172,-258 177,-406 5,-140 -57,-297 -149,-396 -157,-168 -320,-168 -468,-181 -101,-9 -196,-18 -293,-74 -175,-99 -279,-251 -292,-428 -11,-145 42,-290 133,-362 99,-78 204,-99 290,-57 60,29 100,86 100,141 0,43 -20,84 -58,135 43,-18 95,-76 96,-135 1,-69 -48,-140 -121,-175 -100,-49 -220,-26 -330,61z"/>
   <path class="fil0" d="M3702 7357c-11,-162 80,-190 70,-233 -14,-28 -146,-25 -173,-1 4,-78 -5,-110 -11,-124 -6,-6 -25,-8 -46,3 -27,-45 -54,-98 -103,-131 -12,-6 -28,0 -30,13 -56,-40 -116,-68 -189,-66 -18,1 -40,-1 -47,16 -41,-10 -77,-27 -120,-32 -19,-2 -44,1 -34,28 -42,2 -83,-2 -120,-11 -20,-4 -41,-31 -60,-13 -3,62 -39,180 13,280 -37,20 -12,71 8,101 0,0 -35,12 -39,27 22,99 122,145 187,185 0,0 -15,12 -27,35 10,49 128,75 209,71 0,0 14,5 3,36 12,13 70,-6 101,-8 229,-35 473,-58 469,227 21,-20 29,-79 50,-99 -93,-127 -98,-213 -110,-305z"/>
   <path class="fil1" d="M3234 6908c63,95 114,194 142,303 -156,-129 -331,-213 -478,-364 44,4 92,16 143,12 -5,-15 -11,-34 2,-38 16,-1 154,14 191,88z"/>
   <path class="fil1" d="M3319 6898c75,117 119,247 139,387 -20,-23 -48,-39 -60,-64 -32,-133 -92,-255 -184,-362 -4,-9 -6,-14 3,-17 51,-13 73,25 102,56z"/>
   <path class="fil1" d="M3202 7103c-94,42 -227,36 -317,-9 -29,-73 -42,-210 -21,-256 42,79 224,190 337,265z"/>
   <path class="fil1" d="M3530 7026c-30,-42 -45,-90 -88,-126 -15,-1 -6,24 -17,23 -22,-29 -76,-56 -118,-70 83,102 121,220 156,341 11,26 6,68 11,97 12,16 23,25 39,38 4,-45 38,-154 45,-179 39,-118 1,-133 -27,-124z"/>
   <path class="fil1" d="M3133 7146c34,-5 65,-22 96,-26 87,63 170,120 244,208 -122,70 -285,76 -434,60 -66,-36 -178,-95 -195,-171l55 -8c-18,-28 -62,-70 -46,-92 32,5 59,16 85,19 63,9 129,21 195,11z"/>
   <path class="fil1" d="M3621 7485c-135,-27 -271,18 -392,35 -9,-15 -16,-37 -50,-37 -52,0 -156,1 -167,-43 -4,-16 27,-32 27,-32 86,16 183,10 270,-3 62,-12 124,-23 177,-59 40,30 104,104 135,139z"/>
   <path class="fil1" d="M3667 7481c-3,-63 -6,-133 -8,-159 -2,-27 2,-52 8,-78 4,-21 37,-67 59,-86 15,-13 -113,-62 -165,48 -19,41 -23,82 -33,132l138 142z"/>
   <path class="fil0" d="M3999 7034c-40,-122 -95,-190 -105,-234 1,-31 37,-37 60,-38 -37,-69 -43,-101 -43,-116 3,-8 19,-18 42,-17 5,-52 7,-112 37,-163 9,-10 25,-12 33,-1 33,-60 76,-111 143,-140 17,-6 36,-18 49,-5 33,-27 58,-57 95,-80 17,-10 40,-18 43,11 39,-16 74,-37 104,-61 17,-12 24,-46 49,-38 29,55 112,147 107,259 42,3 41,59 36,94 0,0 37,-4 47,8 23,99 -48,183 -90,247 0,0 19,5 39,21 12,49 -84,122 -158,153 0,0 -10,11 13,34 -5,17 -66,25 -95,36 -222,66 -386,84 -368,310 -27,-10 -20,-11 -47,-20 14,-74 6,-269 9,-260z"/>
   <path class="fil1" d="M4191 6412c-16,112 -20,224 1,334 86,-184 209,-334 277,-534 -38,22 -76,54 -124,72 -2,-16 -5,-36 -18,-34 -15,6 -133,78 -135,161z"/>
   <path class="fil1" d="M4111 6440c-18,138 -2,274 40,409 8,-30 27,-56 27,-84 -28,-134 -26,-271 11,-406 0,-10 0,-15 -10,-14 -51,10 -56,54 -68,94z"/>
   <path class="fil1" d="M4304 6575c103,-2 220,-64 282,-144 -5,-78 -52,-208 -90,-240 -4,90 -122,268 -192,384z"/>
   <path class="fil1" d="M3974 6646c9,-51 3,-101 26,-152 13,-7 16,19 25,13 7,-36 45,-83 77,-113 -32,127 -15,251 5,375 1,28 24,64 32,92 -4,20 -10,32 -19,51 -23,-39 -100,-123 -117,-143 -86,-90 -58,-120 -29,-123z"/>
   <path class="fil1" d="M4385 6584c-33,9 -68,8 -98,18 -51,94 -102,181 -132,292 140,11 291,-53 418,-131 45,-61 120,-162 103,-238l-54 16c5,-33 26,-90 2,-103 -27,18 -47,40 -69,53 -52,35 -108,74 -171,93z"/>
   <path class="fil1" d="M4088 7099c111,-82 253,-100 369,-136 1,-17 -2,-40 29,-55 46,-22 141,-66 133,-111 -4,-16 -38,-17 -38,-17 -71,52 -161,87 -246,113 -61,16 -122,32 -185,22 -23,45 -50,139 -62,183z"/>
   <path class="fil1" d="M4057 7099c-24,-58 -52,-123 -61,-147 -10,-25 -24,-46 -40,-67 -13,-17 -38,-49 -42,-71 -3,-20 16,-46 103,9 38,24 62,64 92,105l-52 171z"/>
   <path class="fil0" d="M3715 2274c-25,49 -22,125 58,193 56,48 121,71 184,93 84,30 171,61 239,153 66,89 88,193 64,301 -35,160 -169,319 -349,417l57 82c188,-101 295,-301 332,-470 26,-117 -8,-253 -79,-349 -74,-99 -165,-132 -253,-163 -63,-23 -122,-44 -174,-88 -57,-48 -87,-112 -62,-162 26,-51 65,-82 174,-84 -77,-25 -158,12 -190,76z"/>
   <path class="fil0" d="M3939 7002c-51,-219 -273,-364 -509,-518 -88,-57 -179,-117 -262,-181 -310,-240 -472,-593 -423,-922 33,-221 176,-430 374,-564 -13,-6 -66,11 -79,5 -197,139 -316,329 -350,555 -51,343 135,708 455,956 85,65 176,125 265,183 229,150 445,291 493,495 91,390 -263,1084 -491,1200 -105,40 -251,99 -194,183 67,99 178,13 251,-78 317,-351 577,-862 471,-1314z"/>
   <path class="fil0" d="M3710 8302c16,50 -74,24 -116,68 8,-54 97,-124 116,-68z"/>
   <path class="fil0" d="M3565 7809c-29,-92 -121,-156 -214,-166 -76,-8 -145,26 -189,94 -26,40 -28,101 -5,147 17,34 45,55 79,59 45,5 66,-16 74,-28 15,-22 12,-51 -3,-72 -13,-18 -30,-24 -54,-20 0,0 33,3 46,25 10,18 10,42 -1,60 -11,17 -32,25 -59,22 -29,-3 -53,-22 -68,-51 -21,-41 -19,-98 4,-134 41,-64 103,-95 174,-87 86,10 164,76 191,161 31,97 1,260 -89,366 30,-11 54,-32 83,-33 74,-94 63,-238 30,-342z"/>
   <path class="fil0" d="M4400 7213c-58,-46 -146,-61 -214,-25 -78,42 -159,114 -163,212 20,11 20,35 38,48 3,-106 63,-204 134,-242 63,-34 144,-27 198,15 45,35 63,87 51,146 -7,33 -37,66 -72,78 -25,9 -48,6 -67,-9 -17,-13 -25,-29 -22,-45 3,-16 17,-30 33,-35 20,-6 40,11 40,11 -11,-16 -24,-22 -42,-19 -21,4 -38,19 -42,39 -2,12 -2,35 26,57 22,17 49,21 78,11 39,-13 71,-49 79,-86 13,-63 -7,-120 -55,-158z"/>
   <path class="fil0" d="M3652 2707c0,0 -91,-83 -55,-178 28,-74 4,-121 -31,-172 -76,-112 17,-115 17,-115 0,0 -64,-19 -99,44 -18,32 -65,166 51,311 47,59 116,109 116,109z"/>
   <path class="fil0" d="M3310 2430c2,37 14,51 58,69 43,18 76,41 86,101 13,76 105,96 105,96 0,0 -65,-6 -119,-27 -115,-45 -144,-138 -145,-166 -1,-27 5,-54 15,-73z"/>
   <path class="fil0" d="M3031 6072c0,0 -56,-136 31,-220 69,-66 66,-128 54,-201 -25,-160 77,-115 77,-115 0,0 -59,-54 -129,-2 -36,26 -154,146 -104,362 20,88 70,177 70,177z"/>
   <path class="fil0" d="M3225 5843c-28,37 -28,60 -1,113 27,52 39,101 -1,166 -50,83 21,176 21,176 0,0 -57,-59 -91,-122 -73,-136 -25,-249 -3,-276 21,-26 49,-48 73,-57z"/>
   <path class="fil0" d="M3956 8093c-45,-9 -66,1 -102,48 -35,47 -75,79 -150,71 -96,-10 -150,95 -150,95 0,0 28,-77 71,-134 92,-124 214,-129 248,-121 33,8 64,23 83,41z"/>
   <path class="fil0" d="M2710 5317c11,-28 24,-55 39,-82 -68,-46 -154,-68 -234,-48 0,0 195,-21 195,129z"/>
   <path class="fil0" d="M4054 3356c21,-21 44,-41 68,-60 -45,-69 -115,-123 -196,-136 0,0 188,58 129,196z"/>
   <path class="fil0" d="M2813 5946c-17,-25 -33,-50 -47,-77 -75,32 -141,92 -168,169 0,0 89,-175 215,-92z"/>
   <path class="fil0" d="M3036 5225c22,-21 42,-43 61,-67 68,45 122,116 134,198 0,0 -56,-188 -195,-131z"/>
   <path class="fil0" d="M3771 6748c-21,-22 -43,-42 -66,-62 47,-67 118,-120 200,-131 0,0 -189,52 -134,192z"/>
  </g>
 </g>
</svg>
