<?xml version="1.0" encoding="UTF-8"?>
<!DOCTYPE svg PUBLIC "-//W3C//DTD SVG 1.1//EN" "http://www.w3.org/Graphics/SVG/1.1/DTD/svg11.dtd">
<!-- Creator: CorelDRAW X5 -->
<svg xmlns="http://www.w3.org/2000/svg" xml:space="preserve" width="210mm" height="297mm" style="shape-rendering:geometricPrecision; text-rendering:geometricPrecision; image-rendering:optimizeQuality; fill-rule:evenodd; clip-rule:evenodd"
viewBox="0 0 21000 29700"
 xmlns:xlink="http://www.w3.org/1999/xlink">
 <defs>
  <style type="text/css">
   <![CDATA[
    .fil0 {fill:#332C2B}
    .fil1 {fill:#FEFEFE}
   ]]>
  </style>
 </defs>
 <g id="图层_x0020_1">
  <metadata id="CorelCorpID_0Corel-Layer"/>
  <g id="_243973672">
   <path class="fil0" d="M7061 2925l-2 40c162,7 375,-75 469,-248l-35 -19c-85,156 -286,234 -432,227z"/>
   <path class="fil0" d="M9702 2331c-370,-320 -962,-219 -1333,48 11,4 9,45 18,52 365,-260 931,-365 1292,-53 172,149 266,442 131,642 -50,73 -124,107 -204,93 -72,-13 -130,-64 -146,-122 -24,-92 60,-165 60,-165 -20,15 -97,83 -76,169 16,65 81,120 159,134 87,16 186,-16 237,-96 144,-226 39,-549 -139,-702z"/>
   <path class="fil0" d="M8654 3137c-102,-100 -228,-161 -363,-190 -4,16 -21,19 -26,35 131,28 266,99 366,197 146,143 214,411 82,583 -49,63 -117,90 -188,72 -63,-15 -113,-64 -124,-118 -17,-84 63,-145 63,-145 -18,12 -91,69 -77,147 11,59 66,112 135,129 77,19 168,-4 218,-73 141,-195 64,-490 -86,-637z"/>
   <path class="fil0" d="M4333 1652c-31,-68 -105,-103 -174,-100 -61,3 -118,38 -137,87 -25,64 27,125 41,139 0,0 -58,-65 -29,-134 18,-44 69,-77 126,-79 63,-3 117,32 148,94 83,169 -20,387 -170,483 -43,28 -134,86 -192,104 4,14 79,4 110,1 47,-16 53,-32 96,-60 154,-100 269,-345 181,-535z"/>
   <path class="fil0" d="M5830 1842c220,29 491,-60 596,-276 43,-88 17,-192 -43,-260 -54,-61 -137,-88 -203,-67 -86,28 -105,132 -107,158 0,0 19,-113 113,-141 60,-18 136,6 186,62 56,62 66,146 28,229 -91,201 -344,283 -556,248 -3,16 -8,32 -12,48z"/>
   <path class="fil0" d="M2811 2730c155,-44 264,-19 301,-31 15,-4 102,-218 361,-297 -6,17 -5,30 -5,30 0,0 103,-46 163,-49 -12,19 -11,41 -11,41 0,0 140,-45 222,-42 -14,23 -10,42 -10,42 0,0 106,-2 139,5 -19,11 -22,33 -22,33 0,0 45,-6 77,2 -13,11 -18,32 -18,32 0,0 63,7 106,25 -22,8 -31,30 -31,30 0,0 59,19 87,51 -20,-3 -39,18 -39,18 0,0 79,38 106,76 -22,-6 -40,13 -40,13 0,0 62,36 78,66 -18,3 -37,18 -37,18 0,0 58,40 77,75 -22,1 -40,11 -40,11 0,0 41,31 54,64 -20,0 -29,13 -29,13 0,0 37,29 56,67 -24,-2 -37,14 -37,14 0,0 29,23 44,55 -16,0 -26,11 -26,11 0,0 31,26 46,65 -17,-2 -34,3 -34,3 0,0 30,31 38,64 -16,-5 -29,10 -29,10 0,0 30,29 52,57 -23,13 -108,8 -108,8 0,0 3,18 20,29 17,11 -84,-2 -84,-2 0,0 6,16 19,32 -28,5 -84,-6 -84,-6 0,0 -4,7 10,25 -35,14 -88,1 -88,1 0,0 3,5 19,25 -32,12 -86,2 -86,2 0,0 15,12 22,30 -35,4 -85,-14 -85,-14 0,0 9,14 19,32 -32,8 -96,-7 -96,-7 0,0 1,22 10,35 -49,10 -85,-17 -85,-17 0,0 -7,23 -5,37 -44,1 -92,-48 -92,-48 0,0 -10,25 -12,39 -35,-16 -73,-62 -73,-62 0,0 -13,24 -12,46 -32,-18 -73,-69 -73,-69 0,0 -13,27 -10,45 -33,-16 -76,-67 -76,-67 0,0 -12,19 -7,43 -33,-18 -66,-65 -66,-65 0,0 -8,21 -6,47 -28,-22 -51,-62 -51,-62 0,0 -8,15 -13,31 -23,-25 -44,-82 -44,-82 0,0 -7,20 -10,29 -22,-30 -52,-88 -52,-88 0,0 -12,12 -20,24 -19,-21 -41,-88 -41,-88 0,0 -10,11 -24,21 -13,-20 -29,-130 -29,-130 0,0 -22,15 -28,19 -15,-23 -48,-202 21,-342 -142,-11 -268,-4 -399,66 -1,-15 119,-71 120,-85z"/>
   <path class="fil1" d="M3171 2726c13,-4 99,-15 99,-15 148,-107 393,-143 452,-138 -57,7 -267,50 -405,142 66,5 130,16 208,41 143,-54 415,-44 480,3 -71,-24 -307,-33 -441,12 82,28 157,58 236,103 124,6 292,39 345,85 -78,-33 -294,-55 -294,-55 1,1 234,141 302,281 -84,-100 -160,-164 -266,-235 53,74 77,128 104,248 -44,-107 -92,-200 -162,-282 -89,-55 -153,-87 -248,-120 154,106 237,277 256,392 -49,-127 -148,-302 -339,-420l0 -1c-70,-20 -116,-30 -175,-33 142,63 210,353 228,419 -32,-90 -140,-401 -314,-421 -22,2 -42,5 -60,10l-5 -17z"/>
   <path class="fil0" d="M8728 2221c3,1 3,1 0,0 45,-27 65,-32 87,-35 -10,11 -10,26 -10,26 0,0 92,-18 131,-14 -6,11 -8,28 -8,28 0,0 55,-15 88,-12 -5,12 -5,25 -5,25 0,0 61,-4 79,2 -6,9 -5,22 -5,22 0,0 70,-4 96,2 -9,7 -17,19 -17,19 0,0 73,6 103,25 -12,10 -21,16 -21,16 0,0 59,9 77,23 -10,4 -23,15 -23,15 0,0 50,9 71,26 -12,2 -21,12 -21,12 0,0 56,13 75,43 -12,2 -21,11 -21,11 0,0 54,21 68,39 -10,3 -18,11 -18,11 0,0 29,13 42,27 -8,4 -18,11 -18,11 0,0 31,15 39,26 -17,3 -22,10 -22,10 0,0 14,8 18,24 -11,1 -20,11 -20,11 0,0 2,22 55,50 -60,-14 -140,-6 -140,-6 0,0 1,12 9,21 -27,12 -75,-2 -75,-2 0,0 2,17 11,23 -30,14 -82,-2 -82,-2 0,0 0,15 7,20 -22,10 -86,3 -86,3 0,0 2,11 7,18 -25,9 -67,-5 -67,-5 0,0 4,9 7,18 -29,4 -67,-11 -67,-11 0,0 1,14 5,21 -24,0 -61,-20 -61,-20 0,0 1,11 2,20 -33,-1 -87,-40 -87,-40 0,0 1,20 5,29 -33,0 -95,-44 -95,-44 0,0 1,15 3,23 -39,-7 -126,-98 -126,-98l-17 33c0,0 -112,-124 -128,-331 38,-43 81,-80 156,-112z"/>
   <path class="fil1" d="M8713 2337c-37,-1 -72,0 -105,4 7,-10 15,-18 23,-27 74,-6 129,-3 173,3 74,0 172,-9 216,-27 -33,23 -103,36 -162,42 56,12 113,28 169,48 64,13 128,20 189,10 -25,11 -73,21 -120,16 95,37 207,101 286,152 -90,-46 -281,-132 -392,-168 57,41 128,153 128,153 -47,-56 -99,-123 -168,-165 -72,-21 -124,-34 -187,-39 74,36 138,124 161,156 -61,-70 -128,-125 -211,-159z"/>
   <path class="fil0" d="M6918 2312c83,98 -17,94 225,319 83,97 47,230 -77,333 95,-9 90,51 125,84 58,71 78,116 -23,177 2,143 -45,339 -116,371 -204,35 -163,73 -253,120 -59,22 -92,-21 -103,5 11,59 6,138 -82,188 -48,26 -41,81 -76,103 -34,8 -79,14 -149,-6 -117,13 -298,104 -593,-148 -98,-135 -191,-478 -103,-635 -94,-71 -113,-113 -149,-229 -99,-262 42,-276 222,-432 37,-31 53,-156 106,-219 123,-132 269,-172 395,-125 123,-124 600,-46 652,95z"/>
   <path class="fil1" d="M6082 3321c-22,11 -41,34 -47,58 -2,10 -6,40 26,66 79,64 165,104 237,124 0,0 51,149 -121,133 -106,-10 -155,23 -281,-304 -31,-80 -57,-140 -54,-188 5,-41 54,-63 105,-130 5,41 84,187 135,240z"/>
   <path class="fil1" d="M6540 2774c26,18 42,51 48,88 -58,13 -124,42 -188,97 -23,4 -47,14 -65,1 -16,-20 81,-121 97,-202 39,-9 81,-4 108,15z"/>
   <path class="fil1" d="M6302 3180c22,58 58,137 96,160 62,36 82,14 85,40 -55,6 -123,-12 -207,-33 -52,-14 -69,-228 -20,-229 10,16 27,38 45,63z"/>
   <path class="fil1" d="M6448 2971c22,-6 52,-24 73,-24 -32,49 -74,173 -102,228 -13,25 -17,56 -11,82 -51,-47 -121,-129 -135,-155 -3,-24 24,-86 59,-130 46,15 94,6 118,0z"/>
   <path class="fil1" d="M6476 2747c-4,-3 -7,-5 -7,-5 0,0 3,2 7,5z"/>
   <path class="fil1" d="M6916 2964c23,-8 119,-36 98,130 -45,368 -206,342 -206,340 27,-133 93,-162 84,-274 -9,-112 -29,-106 -20,-136 9,-30 20,-52 43,-60z"/>
   <path class="fil1" d="M7027 2994c41,11 70,-20 109,50 26,47 44,53 64,76 1,28 -41,47 -52,67 -77,137 19,364 -197,393 -48,7 -73,2 -106,38 -34,36 -46,75 -105,59 -47,-13 -104,-74 -130,-114 -10,-15 -16,-28 -20,-41 133,75 191,-56 242,-67 146,-22 255,-319 196,-462z"/>
   <path class="fil1" d="M6618 2435c0,1 0,1 0,2 1,34 -30,89 -57,123 -7,3 -13,7 -20,11 -88,63 -127,218 -182,291 -55,72 -169,259 -154,340 16,85 37,156 44,181 6,22 -39,10 -100,-30 -61,-41 -125,-144 -170,-259 -9,-22 -54,-85 0,-198 15,-31 46,-44 74,-61 20,-12 41,-24 59,-41 74,-69 92,-180 107,-279l10 -60c9,-43 34,-94 75,-116 25,-13 84,-3 84,-3 3,1 5,1 8,2 129,39 204,64 223,97z"/>
   <path class="fil1" d="M6860 2309c32,85 63,187 180,275 117,89 82,251 44,301 -38,50 -58,67 -58,67 -26,-36 -66,-36 -66,-36 0,0 38,-89 -76,-214 -56,-61 -119,-109 -178,-134 46,-2 104,-10 136,-34 14,-10 23,-30 25,-44 0,0 -17,28 -34,36 -46,22 -123,31 -173,27 -8,-2 -16,-3 -25,-4 37,-21 74,-54 95,-88 19,-30 26,-60 19,-85l-8 5c7,27 -11,54 -23,73 -26,41 -74,80 -116,96 -2,0 -4,0 -6,0 25,-37 45,-82 44,-113 -1,-12 -4,-20 -8,-26 -22,-43 -101,-76 -270,-111 -5,-1 -17,0 -30,2 -8,-17 -17,-30 -30,-41 14,-30 46,-69 116,-63 244,22 405,39 441,112z"/>
   <path class="fil1" d="M5865 3412c97,228 116,300 302,317 145,14 160,-86 160,-132 55,54 125,167 124,239l7 9c10,-92 -64,-206 -118,-261 26,14 57,26 86,37l26 10c39,15 67,47 90,75l-7 -23c-22,-27 -38,-50 -78,-66l-27 -10c-20,-7 -39,-16 -56,-25 104,12 180,-16 194,-55 0,0 94,151 99,224 4,62 -97,113 -125,183 -27,69 -132,3 -223,40 -113,45 -349,-57 -447,-109 -99,-52 -156,-420 -171,-493 -30,-133 75,-187 109,-165 5,49 25,134 54,202z"/>
   <path class="fil1" d="M6311 2305c-10,2 -19,5 -24,8 -38,21 -66,68 -79,137l-10 61c-14,86 -29,181 -82,246 2,-14 1,-29 -5,-44 -22,-60 -99,-111 -144,-127l1 9c43,15 109,66 130,122 8,22 7,43 -5,63 -15,13 -31,23 -47,33 -35,-77 -97,-130 -196,-165l-2 8c96,35 154,90 186,165 -26,15 -53,33 -73,62 -44,20 -154,2 -209,-16l-3 6c37,16 143,40 201,28 -24,44 -37,102 -14,153 -26,54 -90,111 -115,123 -16,8 -51,14 -68,13 -41,-1 -85,-38 -110,-71 -51,-66 -64,-163 -71,-243 -9,-97 44,-151 122,-202 33,-22 80,-36 106,-68 29,-35 26,-76 38,-116 49,-158 231,-273 395,-236 15,4 31,9 48,16 12,10 22,21 29,35z"/>
   <path class="fil1" d="M6732 3210c-37,110 -175,139 -175,139 0,0 129,-54 156,-153 17,-61 61,-140 -11,-178 -72,-38 -94,-109 -94,-109 0,0 41,55 109,95 57,33 51,95 14,205zm-104 -130c-11,61 57,146 -32,161 -121,21 -121,-131 -121,-131 0,0 24,134 104,114 80,-20 22,-82 30,-134 8,-53 16,-143 -93,-47 125,-138 120,-5 112,38zm-115 -26c40,-18 79,23 53,38 -15,8 -16,-10 -21,-22 -5,-12 -11,-14 -32,-16zm42 79c19,-3 50,-35 43,17 -6,44 -56,35 -72,14 -15,-19 -40,-67 -32,-118 19,95 43,91 62,88zm-7 -522c-32,8 -69,62 -107,132 41,-8 81,-1 111,19 28,19 57,39 69,72 37,-20 35,-72 34,-105l7 3c11,37 8,94 -37,116 1,3 1,5 2,8 3,-1 6,0 9,-1 47,-8 119,-32 136,-89l9 0c-14,45 -55,73 -96,89 42,4 71,19 74,36 9,48 90,31 82,101 -8,70 -54,149 -82,188 32,-70 63,-137 61,-190 -2,-53 -73,-31 -86,-81 -13,-50 -70,-49 -127,-24 -48,21 -99,23 -182,68 6,-1 118,-28 122,-20 -31,24 -73,167 -101,222 -27,51 -20,117 1,126 21,8 40,1 67,-18 -12,27 -41,48 -75,40 -26,-6 -61,-43 -98,-86 26,46 57,92 82,108 54,35 76,-7 96,41 19,48 44,41 64,10 20,-31 123,-2 149,-126 3,131 -114,123 -132,150 -16,23 -68,36 -98,-2 -63,11 -164,-23 -230,-32 1,43 -2,73 -108,16 -25,-14 -47,-30 -66,-47l0 1c-19,5 -36,26 -42,46 -6,19 17,44 22,47 258,191 445,132 483,72 92,44 211,11 225,-79 13,-90 63,-137 78,-247 3,-21 4,-39 4,-55 -17,-65 -26,-132 57,-174 8,-10 46,-71 -65,-212 -123,-155 -235,-146 -313,-125z"/>
   <path class="fil0" d="M7821 2995c138,47 194,-44 338,37 78,46 158,186 196,118 12,-40 27,-148 -68,-199 108,31 251,18 327,-27 -16,-34 -27,-45 -37,-60 138,-52 115,-197 32,-266 46,-49 39,-108 19,-137 -77,-72 -31,-118 -40,-184 -33,-179 -158,-305 -330,-323 34,-124 -55,-147 -122,-110 -3,-22 -4,-52 -2,-67 -24,-4 -35,-12 -64,8 18,-35 0,-75 -18,-105 -36,-31 -63,-9 -98,-22 -18,-71 -250,-150 -369,-128 26,38 11,123 -14,163 -68,98 -202,109 -170,208 10,32 -64,3 -70,37 7,96 106,120 83,242 -350,68 -379,-172 -412,-151 -179,172 39,404 113,440 67,33 334,93 382,252 18,116 -50,266 31,381 106,172 213,297 280,460 90,-274 128,-385 15,-570z"/>
   <path class="fil1" d="M7982 2563c-9,19 -13,39 -11,60 4,26 26,89 -47,119 -4,12 129,134 302,164 31,3 274,67 311,-7 -241,-38 -287,-274 -451,-373 -34,-24 -68,0 -103,37z"/>
   <path class="fil1" d="M7568 2704c0,0 88,-128 382,94 45,36 71,79 248,130 42,3 135,108 122,168 -11,50 -85,-94 -180,-105 -123,-70 -352,-14 -426,-66 -26,-7 -79,-24 -144,-148 -22,-31 -2,-72 -2,-72z"/>
   <path class="fil1" d="M7903 2606c9,24 33,81 33,81 0,0 5,-174 196,-302 42,-36 62,-171 -38,-376 -19,-39 -21,-86 -15,-161 -142,104 -185,297 -178,474 8,46 -70,198 1,284z"/>
   <path class="fil1" d="M7880 2717c0,0 53,-38 -46,-184 -4,-7 -17,-43 -20,-64 8,-251 -93,-314 -117,-346 -14,-19 -80,-96 -178,-110 -67,18 -150,-105 -134,-34 9,74 108,94 39,301 -15,32 -72,279 119,413 52,-32 49,-92 232,-25 47,18 105,49 105,49z"/>
   <path class="fil1" d="M8527 2369c-10,15 -106,-50 -104,-86 24,-11 45,5 53,-16 -5,-43 -72,-179 -157,-173 -21,-12 -24,-53 -24,-53 0,0 31,-29 94,8 63,36 204,222 138,321z"/>
   <path class="fil1" d="M8373 2273c-27,-49 -1,-77 -42,-129 57,-1 100,96 92,112 -9,20 -23,37 -51,17z"/>
   <path class="fil1" d="M8354 2267c33,63 115,94 182,140 -5,19 -327,82 -406,49 153,-129 17,-423 8,-467 -16,-82 23,-125 90,-108 -63,141 126,386 126,386z"/>
   <path class="fil1" d="M8633 2752c-2,-42 -30,-59 -48,-101 -7,16 -12,29 -17,33 -112,153 -256,-49 -411,-123 75,67 134,167 161,195 67,70 128,116 237,89 44,-11 79,-43 78,-94z"/>
   <path class="fil1" d="M7842 2462c13,-141 -66,-290 -147,-387 -69,-82 -285,-108 -256,-218 12,-48 122,-87 149,-127 30,-45 50,-105 42,-158 34,56 46,107 34,164 -42,189 91,283 162,372 25,32 93,207 16,353z"/>
   <path class="fil1" d="M7385 2475c0,0 -67,-97 -163,-97 86,-21 146,34 154,43 -1,-13 -1,-20 0,-34 -38,-51 -123,-89 -190,-86 53,-21 146,3 192,48 3,-36 10,-57 22,-84 -106,-78 -241,-2 -318,-71 -20,-18 -47,-98 -80,-117 -60,60 10,245 60,303 41,49 219,120 355,181 -16,-27 -25,-54 -32,-87z"/>
   <path class="fil1" d="M7847 2007c-17,-84 -16,-188 47,-216 -33,26 -48,128 -30,212 6,29 16,49 19,83 23,-91 85,-167 106,-209 24,-49 6,-74 39,-115 9,-25 -25,-62 -91,-56 -55,-127 -152,-79 -273,-129 46,91 43,155 15,252 -19,69 151,247 183,300 2,-46 -5,-79 -14,-123z"/>
   <path class="fil1" d="M8572 2551c1,-49 -74,-79 -143,-62 -47,11 -145,7 -256,7 18,5 208,89 258,60 -54,62 -299,-54 -336,-52 177,57 300,293 441,183 38,-38 35,-99 36,-135z"/>
   <path class="fil1" d="M7785 2974c-21,-5 -39,-10 -60,-21 33,65 49,134 34,163 1,-36 -57,-175 -57,-175 -17,-10 -32,-20 -48,-33 33,86 50,192 32,243 6,-37 -30,-186 -74,-279 -31,-31 -47,-60 -61,-98 -8,69 -30,193 10,325 63,127 190,193 237,386 76,-248 -14,-512 -14,-512z"/>
   <path class="fil0" d="M3998 1913c-13,-73 -76,-131 -146,-149 -57,-14 -113,5 -154,52 -24,28 -32,74 -19,112 9,28 29,46 54,53 34,9 52,-5 59,-14 13,-16 15,-38 5,-56 -8,-15 -21,-21 -39,-21 0,0 25,5 33,24 6,15 4,33 -7,46 -10,12 -27,16 -48,11 -22,-6 -38,-22 -47,-46 -12,-34 -5,-77 17,-102 38,-45 88,-62 142,-48 65,16 118,75 130,142 16,94 -49,217 -164,272 22,3 64,-2 84,-12 91,-58 115,-172 99,-264z"/>
   <path class="fil0" d="M4962 2605c-262,-140 -617,-213 -974,-82 -3,26 -7,51 -10,77 350,-91 716,-11 947,113 363,194 542,522 468,858 -52,235 -247,431 -475,478 -189,38 -363,-30 -489,-191 -71,-91 -89,-242 -43,-358 33,-83 93,-137 170,-153 72,-15 130,1 165,44 35,44 40,109 17,160 -28,63 -117,78 -117,78 65,6 110,-14 141,-66 36,-62 36,-139 -9,-195 -26,-32 -86,-84 -205,-58 -90,18 -161,81 -198,176 -51,130 -31,291 48,393 134,172 327,247 529,206 247,-50 449,-254 505,-507 78,-352 -92,-771 -470,-973z"/>
   <path class="fil0" d="M4789 2833c-253,-73 -256,-281 -121,-269 403,36 664,522 442,674 0,0 229,-247 -321,-405z"/>
   <path class="fil0" d="M7153 1474c-129,-189 -314,-193 -431,-117 -101,66 -119,199 -80,266 -10,-172 49,-219 109,-252 90,-49 255,-41 369,126 66,96 82,216 48,346 -51,194 -205,374 -402,470 -321,157 -721,83 -1013,29 -55,-10 -153,-41 -277,-80 -415,-131 -1275,-225 -1629,-97 -236,85 -551,145 -854,280 -627,279 -1338,595 -1832,325 -190,-104 -192,-218 -186,-278 24,-237 264,-260 372,-141 41,59 8,127 -33,216 -70,153 118,220 181,148 143,-166 26,-401 -171,-465 -298,-83 -390,131 -408,247 -10,68 4,204 201,311 509,275 1254,-54 1888,-336 302,-134 598,-171 828,-262 385,-151 1283,-19 1630,90 126,39 225,70 282,81 297,55 705,130 1038,-33 207,-101 369,-291 423,-496 38,-142 19,-273 -53,-379z"/>
   <path class="fil0" d="M9969 2554c-32,-103 -203,50 -275,56 70,57 307,47 275,-56z"/>
   <path class="fil0" d="M9995 2719c-10,-81 -159,10 -214,5 45,52 224,76 214,-5z"/>
   <path class="fil0" d="M8608 2190c0,0 174,-110 141,-275 -25,-130 28,-199 99,-273 157,-162 5,-194 5,-194 0,0 110,-13 149,101 20,58 59,290 -172,496 -94,83 -222,145 -222,145z"/>
   <path class="fil0" d="M8912 2117c0,0 159,-31 183,-162 19,-103 78,-138 151,-172 162,-75 59,-141 59,-141 0,0 85,22 81,117 -2,49 -40,230 -269,315 -93,35 -205,43 -205,43z"/>
   <path class="fil0" d="M9671 1842c-12,47 -31,62 -92,74 -60,12 -108,34 -136,109 -35,95 -159,97 -159,97 0,0 85,8 160,-5 160,-29 220,-142 228,-178 8,-35 7,-71 -1,-97z"/>
   <path class="fil0" d="M6954 3713c0,0 196,24 237,181 32,123 107,161 199,196 203,76 84,166 84,166 0,0 101,-34 88,-149 -7,-59 -69,-276 -355,-359 -116,-34 -253,-34 -253,-34z"/>
   <path class="fil0" d="M7658 3758c-37,-46 -66,-54 -140,-36 -73,17 -138,16 -206,-53 -87,-88 -225,-28 -225,-28 0,0 91,-52 180,-74 192,-48 316,47 344,83 26,35 44,75 48,109z"/>
   <path class="fil0" d="M1730 2560c42,40 71,44 140,18 69,-26 132,-33 207,25 95,74 86,37 131,47 -231,130 -386,41 -417,9 -30,-30 -52,-67 -60,-99z"/>
   <path class="fil0" d="M3078 2597c-158,60 -436,221 -618,283 -814,310 -1339,68 -1419,-138 -36,-93 -20,-205 84,-252 29,-7 58,-2 65,32 7,37 -48,66 -29,101 22,40 81,4 90,-33 10,-41 -8,-71 -33,-96 -28,-27 -75,-51 -151,2 -64,44 -99,147 -67,264 76,272 702,455 1480,146 183,-62 454,-212 612,-271 807,-305 1341,-506 2654,-27l14 -38c-1327,-484 -1866,-281 -2682,27z"/>
   <path class="fil0" d="M3379 2387c-343,92 -759,321 -1324,-17 -239,-143 -316,-401 -236,-619 56,-153 206,-267 363,-277 131,-8 241,53 311,173 39,68 37,170 -4,244 -30,52 -75,84 -128,87 -49,4 -87,-12 -106,-45 -19,-33 -17,-77 3,-109 25,-40 86,-42 86,-42 -43,-10 -75,-1 -101,31 -30,38 -37,90 -12,132 14,24 50,64 132,58 63,-4 116,-40 149,-100 46,-82 48,-193 4,-269 -74,-127 -197,-196 -337,-187 -170,11 -325,129 -386,294 -84,229 -25,550 226,696 572,332 1043,82 1370,-12 446,-128 951,-274 1366,-217l6 -40c-424,-59 -931,96 -1383,218z"/>
   <path class="fil0" d="M4898 2312c5,-2 5,-2 0,0 70,36 102,43 135,46 -16,-16 -18,-38 -18,-38 0,0 143,19 201,8 -11,-16 -15,-42 -15,-42 0,0 86,17 136,10 -9,-17 -10,-38 -10,-38 0,0 94,0 120,-10 -10,-13 -9,-32 -9,-32 0,0 107,0 147,-13 -15,-10 -28,-27 -28,-27 0,0 110,-16 155,-48 -19,-14 -34,-22 -34,-22 0,0 89,-20 115,-43 -16,-5 -37,-20 -37,-20 0,0 76,-19 107,-47 -19,-2 -33,-17 -33,-17 0,0 84,-26 110,-72 -19,-2 -33,-15 -33,-15 0,0 80,-37 99,-67 -16,-3 -29,-16 -29,-16 0,0 43,-23 62,-45 -12,-5 -29,-16 -29,-16 0,0 46,-25 56,-44 -27,-3 -34,-13 -34,-13 0,0 20,-13 25,-38 -17,-1 -31,-15 -31,-15 0,0 2,-34 80,-82 -89,27 -213,23 -213,23 0,0 0,-19 11,-32 -42,-15 -115,11 -115,11 0,0 1,-27 14,-36 -47,-18 -124,11 -124,11 0,0 -2,-22 10,-32 -34,-13 -131,4 -131,4 0,0 3,-17 8,-28 -40,-12 -101,14 -101,14 0,0 5,-14 8,-28 -44,-3 -101,24 -101,24 0,0 0,-21 5,-33 -37,3 -91,37 -91,37 0,0 1,-17 0,-30 -50,5 -129,70 -129,70 0,0 0,-30 5,-44 -50,3 -141,76 -141,76 0,0 0,-23 3,-36 -60,14 -182,162 -182,162l-30 -49c0,0 -213,190 -127,519 63,62 96,113 214,153z"/>
   <path class="fil1" d="M4862 2137c-56,6 -109,8 -160,5 11,14 24,26 37,39 113,2 197,-8 264,-22 113,-8 264,-3 333,20 -53,-32 -161,-45 -251,-47 84,-23 170,-54 253,-89 96,-26 193,-44 287,-34 -39,-14 -114,-25 -185,-13 141,-66 306,-174 421,-260 -133,79 -415,228 -581,294 83,-69 180,-246 180,-246 -66,91 -138,197 -240,268 -107,39 -186,64 -282,78 110,-62 198,-203 230,-255 -86,113 -183,204 -307,263z"/>
   <path class="fil0" d="M2542 2449c-217,-21 -387,-98 -433,-198 -22,-49 -22,-103 17,-158 40,-47 173,-56 187,65 6,-71 -9,-95 -57,-119 -45,-24 -120,-24 -164,31 -47,68 -47,137 -19,198 52,112 238,211 468,233 230,22 397,-11 654,-112 2,-14 15,-13 17,-29 -267,85 -441,110 -670,88z"/>
  </g>
 </g>
</svg>
