<?xml version="1.0" encoding="UTF-8"?>
<!DOCTYPE svg PUBLIC "-//W3C//DTD SVG 1.1//EN" "http://www.w3.org/Graphics/SVG/1.1/DTD/svg11.dtd">
<!-- Creator: CorelDRAW X5 -->
<svg xmlns="http://www.w3.org/2000/svg" xml:space="preserve" width="210mm" height="297mm" style="shape-rendering:geometricPrecision; text-rendering:geometricPrecision; image-rendering:optimizeQuality; fill-rule:evenodd; clip-rule:evenodd"
viewBox="0 0 21000 29700"
 xmlns:xlink="http://www.w3.org/1999/xlink">
 <defs>
  <style type="text/css">
   <![CDATA[
    .fil1 {fill:#332C2B}
    .fil0 {fill:#FEFEFE}
   ]]>
  </style>
 </defs>
 <g id="图层_x0020_1">
  <metadata id="CorelCorpID_0Corel-Layer"/>
  <g id="_244559152">
   <path class="fil0" d="M5144 5245c-72,33 -175,28 -245,-7 -22,-56 -32,-162 -16,-197 32,61 173,147 261,205z"/>
   <path class="fil1" d="M3356 4965l-1 0c1,-224 -20,-519 -143,-637l-27 29c113,108 119,608 119,608 0,0 13,3433 13,3436 3,50 -61,86 -117,109 -69,28 -154,58 -152,148l64 0c-7,-78 40,-102 106,-128 60,-24 149,-53 152,-131 0,-3 -13,-3435 -13,-3435z"/>
   <path class="fil1" d="M3665 8513c-57,-23 -120,-59 -117,-109 0,-1 -47,-3676 -47,-3743 0,-136 84,-726 364,-1009l-26 -28c-150,151 -325,648 -357,861 -55,240 14,3917 14,3917 3,77 92,106 152,131 66,27 112,51 106,128l64 0c2,-90 -83,-120 -152,-148z"/>
   <path class="fil1" d="M3460 8451c0,17 -14,30 -30,30 -17,0 -30,-14 -30,-30 0,-17 14,-30 30,-30 17,0 30,14 30,30z"/>
   <path class="fil1" d="M3473 8765c0,20 -17,37 -37,37 -20,0 -37,-17 -37,-37 0,-20 17,-37 37,-37 20,0 37,17 37,37z"/>
   <path class="fil1" d="M3702 8517c-13,35 -120,146 -266,156 -146,-10 -255,-120 -266,-156 -13,-43 33,-84 57,-79 32,7 51,34 73,65 28,40 80,100 137,99 66,-1 106,-59 134,-99 22,-31 41,-58 73,-65 24,-5 74,35 57,79zm20 -85c-18,-22 -48,-30 -83,-23 -44,9 -68,44 -91,77 -27,38 -43,67 -110,77 -66,-7 -86,-38 -113,-77 -23,-33 -48,-68 -91,-77 -35,-7 -65,1 -83,23 -20,24 -20,59 -8,96 20,59 125,140 293,174 161,-27 270,-115 293,-174 15,-36 12,-72 -8,-96z"/>
   <path class="fil1" d="M3437 7026c12,738 27,1341 27,1341l-59 0c0,0 4,-609 2,-1351 -3,-1118 2,-2560 -82,-2626 42,17 84,27 140,-15 -84,52 -48,1510 -29,2651z"/>
   <path class="fil1" d="M4139 2528c-54,-27 -106,-17 -147,11 -34,23 -51,61 -46,103 5,40 30,67 63,79 30,11 62,4 83,-20 18,-20 25,-41 13,-70 -9,-20 -33,-38 -49,-40 29,14 73,54 31,104 -16,20 -48,27 -78,16 -29,-11 -49,-35 -53,-70 -5,-39 10,-72 42,-93 38,-26 92,-28 133,-6 65,35 97,93 91,162 -6,72 -20,145 -116,217 3,4 5,9 8,13 76,-49 127,-135 134,-218 7,-74 -39,-153 -109,-188z"/>
   <path class="fil1" d="M2527 4275c-32,27 -90,57 -105,60 -6,2 -67,-61 -170,-38 5,5 6,10 6,10 0,0 -43,4 -64,15 7,5 10,13 10,13 0,0 -56,12 -84,29 8,6 10,14 10,14 0,0 -37,21 -48,30 8,0 13,8 13,8 0,0 -17,7 -27,16 6,1 11,8 11,8 0,0 -21,15 -33,31 9,-2 15,5 15,5 0,0 -18,19 -23,37 6,-5 16,-1 16,-1 0,0 -22,30 -26,50 7,-6 16,-3 16,-3 0,0 -17,26 -18,40 7,-2 16,-1 16,-1 0,0 -14,26 -16,44 8,-4 15,-4 15,-4 0,0 -10,20 -10,35 7,-4 12,-1 12,-1 0,0 -9,18 -10,36 8,-6 15,-2 15,-2 0,0 -7,14 -7,30 5,-3 11,-1 11,-1 0,0 -7,16 -7,34 6,-4 12,-6 12,-6 0,0 -6,18 -4,32 5,-5 12,-2 12,-2 0,0 -6,17 -10,32 10,0 39,-19 39,-19 0,0 2,7 -3,15 -4,8 29,-18 29,-18 0,0 0,7 -2,16 11,-4 29,-19 29,-19 0,0 2,2 0,11 14,-2 31,-17 31,-17 0,0 0,2 -3,13 13,-2 30,-17 30,-17 0,0 -3,8 -3,16 13,-6 28,-23 28,-23 0,0 -1,7 -2,16 13,-3 33,-22 33,-22 0,0 3,8 2,15 19,-6 27,-23 27,-23 0,0 6,7 7,13 16,-9 25,-37 25,-37 0,0 7,7 10,12 10,-13 17,-38 17,-38 0,0 8,6 11,15 9,-13 16,-41 16,-41 0,0 9,7 10,15 9,-13 17,-41 17,-41 0,0 7,5 9,14 9,-14 14,-38 14,-38 0,0 6,6 9,16 7,-14 9,-33 9,-33 0,0 5,4 9,9 5,-14 3,-40 3,-40 0,0 5,6 8,9 3,-16 6,-43 6,-43 0,0 6,2 10,5 3,-12 2,-41 2,-41 0,0 5,2 11,3 2,-10 -9,-54 -9,-54 0,0 10,1 12,1 2,-12 -13,-85 -57,-123 43,-25 84,-45 120,-69 -2,-6 -27,1 -30,-5z"/>
   <path class="fil0" d="M2404 4354c-5,1 -37,15 -37,15 -67,-10 -159,26 -179,40 21,-9 101,-36 163,-29 -22,15 -43,33 -67,58 -58,9 -152,68 -168,99 21,-23 103,-75 157,-85 -25,27 -47,54 -68,86 -43,27 -97,74 -109,102 23,-28 95,-80 95,-80 0,1 -62,100 -65,166 15,-54 32,-94 59,-142 -8,38 -8,63 0,114 0,-49 3,-93 16,-138 23,-39 41,-64 70,-95 -38,71 -43,152 -33,198 -1,-57 8,-143 58,-225l0 0c21,-22 36,-35 57,-48 -41,52 -22,174 -19,203 -2,-40 -9,-178 49,-221 8,-4 16,-7 23,-8l-1 -8z"/>
   <path class="fil1" d="M2904 3148c-14,-22 -18,-32 -20,-43 6,5 13,5 13,5 0,0 -11,-46 -10,-66 6,3 14,3 14,3 0,0 -8,-27 -8,-44 6,2 13,2 13,2 0,0 -3,-31 -1,-40 5,3 11,2 11,2 0,0 -4,-35 -1,-48 4,5 10,8 10,8 0,0 1,-37 10,-52 5,6 8,10 8,10 0,0 3,-30 10,-39 2,5 8,12 8,12 0,0 4,-25 12,-36 1,6 7,10 7,10 0,0 6,-28 20,-38 1,6 6,10 6,10 0,0 9,-28 18,-35 2,5 6,9 6,9 0,0 6,-15 13,-22 2,4 6,9 6,9 0,0 7,-16 12,-20 2,9 5,11 5,11 0,0 4,-7 12,-10 1,6 6,10 6,10 0,0 11,-2 24,-29 -6,30 0,70 0,70 0,0 6,-1 10,-5 6,13 0,38 0,38 0,0 9,-1 11,-6 8,15 1,41 1,41 0,0 7,0 10,-4 5,11 3,43 3,43 0,0 6,-1 9,-4 5,13 -1,34 -1,34 0,0 4,-2 9,-4 3,14 -4,34 -4,34 0,0 7,-1 11,-3 0,12 -9,31 -9,31 0,0 6,-1 10,-1 0,17 -19,45 -19,45 0,0 10,-1 14,-3 1,17 -20,49 -20,49 0,0 7,-1 12,-2 -3,20 -47,65 -47,65l17 8c0,0 -57,56 -155,70 -4,21 -1,68 0,73l-12 4c-2,-4 -5,-54 0,-79 -21,-18 -39,-38 -55,-73z"/>
   <path class="fil0" d="M2962 3154c0,18 1,36 4,53 -5,-3 -9,-7 -14,-11 -4,-37 -4,-65 -2,-87 -1,-37 -8,-87 -18,-108 12,16 20,51 24,81 5,-28 12,-57 21,-86 5,-32 8,-65 1,-95 6,12 12,36 11,60 17,-48 46,-106 71,-147 -21,46 -61,144 -76,200 20,-30 74,-67 74,-67 -27,25 -60,52 -80,88 -9,36 -15,63 -16,95 17,-38 60,-72 75,-84 -34,32 -60,67 -76,109z"/>
   <path class="fil1" d="M2721 4494c24,11 31,18 39,26 -7,-1 -14,3 -14,3 0,0 33,33 42,50 -6,1 -14,5 -14,5 0,0 21,19 30,33 -6,1 -12,5 -12,5 0,0 19,24 21,33 -5,0 -10,4 -10,4 0,0 21,28 26,40 -6,-2 -12,-2 -12,-2 0,0 18,32 19,50 -7,-2 -13,-4 -13,-4 0,0 13,27 12,38 -4,-3 -13,-6 -13,-6 0,0 10,23 9,37 -4,-4 -11,-5 -11,-5 0,0 10,27 3,43 -4,-5 -10,-5 -10,-5 0,0 7,28 3,39 -4,-3 -10,-4 -10,-4 0,0 3,16 1,25 -4,-2 -10,-4 -10,-4 0,0 3,17 0,23 -6,-6 -10,-6 -10,-6 0,0 1,8 -5,14 -4,-4 -10,-5 -10,-5 0,0 -9,7 -5,37 -11,-29 -37,-59 -37,-59 0,0 -5,4 -6,9 -12,-8 -20,-32 -20,-32 0,0 -7,6 -7,11 -14,-8 -22,-34 -22,-34 0,0 -6,4 -6,9 -10,-6 -25,-35 -25,-35 0,0 -4,4 -6,8 -11,-8 -17,-29 -17,-29 0,0 -3,4 -5,8 -10,-11 -14,-31 -14,-31 0,0 -5,4 -7,8 -7,-10 -9,-31 -9,-31 0,0 -4,4 -8,6 -9,-14 -8,-47 -8,-47 0,0 -8,6 -10,10 -9,-14 -9,-52 -9,-52 0,0 -6,4 -9,8 -8,-18 5,-79 5,-79l-19 2c0,0 19,-76 95,-140 -7,-20 -40,-112 -43,-116l16 3c3,3 29,85 38,108 27,4 53,11 85,32z"/>
   <path class="fil0" d="M2669 4520c-10,-16 -20,-30 -31,-42 6,0 12,1 17,2 23,29 37,52 47,73 21,31 52,69 72,82 -19,-7 -44,-33 -62,-55 11,26 20,54 28,83 12,30 27,58 49,81 -12,-7 -29,-24 -40,-45 11,50 16,114 17,161 -6,-50 -24,-153 -40,-209 -1,35 -27,95 -27,95 10,-35 23,-75 21,-115 -11,-35 -21,-61 -36,-88 6,41 -13,92 -20,110 12,-45 16,-88 6,-132z"/>
   <path class="fil1" d="M4753 3961c0,0 18,-13 29,-12 -14,-7 -40,-14 -40,-14 0,0 -1,-4 6,-7 -12,-8 -34,-10 -34,-10 0,0 2,-7 10,-10 -10,-6 -28,-11 -28,-11 0,0 -2,-5 7,-10 -11,-6 -40,-9 -40,-9 0,0 -2,-7 7,-11 -12,-5 -44,-10 -44,-10 0,0 1,-6 8,-11 -13,-6 -38,-7 -38,-7 0,0 0,-9 7,-12 -16,-7 -44,-3 -44,-3 0,0 1,-7 6,-13 -13,-5 -41,1 -41,1 0,0 1,-9 6,-15 -19,-3 -45,7 -45,7 0,0 0,-9 4,-14 -19,-1 -47,8 -47,8 0,0 -3,-7 0,-14 -13,0 -42,16 -42,16 0,0 -2,-6 1,-12 -15,-1 -42,17 -42,17 0,0 -4,-6 -3,-12 -13,3 -31,21 -31,21 0,0 -2,-7 0,-14 -13,2 -30,22 -30,22 0,0 -3,-7 -2,-13 -19,8 -37,35 -37,35 0,0 -2,-5 0,-12 -14,4 -36,40 -36,40 0,0 -3,-6 -2,-11 -17,8 -36,41 -36,41 0,0 -5,-3 -6,-10 -12,9 -17,49 -17,49 0,0 -9,-3 -12,-8 -4,14 -12,49 -6,78 6,29 -10,74 -10,74 0,0 -27,-35 -50,-63 -3,6 -6,13 -12,18 4,7 8,14 12,22 -9,-8 -19,-13 -29,-17 -1,0 -1,0 -2,0 1,0 1,0 2,0 -87,-35 -194,57 -194,57l14 3c0,0 -65,48 -72,73 6,-1 15,0 15,0 0,0 -32,36 -35,57 6,-2 19,-1 19,-1 0,0 -29,32 -32,52 5,0 13,1 13,1 0,0 -16,22 -18,37 5,-2 14,-1 14,-1 0,0 -13,23 -12,42 6,-1 12,-3 12,-3 0,0 -12,25 -8,42 5,-2 12,-3 12,-3 0,0 -9,40 -5,55 4,-5 14,-3 14,-3 0,0 -14,32 -7,52 4,-5 16,-5 16,-5 0,0 -13,30 -7,48 6,-4 14,-4 14,-4 0,0 -1,52 -14,88 22,-32 36,-31 36,-31 0,0 6,6 6,13 11,-1 17,-10 17,-10 0,0 4,3 5,15 8,-4 20,-23 20,-23 0,0 4,7 6,13 10,-7 20,-25 20,-25 0,0 5,6 6,13 13,-7 30,-40 30,-40 0,0 5,6 5,14 20,-10 33,-44 33,-44 0,0 6,6 6,14 12,-12 22,-44 22,-44 0,0 6,9 7,16 10,-10 21,-47 21,-47 0,0 3,6 8,15 15,-18 24,-64 24,-64 0,0 7,6 11,12 6,-16 9,-61 9,-61 0,0 8,0 13,5 5,-11 7,-50 7,-50 0,0 9,1 16,5 4,-21 -1,-57 -1,-57 0,0 10,2 17,7 6,-24 1,-85 1,-85 0,0 9,1 16,8 0,-22 -5,-41 -49,-123 43,59 82,101 134,157 -63,19 -108,80 -111,91 3,1 14,3 14,3 0,0 -29,36 -32,46 7,2 13,1 13,1 0,0 -14,26 -15,38 6,-1 13,-1 13,-1 0,0 -9,26 -12,41 4,-2 12,-5 12,-5 0,0 -12,23 -13,37 6,-3 13,-5 13,-5 0,0 -6,19 -5,33 7,-8 16,-11 16,-11 0,0 -5,24 -1,39 6,-8 15,-10 15,-10 0,0 -3,28 1,43 5,-6 17,-10 17,-10 0,0 -4,27 0,42 6,-7 17,-9 17,-9 0,0 -3,25 2,40 5,-4 15,-8 15,-8 0,0 -1,29 12,42 4,-5 13,-9 13,-9 0,0 2,19 19,31 2,-7 8,-13 8,-13 0,0 14,24 25,32 3,-8 4,-15 4,-15 0,0 9,20 20,30 3,-7 3,-15 3,-15 0,0 12,20 25,26 2,-11 2,-13 2,-13 0,0 11,20 26,27 1,-9 5,-10 5,-10 0,0 13,21 22,28 1,-8 4,-15 4,-15 0,0 25,34 23,26 -1,-8 3,-14 3,-14 0,0 23,28 33,31 3,-15 3,-32 3,-32 0,0 8,0 11,6 8,-12 9,-30 9,-30 0,0 6,4 10,10 8,-16 7,-33 7,-33 0,0 6,0 11,5 6,-14 4,-29 4,-29 0,0 9,0 15,8 6,-17 5,-36 5,-36 0,0 7,-1 12,5 6,-14 4,-35 4,-35 0,0 8,3 15,9 5,-16 1,-45 1,-45 0,0 10,1 16,6 5,-13 -2,-43 -2,-43 0,0 11,0 16,8 4,-19 -7,-54 -7,-54 0,0 12,0 17,7 2,-18 -9,-41 -9,-41 0,0 10,-3 18,1 -7,-18 -23,-40 -23,-40 0,0 8,-4 15,-4 -7,-12 -21,-24 -21,-24 0,0 8,-5 17,-3 -8,-12 -38,-44 -38,-44 0,0 5,-7 16,-9 -23,-26 -76,-56 -76,-56 0,0 6,-7 16,-8 -18,-18 -62,-36 -62,-36 0,0 3,-4 10,-7 -99,-57 -189,-22 -194,-26 -18,-10 -110,-105 -108,-127 1,-22 11,-22 17,-28 6,-6 33,10 67,41 34,30 124,67 124,67l-1 -14c0,0 36,19 45,23 -2,-4 -3,-11 -3,-11 0,0 29,15 38,17 -3,-4 -6,-14 -6,-14 0,0 29,11 40,13 -4,-6 -6,-14 -6,-14 0,0 28,9 40,9 -4,-5 -7,-16 -7,-16 0,0 36,10 50,7 -6,-6 -6,-17 -6,-17 0,0 25,3 38,-1 -10,-7 -10,-16 -10,-16 0,0 26,1 36,-6 -7,-4 -13,-13 -13,-13 0,0 22,-1 40,-9 -6,-3 -12,-12 -12,-12 0,0 27,-2 37,-11 -9,-4 -10,-11 -10,-11 0,0 27,-1 37,-10 -8,-1 -12,-12 -12,-12 0,0 22,-5 34,-14 -5,-1 -12,-9 -12,-9 0,0 23,-8 34,-17 -6,0 -13,-9 -13,-9 0,0 21,-6 33,-18 -7,-2 -13,-9 -13,-9 0,0 20,-6 28,-16 -4,-3 -9,-10 -9,-10z"/>
   <path class="fil0" d="M4259 4240c5,3 31,60 31,60 77,20 157,92 172,114 -18,-17 -91,-76 -160,-97 17,24 31,48 44,81 58,33 130,127 132,162 -12,-30 -74,-112 -126,-145 13,35 24,69 31,108 32,43 68,109 67,140 -11,-35 -63,-114 -63,-114 0,1 18,118 -11,179 10,-56 11,-99 5,-154 -10,38 -22,61 -55,104 24,-45 42,-86 50,-133 -6,-45 -13,-76 -29,-117 7,81 -28,157 -61,195 29,-52 60,-134 47,-230l0 0c-13,-29 -22,-47 -38,-68 18,65 -60,168 -77,193 22,-36 96,-158 55,-222 -7,-7 -21,-44 -27,-48l13 -7z"/>
   <path class="fil0" d="M4248 3995c-19,9 -62,44 -77,55 1,-7 11,-25 20,-34 36,-23 75,-47 100,-55 38,-20 86,-51 104,-71 -11,21 -44,46 -72,64 32,-9 66,-16 100,-20 37,-10 71,-24 100,-45 -10,12 -32,30 -58,40 59,-6 133,-3 188,3 -59,0 -179,7 -246,18 40,6 106,45 106,45 -39,-17 -83,-37 -130,-40 -42,8 -73,15 -107,30 48,-1 104,27 124,38 -50,-20 -99,-30 -151,-26z"/>
   <path class="fil0" d="M4012 4151c13,-17 47,-47 80,-60 -13,-3 -36,5 -62,21 -30,31 -47,50 -60,72 -27,33 -68,74 -92,87 23,-6 54,-33 78,-57 -16,29 -29,61 -41,93 -18,34 -38,65 -65,88 14,-7 36,-25 52,-48 -18,56 -32,130 -38,184 13,-57 45,-174 70,-237 -3,41 21,113 21,113 -8,-42 -18,-89 -12,-136 17,-40 31,-68 52,-98 -12,46 5,107 10,130 -9,-53 -8,-103 7,-153z"/>
   <path class="fil1" d="M2688 4072c-11,16 -32,28 -52,29 -8,0 -32,-1 -48,-29 -40,-71 -60,-144 -66,-204 0,0 -111,-61 -121,77 -6,85 -39,119 202,263 59,35 103,64 141,68 33,1 57,-34 116,-66 -32,-9 -136,-91 -171,-139z"/>
   <path class="fil1" d="M3180 3784c-10,-23 -35,-40 -63,-50 -18,44 -50,92 -102,135 -6,17 -17,36 -10,51 13,15 106,-47 172,-49 12,-29 14,-63 3,-87z"/>
   <path class="fil1" d="M2828 3917c-43,-25 -101,-64 -113,-98 -20,-53 0,-67 -20,-73 -13,42 -7,99 -1,167 4,43 171,85 178,47 -11,-10 -27,-26 -44,-44z"/>
   <path class="fil1" d="M3013 3830c8,-16 26,-38 29,-54 -43,19 -147,35 -194,50 -22,7 -47,5 -66,-2 30,46 86,113 104,128 18,6 71,-7 110,-29 -5,-38 8,-75 16,-93z"/>
   <path class="fil1" d="M3193 3838c2,4 3,6 3,6 0,0 -1,-2 -3,-6z"/>
   <path class="fil1" d="M3081 3462c10,-17 44,-89 -89,-95 -296,-14 -297,117 -296,117 109,-3 140,-52 227,-30 87,22 80,37 105,34 25,-3 44,-9 53,-26z"/>
   <path class="fil1" d="M3072 3371c-3,-34 25,-53 -25,-93 -34,-27 -36,-42 -51,-60 -22,-5 -42,26 -60,32 -118,42 -285,-64 -337,102 -11,37 -12,57 -44,79 -33,22 -65,26 -61,75 4,39 44,92 72,118 11,10 20,17 29,21 -42,-115 70,-143 85,-182 37,-112 286,-158 391,-93z"/>
   <path class="fil1" d="M3458 3768c0,0 -1,-1 -2,-1 -27,-6 -74,11 -105,29 -3,5 -7,9 -12,14 -62,61 -189,71 -254,105 -64,34 -227,98 -289,76 -65,-24 -118,-50 -137,-59 -17,-8 -14,29 10,83 24,54 97,118 181,169 16,10 59,54 156,27 27,-8 41,-30 58,-50 12,-14 24,-29 40,-41 64,-49 154,-48 234,-47l49 0c35,-1 79,-14 102,-43 14,-18 13,-66 13,-66 0,-2 0,-4 0,-6 -13,-107 -23,-170 -47,-189z"/>
   <path class="fil1" d="M3590 3595c-63,-37 -139,-75 -193,-179 -55,-104 -187,-99 -232,-75 -45,24 -61,36 -61,36 25,25 20,57 20,57 0,0 76,-18 158,89 41,53 64,82 76,132 7,-36 51,-84 88,-90 -56,23 -77,169 -77,175 21,-26 95,-85 148,-78 -65,15 -137,100 -137,101 32,-14 54,-18 79,-12 9,2 15,5 20,10 31,23 46,90 51,228 0,4 -2,13 -6,23 12,8 21,18 28,29 26,-7 61,-27 66,-83 16,-196 23,-324 -29,-363z"/>
   <path class="fil1" d="M2587 4230c-167,-107 -221,-132 -210,-281 9,-116 79,-115 109,-113 -35,-50 -97,-116 -162,-132 90,6 154,78 190,128 -8,-22 -15,-92 -69,-176 52,33 72,105 77,120 5,-84 35,-111 67,-116 0,0 -107,-94 -163,-108 -48,-12 -103,61 -161,74 -58,12 -20,103 -62,171 -51,83 -2,283 26,367 27,85 311,179 366,202 101,41 157,-34 145,-64 -38,-10 -102,-37 -152,-69z"/>
   <path class="fil1" d="M3519 4028c-3,7 -7,14 -10,18 -21,28 -63,43 -119,44l-49 0c-69,-1 -137,-6 -195,27 11,0 23,6 34,12 44,25 69,86 71,133 -14,-53 -45,-98 -86,-121 -17,-9 -39,-5 -56,1 -12,10 -15,14 -20,22 56,38 110,134 98,183 -6,-58 -64,-125 -119,-161 -11,15 -21,25 -47,37 -22,32 -37,119 -26,173 -22,-36 -22,-115 -4,-159 -38,13 -76,12 -113,-14 -46,14 -100,56 -112,74 -8,12 -18,38 -19,52 -5,33 19,72 41,96 45,49 120,72 182,89 76,20 125,-15 176,-69 21,-23 39,-58 68,-74 31,-18 63,-10 97,-15 131,-18 246,-146 239,-280 -1,-13 -3,-26 -6,-40 -6,-11 -13,-20 -24,-28z"/>
   <path class="fil1" d="M3022 3612c23,59 61,99 61,99 0,0 -53,-26 -73,-89 -20,-62 -89,-38 -139,-33 -82,8 -142,103 -142,103 0,0 42,-105 133,-119 91,-14 141,-11 160,38zm-56 155c90,-73 19,-79 -25,-80 -43,-1 -83,-55 -110,6 -27,60 76,97 76,97 0,0 -120,-20 -87,-113 24,-68 81,-3 131,-3 35,0 141,13 15,93zm-18 -27c-9,-5 -23,-9 -15,-19 15,-18 43,18 23,47 1,-17 1,-22 -8,-28zm12 45c-42,-1 -76,-27 -89,-41 -14,-16 -15,-56 20,-55 41,2 12,21 8,36 -5,15 -11,33 61,61zm293 -248c-96,-107 -149,-85 -158,-80 -44,60 -96,44 -145,22 -13,-2 -28,-3 -44,-4 -88,-3 -132,30 -205,28 -73,-1 -115,89 -92,167 -52,22 -124,161 -8,390 2,4 18,26 34,23 16,-2 35,-13 42,-27l1 0c-11,-18 -21,-37 -28,-59 -31,-91 -7,-89 27,-83 2,-53 -11,-137 6,-185 -26,-28 -9,-67 11,-77 23,-11 33,-104 136,-84 -101,4 -92,89 -119,101 -27,12 -35,31 -1,52 35,22 -1,34 19,81 9,22 42,52 74,79 -29,-35 -53,-67 -55,-88 -2,-28 18,-48 41,-54 -19,18 -27,33 -23,50 4,17 55,32 99,18 47,-15 166,-29 189,-50 6,5 -30,90 -32,94 47,-59 55,-100 78,-135 27,-42 35,-86 -2,-104 -38,-17 -11,-70 -52,-79 -41,-9 -99,7 -158,23 35,-18 103,-43 160,-40 57,3 32,65 69,79 13,5 22,17 19,51 18,-30 62,-57 82,-52 -36,9 -77,67 -90,103 -1,2 -1,5 -2,7 2,1 57,-58 103,-11 -24,-15 -65,-8 -86,19 24,14 36,40 48,64 12,27 12,59 0,90 60,-21 108,-43 118,-67 27,-58 49,-145 -57,-264z"/>
   <path class="fil1" d="M4579 3515c-177,35 -269,-117 -407,-144 -29,-9 -47,17 -62,52 -1,15 1,31 8,44 5,10 17,26 19,45 56,19 108,43 178,18 -62,42 -129,8 -179,-2 -2,11 -8,22 -21,33 0,9 123,60 251,37 22,-6 207,-23 214,-84z"/>
   <path class="fil1" d="M3859 3626c0,0 29,-111 289,-32 41,13 69,36 205,27 30,-9 121,41 127,85 5,37 -83,-43 -151,-27 -103,-17 -247,79 -312,62 -20,2 -61,3 -137,-66 -23,-16 -20,-49 -20,-49z"/>
   <path class="fil1" d="M4066 3473c12,14 44,48 44,48 0,0 -41,-121 60,-259 20,-36 0,-134 -121,-251 -23,-22 -37,-55 -51,-108 -72,108 -53,253 -4,374 17,30 1,155 73,196z"/>
   <path class="fil1" d="M4000 3440c-5,-4 -22,-26 -30,-39 -58,-176 -144,-194 -169,-210 -15,-10 -80,-46 -151,-31 -42,30 -131,-35 -102,11 25,49 99,38 103,198 -3,26 20,212 187,256 16,-21 28,-45 55,-60 -59,-46 -43,-136 -114,-168 83,26 70,119 129,161 14,-5 17,-5 43,-7 -66,-86 -55,-190 -152,-235 100,21 117,199 198,234 36,1 81,8 81,8 0,0 27,-40 -78,-116z"/>
   <path class="fil1" d="M4439 3150c-3,13 -86,-8 -94,-34 14,-14 33,-8 33,-24 -14,-28 -96,-106 -153,-80 -18,-3 -30,-31 -30,-31 0,0 14,-28 67,-19 53,9 198,103 177,187z"/>
   <path class="fil1" d="M4308 3123c-31,-27 -20,-53 -62,-79 39,-15 93,41 92,54 -1,16 -7,31 -31,25z"/>
   <path class="fil1" d="M4293 3124c39,36 104,36 161,51 2,14 -206,139 -269,137 73,-128 -95,-298 -113,-326 -32,-52 -16,-92 35,-98 -8,114 185,236 185,236z"/>
   <path class="fil1" d="M4609 3389c-12,-29 -36,-34 -59,-57 -1,13 -1,23 -4,27 -39,134 -190,31 -316,19 69,28 135,82 161,94 64,32 118,48 187,2 28,-18 44,-50 30,-85z"/>
   <path class="fil1" d="M3987 3389c-26,-101 -119,-184 -200,-231 -69,-40 -225,-3 -233,-86 -4,-37 63,-91 71,-126 10,-39 8,-86 -11,-120 38,30 59,63 65,105 19,142 135,173 207,217 25,15 117,120 101,241z"/>
   <path class="fil1" d="M3876 3072c-33,-54 -59,-126 -22,-162 -16,26 -1,100 33,155 11,19 23,30 34,53 -7,-69 17,-138 20,-172 4,-40 -15,-53 -2,-90 0,-20 -33,-37 -77,-16 -70,-74 -125,-17 -222,-20 55,52 69,97 74,171 4,52 167,133 203,162 -10,-32 -23,-53 -41,-82z"/>
   <path class="fil1" d="M4516 3265c-12,-34 -72,-36 -115,-7 -30,20 -99,41 -175,69 14,-1 167,9 194,-24 -22,57 -221,39 -246,49 137,-5 283,127 352,15 17,-36 -1,-78 -9,-103z"/>
   <path class="fil1" d="M1988 3469c-102,-74 -153,-151 -177,-267 -11,-53 -8,-135 30,-192 24,-36 51,-59 100,-75 -43,4 -81,33 -107,72 -40,60 -46,142 -34,198 25,119 78,198 182,274 82,59 210,116 335,136 21,-19 46,-33 36,-26 -136,-14 -283,-60 -364,-120z"/>
   <path class="fil1" d="M4921 3983c-65,-58 -146,-84 -231,-88 7,7 12,15 17,24 75,6 146,32 204,84 72,64 109,189 50,272 -21,31 -53,44 -87,38 -30,-6 -54,-28 -61,-53 -10,-39 27,-69 27,-69 -8,6 -42,34 -33,71 6,28 33,51 66,58 36,7 79,-5 101,-39 62,-94 20,-231 -53,-297z"/>
   <path class="fil1" d="M4922 3011c-21,-104 -140,-167 -233,-162 -131,7 -237,97 -303,210 4,8 8,16 12,24 62,-114 166,-207 298,-214 90,-5 198,53 214,147 6,35 -6,65 -32,83 -24,16 -55,18 -75,5 -32,-20 -28,-64 -28,-64 -2,10 -5,50 25,69 23,14 56,12 82,-5 29,-19 49,-56 41,-93z"/>
   <path class="fil1" d="M3764 2209c-62,-67 -190,-128 -327,-60 -131,64 -224,164 -258,328 -27,129 10,345 75,502 2,-2 4,-149 7,-151 -43,-53 -85,-229 -63,-342 28,-142 112,-276 248,-334 149,-64 266,13 315,66 47,50 84,133 56,230 -11,38 -42,100 -110,127 -33,13 -76,14 -118,-15 -59,-41 -56,-93 -48,-118 23,-78 106,-79 106,-79 -39,-1 -94,14 -112,78 -16,56 13,101 52,125 47,28 82,29 118,16 59,-21 104,-74 118,-134 18,-76 19,-154 -60,-238z"/>
   <path class="fil1" d="M5031 3328c-13,-73 -68,-133 -137,-150 -57,-14 -113,5 -153,52 -24,28 -31,74 -18,111 9,27 29,46 54,52 34,9 51,-5 59,-14 13,-16 14,-37 5,-55 -8,-15 -21,-21 -39,-20 0,0 25,5 32,24 6,15 4,33 -7,45 -10,12 -27,16 -47,11 -22,-6 -38,-22 -46,-46 -12,-34 -5,-76 16,-101 38,-44 88,-62 141,-48 64,16 117,74 129,141 17,96 -38,187 -143,238 -84,40 -227,59 -342,-12 -3,2 -5,4 -8,6 124,98 263,84 360,37 110,-53 163,-170 145,-271z"/>
   <path class="fil1" d="M3435 1508c-77,-6 -197,21 -267,119 -54,77 -72,131 -35,242 27,81 129,108 187,35 50,-62 -26,-145 -60,-139 -22,4 -37,14 -37,39 11,-31 32,-26 45,-25 37,4 67,66 37,112 -26,39 -126,55 -153,-25 -29,-85 -25,-149 31,-219 71,-90 175,-125 249,-119 85,7 161,74 187,197 46,218 -92,441 -208,674 -37,74 -72,143 -101,213 -89,209 -156,625 53,868 4,-3 19,-14 23,-17 -210,-296 -122,-592 -34,-798 30,-69 64,-138 101,-212 118,-237 251,-484 199,-726 -27,-126 -127,-214 -215,-221z"/>
   <path class="fil1" d="M2446 2642c17,-39 80,20 104,35 -32,20 -123,10 -104,-35z"/>
   <path class="fil1" d="M2594 2428c33,-25 60,56 73,82 -37,1 -112,-52 -73,-82z"/>
   <path class="fil1" d="M2450 2850c-11,-51 95,-37 131,-39 -18,43 -119,99 -131,39z"/>
   <path class="fil1" d="M2429 2742c3,-52 102,-10 137,-3 -29,36 -141,63 -137,3z"/>
   <path class="fil1" d="M3169 2490c153,143 327,463 305,702 -19,212 -71,265 -84,280 -14,-4 -27,-37 -41,-40 36,-39 69,-148 75,-282 10,-208 -132,-529 -295,-666 -178,-150 -371,-94 -461,-42 -86,49 -171,147 -174,293 -1,57 16,156 97,220 39,31 98,51 169,28 98,-31 116,-104 116,-142 1,-117 -113,-153 -113,-153 54,16 123,58 122,154 -1,84 -60,133 -124,149 -76,19 -125,5 -168,-27 -72,-54 -111,-145 -106,-233 7,-113 39,-219 182,-302 113,-66 340,-89 500,61z"/>
   <path class="fil1" d="M1765 4081c47,17 47,-86 54,-120 -43,12 -108,100 -54,120z"/>
   <path class="fil1" d="M1626 3671c-5,50 95,24 129,22 -22,-39 -124,-80 -129,-22z"/>
   <path class="fil1" d="M1592 3803c2,62 121,16 163,8 -33,-44 -166,-81 -163,-8z"/>
   <path class="fil1" d="M2325 3557c-160,-95 -324,-99 -476,-40 -158,62 -205,213 -196,314 11,128 74,186 151,228 60,33 136,36 199,4 37,-19 63,-50 75,-109 10,-50 -5,-108 -63,-137 -67,-33 -119,1 -149,34 0,0 63,-67 145,-28 27,13 72,50 61,129 -8,57 -41,92 -76,109 -72,36 -147,14 -187,-5 -101,-51 -141,-143 -147,-220 -6,-80 19,-234 183,-309 150,-68 323,-36 461,48 7,4 13,8 19,12 7,-5 15,-10 24,-14 -8,-5 -16,-10 -24,-15z"/>
   <path class="fil1" d="M2406 3615c-17,-14 -35,-28 -57,-42 -8,4 -16,9 -24,14 22,14 42,29 59,42 4,-1 17,-13 21,-15z"/>
   <path class="fil1" d="M4788 4070c-40,-10 -84,-15 -131,-15 -15,13 -30,26 -42,39 62,-6 121,-2 169,11 164,42 267,167 270,308 2,99 -56,196 -143,237 -72,34 -148,24 -214,-28 -37,-29 -59,-88 -52,-139 5,-36 24,-64 53,-78 27,-13 52,-13 70,2 18,14 27,40 23,62 -5,28 -39,43 -39,43 27,-4 43,-16 50,-40 8,-28 1,-59 -23,-77 -13,-10 -43,-25 -88,-3 -34,16 -56,48 -62,90 -8,57 16,119 58,152 70,55 155,67 231,30 94,-44 154,-145 152,-252 -3,-148 -112,-299 -283,-342z"/>
   <path class="fil1" d="M2234 3217c-25,55 -13,106 17,146 25,33 63,49 105,42 39,-6 66,-33 77,-67 10,-31 2,-62 -24,-82 -21,-17 -42,-24 -70,-10 -20,10 -36,34 -38,51 13,-30 51,-75 103,-36 20,15 29,47 19,77 -10,30 -33,50 -68,56 -38,6 -72,-7 -95,-38 -27,-37 -32,-90 -11,-133 32,-66 89,-101 158,-98 86,4 172,-4 265,169 4,-4 19,-21 22,-25 -75,-138 -188,-166 -276,-171 -74,-4 -151,46 -184,117z"/>
   <path class="fil1" d="M1701 3127c-7,-155 95,-338 256,-365 60,-10 111,11 141,57 27,41 29,94 8,129 -34,55 -110,47 -110,47 17,3 86,9 119,-41 25,-38 22,-97 -8,-141 -33,-50 -95,-85 -159,-72 -179,34 -290,237 -283,397 13,293 232,495 582,551 5,-15 12,-30 20,-44 -309,-47 -556,-232 -568,-519z"/>
   <path class="fil1" d="M3644 3979l-16 53c54,-58 150,-125 220,-120 86,6 174,60 231,142l16 -11c-60,-86 -154,-143 -246,-150 -77,-5 -148,25 -206,87z"/>
   <path class="fil1" d="M5184 2849c-31,-74 -134,-191 -332,-198 -120,-4 -204,38 -278,87 -88,59 -178,151 -234,271 6,3 11,6 16,10 25,-67 44,-79 68,-120 75,-127 266,-248 433,-233 172,16 273,135 301,194 31,64 29,136 -16,175 -29,25 -57,34 -90,31 -47,-4 -76,-39 -85,-74 -12,-50 27,-79 27,-79 -57,36 -35,147 51,160 48,7 81,-6 108,-30 50,-42 65,-112 30,-195z"/>
   <path class="fil1" d="M4633 2736c0,17 -14,31 -31,31 -17,0 -31,-14 -31,-31 0,-17 14,-31 31,-31 17,0 31,14 31,31z"/>
   <path class="fil1" d="M4736 2687c0,21 -17,37 -37,37 -21,0 -37,-17 -37,-37 0,-21 17,-37 37,-37 21,0 37,17 37,37z"/>
   <path class="fil1" d="M2288 4928c-23,-36 -70,-60 -116,-59 -34,1 -61,15 -77,41 -21,34 -12,58 -5,70 12,20 36,29 59,25 19,-4 31,-15 36,-36 0,0 -15,26 -37,27 -18,1 -38,-8 -48,-23 -10,-16 -8,-35 5,-56 14,-22 37,-34 66,-35 41,-1 85,21 106,54 36,57 37,118 4,172 -40,65 -122,103 -201,93 -112,-15 -193,-108 -212,-241 -17,-119 22,-310 178,-406l-46 20c-153,102 -187,261 -170,385 20,139 130,239 247,255 84,11 170,-28 213,-99 35,-58 34,-126 -4,-186z"/>
   <path class="fil1" d="M2323 5053c0,17 -14,31 -31,31 -17,0 -31,-14 -31,-31 0,-17 14,-31 31,-31 17,0 31,14 31,31z"/>
   <path class="fil1" d="M2278 5148c0,21 -17,37 -37,37 -21,0 -37,-17 -37,-37 0,-21 17,-37 37,-37 21,0 37,17 37,37z"/>
   <path class="fil1" d="M3508 7334c-10,-29 -11,-41 -10,-54 5,7 12,9 12,9 0,0 -1,-56 5,-78 5,5 13,8 13,8 0,0 -2,-34 2,-53 5,4 12,6 12,6 0,0 3,-36 8,-46 4,4 10,5 10,5 0,0 4,-41 10,-56 3,6 8,12 8,12 0,0 9,-42 22,-57 4,8 6,14 6,14 0,0 10,-33 19,-42 1,6 5,15 5,15 0,0 9,-28 20,-39 0,7 4,14 4,14 0,0 12,-31 28,-39 0,8 4,13 4,13 0,0 15,-29 26,-35 0,6 4,12 4,12 0,0 9,-16 17,-22 1,5 4,12 4,12 0,0 10,-17 17,-20 0,11 3,14 3,14 0,0 5,-7 14,-8 0,7 4,13 4,13 0,0 11,1 30,-27 -12,33 -16,81 -16,81 0,0 6,1 11,-3 3,17 -8,44 -8,44 0,0 9,1 13,-4 4,19 -8,47 -8,47 0,0 7,2 11,-2 3,14 -6,50 -6,50 0,0 6,0 10,-2 2,16 -8,38 -8,38 0,0 5,-1 10,-2 0,17 -12,38 -12,38 0,0 7,1 11,0 -2,14 -16,33 -16,33 0,0 6,1 10,1 -4,19 -28,46 -28,46 0,0 10,1 15,0 -3,19 -31,51 -31,51 0,0 7,1 12,1 -7,22 -61,62 -61,62l15 14c0,0 -69,49 -171,38 -9,23 -16,78 -16,84l-12 1c-1,-5 7,-64 17,-91 -17,-26 -31,-54 -40,-98z"/>
   <path class="fil0" d="M3565 7356c-4,21 -7,42 -7,61 -4,-5 -8,-11 -11,-16 4,-44 10,-75 17,-100 7,-43 11,-102 6,-129 9,22 9,64 6,99 11,-31 24,-63 39,-93 12,-36 22,-72 22,-109 3,16 4,45 -3,72 27,-51 70,-109 103,-150 -32,47 -92,149 -120,210 26,-29 89,-57 89,-57 -33,21 -71,44 -99,79 -17,39 -28,68 -37,105 25,-39 75,-67 94,-76 -41,28 -75,61 -99,105z"/>
   <path class="fil1" d="M3360 5740c10,-25 11,-36 12,-48 -5,6 -11,7 -11,7 0,0 3,-50 -1,-70 -5,4 -12,6 -12,6 0,0 4,-30 1,-47 -5,3 -11,4 -11,4 0,0 -1,-32 -5,-41 -4,4 -10,4 -10,4 0,0 -2,-37 -6,-50 -3,5 -8,10 -8,10 0,0 -6,-37 -17,-52 -4,7 -6,12 -6,12 0,0 -7,-30 -15,-38 -1,6 -5,13 -5,13 0,0 -7,-26 -16,-35 0,7 -5,12 -5,12 0,0 -9,-28 -23,-36 0,7 -4,12 -4,12 0,0 -12,-27 -22,-32 -1,5 -4,10 -4,10 0,0 -8,-14 -14,-20 -1,4 -4,11 -4,11 0,0 -8,-15 -14,-18 0,9 -3,12 -3,12 0,0 -4,-7 -12,-8 0,6 -4,11 -4,11 0,0 -10,0 -26,-25 10,30 10,73 10,73 0,0 -6,0 -10,-3 -4,15 5,39 5,39 0,0 -8,0 -11,-4 -5,17 5,43 5,43 0,0 -7,1 -10,-2 -3,12 3,45 3,45 0,0 -5,0 -9,-2 -3,14 6,35 6,35 0,0 -4,-1 -8,-2 0,15 9,34 9,34 0,0 -6,1 -10,-1 2,13 13,30 13,30 0,0 -5,0 -9,1 2,17 23,43 23,43 0,0 -9,1 -13,-1 2,17 25,47 25,47 0,0 -7,1 -11,0 5,20 52,58 52,58l-14 12c0,0 59,47 150,42 7,21 11,70 11,76l11 2c1,-4 -4,-57 -11,-82 16,-22 30,-47 40,-86z"/>
   <path class="fil0" d="M3308 5757c3,19 4,38 4,55 4,-4 8,-9 11,-14 -1,-39 -5,-68 -11,-90 -4,-39 -5,-91 1,-115 -9,19 -11,57 -10,88 -8,-29 -19,-57 -31,-85 -10,-33 -16,-65 -15,-98 -4,14 -6,40 -1,64 -22,-47 -57,-101 -85,-138 26,44 75,137 98,192 -22,-27 -77,-55 -77,-55 28,20 61,42 84,75 13,36 22,62 28,95 -20,-36 -64,-63 -80,-72 35,26 64,58 84,99z"/>
   <path class="fil1" d="M3311 5950c2,-25 4,-49 9,-74 -65,-18 -138,-13 -195,24 0,0 147,-68 187,50z"/>
   <path class="fil1" d="M3348 8283c2,-25 4,-49 9,-74 -65,-18 -138,-12 -195,24 0,0 147,-68 187,50z"/>
   <path class="fil1" d="M3511 6743c1,-25 1,-50 -1,-74 67,-11 139,2 192,45 0,0 -139,-83 -191,29z"/>
   <path class="fil1" d="M3504 4977c1,-25 1,-50 -1,-74 67,-11 139,2 192,45 0,0 -139,-83 -191,29z"/>
  </g>
 </g>
</svg>
