<?xml version="1.0" encoding="UTF-8"?>
<!DOCTYPE svg PUBLIC "-//W3C//DTD SVG 1.1//EN" "http://www.w3.org/Graphics/SVG/1.1/DTD/svg11.dtd">
<!-- Creator: CorelDRAW X5 -->
<svg xmlns="http://www.w3.org/2000/svg" xml:space="preserve" width="210mm" height="297mm" style="shape-rendering:geometricPrecision; text-rendering:geometricPrecision; image-rendering:optimizeQuality; fill-rule:evenodd; clip-rule:evenodd"
viewBox="0 0 21000 29700"
 xmlns:xlink="http://www.w3.org/1999/xlink">
 <defs>
  <style type="text/css">
   <![CDATA[
    .fil0 {fill:#332C2B}
    .fil1 {fill:#FEFEFE}
   ]]>
  </style>
 </defs>
 <g id="图层_x0020_1">
  <metadata id="CorelCorpID_0Corel-Layer"/>
  <g id="_243971728">
   <path class="fil0" d="M1484 2116c-25,-81 -145,-153 -141,-202 4,-49 37,-44 63,-40 115,14 183,-103 216,-171 -44,-31 -66,-183 -30,-207 98,-65 25,-149 91,-205 60,-42 75,-46 170,35 14,-67 -12,-81 128,-157 105,-19 234,72 313,60 133,-13 188,-17 314,-31 15,0 32,10 42,23 22,71 -7,167 83,202 18,-11 41,-26 63,-17 28,3 45,40 76,28 18,-5 36,-16 54,-11 68,41 63,147 40,199 3,38 78,-4 105,29 30,37 20,52 26,120 11,-39 69,-129 137,-136 62,29 17,148 48,240 37,55 72,118 75,167 11,41 19,116 14,152 19,70 42,140 -18,227 -60,116 -196,97 -239,247 -247,31 -287,140 -441,158 78,117 72,163 65,207 -18,43 -74,74 -141,212 -12,-319 -170,-209 -144,-401 9,-30 9,-62 5,-90 -11,54 -51,94 -101,94 -38,0 -70,-24 -88,-59 -42,19 -80,31 -99,28 -52,185 -157,44 -133,391 -2,-3 -157,-386 -53,-424 -42,-42 -59,-4 -99,-54 -20,112 -154,130 -71,316 -125,-99 -197,-259 -3,-387 -41,-54 -72,-191 -82,-234 -7,-8 -14,-14 -22,-19 -43,-23 -96,-23 -140,-43 -46,-20 -80,-65 -89,-113 -8,-48 17,-87 3,-133z"/>
   <path class="fil1" d="M2069 1548c-31,1 -152,80 -127,199 -22,-52 -149,-130 -189,-129 -49,4 -92,37 -115,71 -25,-19 -62,-161 -28,-172 91,-28 34,-197 123,-228 27,-2 160,92 335,259z"/>
   <path class="fil1" d="M2275 1255c133,1 287,-40 333,-22 39,10 10,194 107,203 -10,25 -53,59 -85,60 -115,-22 -91,-139 -216,-132 -133,15 -205,123 -317,170 -44,-20 -221,-210 -223,-214 12,-88 111,-129 120,-128 80,-14 196,78 280,62z"/>
   <path class="fil1" d="M2224 2778c37,-21 84,-57 112,-85 -40,-11 -80,-28 -119,-51 -207,-122 -185,-400 -361,-544 -68,-62 -165,-94 -222,-162 -3,68 41,139 46,164 54,122 60,226 88,343 30,120 52,268 187,296 -119,-124 -102,-186 -158,-365 66,132 71,326 308,424 17,3 32,2 48,0 -147,-48 -174,-207 -250,-313 138,112 134,305 320,292z"/>
   <path class="fil1" d="M1906 1741c-50,-81 -94,-82 -144,-89 -110,-9 -125,94 -175,162 -100,137 -203,66 -216,100 -2,22 50,83 109,103 75,44 71,161 227,284 -1,-4 -139,-344 -79,-400 52,46 152,123 198,135 -16,-52 -37,-87 -114,-167 76,49 114,106 138,153 28,-46 -50,-115 -27,-198 5,67 47,104 58,160 32,-60 58,-150 51,-174 0,-26 -10,-52 -26,-70z"/>
   <path class="fil1" d="M2296 1629c-53,129 -175,187 -249,303 -68,82 -55,154 -44,218 44,-135 113,-216 221,-299 38,-32 70,-77 115,-95 -61,66 -124,129 -190,189 -55,62 -96,146 -113,213 9,-26 18,-52 37,-77 126,-137 289,-218 443,-311 -96,29 -167,-48 -220,-142z"/>
   <path class="fil1" d="M2764 1838c24,63 38,138 27,201 -60,130 -96,350 -165,423 -37,39 -126,62 -203,119 -77,39 -174,45 -242,-12 -87,-103 -176,-261 -122,-403 1,-19 262,-6 327,-47 156,-59 187,-117 205,-219 37,-56 144,-93 159,-251 6,-17 23,-25 34,-36 -12,74 -28,147 -20,225z"/>
   <path class="fil1" d="M2545 1918c-8,36 -83,137 -239,198 -76,7 -194,23 -222,-4 34,-52 83,-88 130,-124 160,-119 378,-161 505,-320 3,95 -86,153 -173,249z"/>
   <path class="fil1" d="M2958 1855c31,75 53,172 31,248 -15,57 -49,110 -54,169 -40,36 -93,61 -114,117l-116 47c25,-103 111,-181 199,-224 -22,-6 -45,10 -65,19 -53,28 -92,76 -128,130 8,-116 81,-220 121,-330 21,-42 -33,-104 25,-134 25,-26 61,-41 100,-44z"/>
   <path class="fil1" d="M3047 1669c-33,2 -71,8 -97,-13 -14,-73 38,-153 -31,-206l-45 12c-39,16 -63,-43 -102,-27 -53,16 -78,69 -115,80 -60,1 -106,-16 -136,-56 -46,-54 -42,-69 -119,-67 -76,2 -140,87 -220,125 -65,49 -151,74 -201,145 -37,94 17,169 -111,384 16,46 93,119 122,167 -12,-38 -20,-75 -21,-114 -23,-220 222,-303 298,-485 17,-37 12,-94 61,-110 61,-23 102,39 149,65 49,-44 300,-72 331,-16 8,57 -47,160 -13,317 32,50 220,-161 227,95 50,-62 58,-299 24,-297z"/>
   <path class="fil1" d="M2492 1595c29,-23 104,-30 147,-36 38,-6 139,7 80,56 -28,23 -235,173 -263,125 -17,-28 80,-48 94,-68 40,-58 -49,-30 -59,-66l1 -10z"/>
   <path class="fil1" d="M2504 1658c-41,9 -73,34 -117,24 -46,-10 -67,-39 -67,-82 1,-41 21,-78 66,-56 40,20 35,94 -2,61 4,62 97,10 107,56l13 -3z"/>
   <path class="fil1" d="M3033 2406c-78,46 -145,-18 -226,16 -60,22 -120,47 -177,73 36,2 69,15 100,24 46,13 61,24 123,16 -22,15 -75,14 -126,-1 -44,-13 -92,-26 -139,-17 -30,15 -55,28 -84,45 56,-4 102,14 147,29 51,16 71,36 142,31 -40,18 -96,4 -148,-12 -57,-18 -121,-38 -194,-16 -59,35 -129,47 -196,32 44,30 93,39 141,50 0,0 26,-58 60,-43 34,14 32,133 50,146 37,30 200,18 234,2 134,-54 436,-384 436,-384 -44,-29 -97,-12 -143,8z"/>
   <path class="fil1" d="M3254 1866c-25,-34 17,-158 -28,-212 -76,12 -182,344 -199,402 -16,55 -50,131 -56,201 31,-20 62,-30 91,-39 54,-17 79,-16 136,-98 -17,53 -75,99 -130,117 -35,11 -71,23 -106,52 -16,19 -58,42 -71,54 -9,14 -37,32 -26,49 25,-4 49,4 73,5 54,17 148,-74 233,-33 18,9 32,21 38,40 -1,6 -184,171 -228,238 58,4 114,1 131,-15 38,-134 180,-123 220,-220 46,-103 25,-153 5,-228 29,-76 -45,-263 -82,-314z"/>
   <path class="fil1" d="M1817 2673c10,24 38,47 52,58 -1,52 -128,122 -96,247 -70,-74 -86,-202 44,-305z"/>
   <path class="fil1" d="M2021 3111c-1,-56 -1,-120 27,-160 21,-31 85,-65 99,-123 -40,18 -116,-5 -152,-30 -39,56 7,252 26,312z"/>
   <path class="fil1" d="M2546 2973c44,46 88,126 70,189 26,-61 78,-96 90,-141 10,-36 -8,-115 -57,-185 -69,14 -128,-4 -157,-15 -31,80 23,118 54,151z"/>
   <path class="fil0" d="M2334 4054c0,0 -113,-124 -128,-173 42,13 80,35 119,51 0,0 -4,-1079 -11,-1179 26,2 52,4 79,8 11,144 -13,493 44,450 -46,81 -17,212 -22,304 34,-14 115,-31 115,-31 -1,5 -115,130 -105,140 -5,73 -3,148 7,217 -10,263 18,521 12,781 0,0 87,-56 107,-47 -40,50 -90,101 -109,163 8,247 30,500 35,754 0,0 25,1234 7,1245 -37,-7 -67,32 -98,12 7,-117 -4,-217 0,-331l-14 -546 -10 -182c-33,-46 -96,-153 -88,-156 31,16 52,47 86,61 19,-83 12,-179 7,-268 0,0 -30,-926 -33,-1275z"/>
   <path class="fil1" d="M2374 4964c18,-161 -26,-317 -14,-469 0,-140 -10,-281 -10,-416 12,18 14,43 35,51l5 -7c-23,-79 -80,-148 -138,-208l88 40c10,1 20,10 28,0 2,-11 -20,-347 -20,-347 0,0 6,-684 -1,-799 10,1 20,2 29,3 5,166 7,269 4,441 1,7 28,-3 28,-3 -49,75 -10,283 -10,283l78 -23c-30,38 -71,77 -80,125 3,142 3,306 10,443 -3,190 -4,570 4,576 24,-13 49,-22 73,-32 -27,19 -87,172 -68,221 15,200 27,417 35,631l10 524c0,0 19,506 0,722 -18,1 -30,17 -51,12 6,-114 -10,-220 -5,-331 0,0 -13,-651 -9,-659 -6,-66 -51,-116 -84,-170 26,21 55,36 82,55 3,0 -18,-665 -18,-665z"/>
   <path class="fil0" d="M2466 6010c40,-69 77,-188 77,-217 1,-12 -136,-107 -127,-307 11,7 21,8 21,8 0,0 -7,-81 7,-126 11,11 28,14 28,14 0,0 4,-108 28,-167 13,13 29,13 29,13 0,0 27,-77 41,-100 3,16 19,21 19,21 0,0 8,-34 22,-56 5,11 19,18 19,18 0,0 22,-44 47,-73 0,17 14,27 14,27 0,0 30,-40 61,-56 -7,14 3,31 3,31 0,0 50,-52 85,-66 -10,15 -1,31 -1,31 0,0 44,-40 70,-46 -2,13 4,29 4,29 0,0 45,-36 77,-45 -5,16 -2,30 -2,30 0,0 34,-25 62,-29 -5,15 2,23 2,23 0,0 31,-23 65,-31 -8,17 1,29 1,29 0,0 25,-17 53,-23 -5,11 1,21 1,21 0,0 28,-18 61,-23 -6,12 -7,25 -7,25 0,0 31,-17 58,-18 -8,11 0,22 0,22 0,0 30,-18 56,-29 4,18 -23,80 -23,80 0,0 14,1 27,-10 13,-10 -24,60 -24,60 0,0 14,-2 29,-9 -3,21 -27,60 -27,60 0,0 4,4 21,-3 1,27 -23,64 -23,64 0,0 4,-2 24,-10 1,25 -22,63 -22,63 0,0 13,-9 28,-12 -7,26 -33,60 -33,60 0,0 13,-5 29,-9 -2,25 -31,69 -31,69 0,0 16,2 29,-2 -5,37 -35,59 -35,59 0,0 15,9 26,9 -11,32 -60,60 -60,60 0,0 16,11 26,14 -22,23 -66,44 -66,44 0,0 15,13 31,15 -22,21 -71,43 -71,43 0,0 16,14 31,14 -21,21 -71,45 -71,45 0,0 11,11 30,12 -22,21 -66,38 -66,38 0,0 14,9 33,12 -24,17 -60,27 -60,27 0,0 9,8 20,14 -24,13 -73,19 -73,19 0,0 13,8 19,11 -28,12 -80,25 -80,25 0,0 6,10 13,18 -21,10 -77,17 -77,17 0,0 6,9 9,21 -19,7 -105,2 -105,2 0,0 5,18 7,23 -21,8 -164,4 -250,-67 -32,89 -58,172 -91,248 -11,-1 -8,-51 -19,-54z"/>
   <path class="fil1" d="M2574 5754c1,-10 15,-74 15,-74 -40,-123 -2,-307 17,-349 -10,42 -34,201 -2,315 22,-47 47,-92 86,-145 -3,-112 78,-308 130,-348 -37,48 -107,217 -109,322 43,-55 85,-105 140,-156 37,-89 107,-206 156,-237 -46,52 -120,205 -120,205 1,-1 168,-149 291,-176 -97,46 -165,91 -247,157 70,-27 116,-36 214,-38 -92,15 -174,36 -254,75 -65,56 -106,98 -156,162 121,-96 271,-130 361,-126 -108,17 -266,62 -404,182l-1 0c-34,47 -53,80 -71,122 85,-94 320,-99 374,-102 -76,9 -337,41 -399,164 -4,16 -7,31 -8,45l-14 1z"/>
   <path class="fil0" d="M2420 3937c-10,-47 -8,-66 -5,-86 7,12 19,17 19,17 0,0 12,-86 27,-118 8,9 22,15 22,15 0,0 4,-52 16,-80 9,8 20,12 20,12 0,0 15,-54 25,-68 6,8 17,11 17,11 0,0 17,-62 31,-83 4,10 11,20 11,20 0,0 27,-61 53,-82 5,13 7,23 7,23 0,0 26,-48 43,-60 0,10 5,25 5,25 0,0 23,-41 44,-54 -2,11 4,22 4,22 0,0 29,-44 59,-52 -2,11 3,21 3,21 0,0 34,-41 55,-47 -1,9 4,19 4,19 0,0 20,-21 36,-29 1,8 4,19 4,19 0,0 22,-23 35,-26 -3,16 2,22 2,22 0,0 11,-10 26,-8 -2,10 4,20 4,20 0,0 20,5 60,-33 -30,47 -48,120 -48,120 0,0 11,3 21,-1 2,27 -25,65 -25,65 0,0 16,4 23,-2 3,30 -26,70 -26,70 0,0 13,5 20,0 2,22 -24,75 -24,75 0,0 11,1 17,0 0,25 -24,56 -24,56 0,0 9,-1 17,0 -5,26 -30,55 -30,55 0,0 12,3 20,2 -8,21 -36,47 -36,47 0,0 10,2 18,5 -11,28 -61,64 -61,64 0,0 17,5 27,4 -10,29 -67,70 -67,70 0,0 13,4 21,4 -18,32 -123,79 -123,79l24 25c0,0 -134,56 -311,14 -21,33 -48,115 -50,124l-22 -2c0,-8 29,-96 53,-135 -24,-44 -41,-91 -46,-161z"/>
   <path class="fil1" d="M2516 3985c-12,31 -22,62 -28,92 -6,-9 -11,-18 -16,-28 17,-66 36,-113 55,-149 23,-64 44,-153 42,-196 10,36 0,101 -13,153 27,-45 59,-90 93,-133 31,-52 56,-105 66,-161 2,25 -4,70 -22,109 61,-71 150,-149 219,-202 -67,64 -199,204 -264,289 53,-37 171,-65 171,-65 -63,23 -136,48 -194,96 -40,56 -67,97 -91,151 54,-54 150,-82 185,-93 -79,32 -147,73 -202,135z"/>
   <path class="fil0" d="M2400 5185c13,-47 14,-67 11,-88 -8,12 -21,16 -21,16 0,0 -6,-90 -20,-124 -9,9 -23,14 -23,14 0,0 0,-54 -11,-84 -10,7 -22,11 -22,11 0,0 -11,-57 -21,-72 -7,8 -19,10 -19,10 0,0 -13,-65 -26,-88 -5,10 -13,20 -13,20 0,0 -23,-65 -49,-89 -6,14 -9,24 -9,24 0,0 -23,-52 -40,-65 -1,10 -7,25 -7,25 0,0 -21,-44 -42,-59 1,12 -6,22 -6,22 0,0 -26,-48 -58,-58 1,12 -5,22 -5,22 0,0 -32,-44 -53,-52 0,10 -6,20 -6,20 0,0 -19,-24 -35,-32 -2,8 -6,20 -6,20 0,0 -21,-25 -34,-29 2,17 -3,23 -3,23 0,0 -10,-11 -27,-11 2,10 -6,21 -6,21 0,0 -21,3 -60,-38 28,51 40,127 40,127 0,0 -12,2 -21,-3 -4,28 21,69 21,69 0,0 -16,3 -24,-4 -5,31 22,75 22,75 0,0 -13,4 -21,-2 -4,22 19,79 19,79 0,0 -11,1 -18,-2 -2,26 21,60 21,60 0,0 -9,-1 -18,-2 3,27 27,59 27,59 0,0 -13,3 -21,1 6,22 34,51 34,51 0,0 -11,2 -19,3 9,30 59,70 59,70 0,0 -18,4 -28,2 8,30 64,77 64,77 0,0 -14,3 -22,3 16,35 121,91 121,91l-27 24c0,0 134,68 320,38 19,35 41,122 42,132l23 0c1,-8 -22,-101 -44,-143 28,-44 49,-90 59,-163z"/>
   <path class="fil1" d="M2298 5228c10,33 18,66 23,97 7,-8 13,-18 19,-28 -13,-69 -29,-119 -46,-158 -19,-68 -34,-161 -29,-206 -13,36 -8,104 2,159 -25,-49 -54,-97 -86,-144 -28,-56 -50,-112 -56,-171 -4,26 -1,73 15,114 -58,-78 -144,-165 -211,-225 65,71 191,225 251,318 -52,-42 -172,-79 -172,-79 63,29 137,60 193,113 37,61 62,105 83,163 -51,-60 -148,-96 -184,-109 79,39 147,87 198,155z"/>
  </g>
 </g>
</svg>
