<?xml version="1.0" encoding="UTF-8"?>
<!DOCTYPE svg PUBLIC "-//W3C//DTD SVG 1.1//EN" "http://www.w3.org/Graphics/SVG/1.1/DTD/svg11.dtd">
<!-- Creator: CorelDRAW X5 -->
<svg xmlns="http://www.w3.org/2000/svg" xml:space="preserve" width="210mm" height="297mm" style="shape-rendering:geometricPrecision; text-rendering:geometricPrecision; image-rendering:optimizeQuality; fill-rule:evenodd; clip-rule:evenodd"
viewBox="0 0 21000 29700"
 xmlns:xlink="http://www.w3.org/1999/xlink">
 <defs>
  <style type="text/css">
   <![CDATA[
    .fil0 {fill:#332C2B;fill-rule:nonzero}
   ]]>
  </style>
 </defs>
 <g id="图层_x0020_1">
  <metadata id="CorelCorpID_0Corel-Layer"/>
  <path class="fil0" d="M7538 4180c51,-140 236,-232 375,-168 145,55 196,275 58,359 -62,44 -152,43 -204,-8 -55,-49 -63,-142 -4,-187 50,-39 108,-18 129,5 27,22 28,48 56,45 18,2 33,-43 -10,-88 -39,-46 -142,-62 -209,-5 -90,66 -81,205 -6,273 74,76 204,79 287,22 194,-115 132,-414 -60,-490 -95,-44 -200,-39 -291,-1 277,-319 542,-646 812,-967 5,-4 10,-9 13,-15 4,-4 7,-8 11,-13 10,22 23,46 36,51 45,18 129,0 177,36 -47,-38 -58,-111 -74,-151 -8,-19 -31,-30 -55,-36 438,-514 888,-1018 1444,-1388 369,-249 778,-449 1205,-580 -153,218 -142,550 62,744 73,76 159,116 213,167 62,52 111,116 151,184 81,137 111,299 92,454 -25,312 -288,599 -619,586 -157,-1 -321,-67 -422,-182 -102,-116 -138,-284 -90,-432 45,-148 176,-269 336,-279 155,-16 326,75 364,224 44,144 -52,330 -215,337 -77,9 -159,-26 -202,-85 -43,-61 -43,-149 3,-209 95,-104 196,-15 214,-55 43,-33 -141,-125 -258,22 -63,78 -66,193 -11,276 58,83 160,127 260,120 214,-7 344,-241 291,-425 -45,-196 -258,-316 -452,-299 -201,4 -378,161 -435,340 -64,181 -27,393 99,544 42,50 92,92 146,127 -58,-16 -116,-25 -171,-26 -203,-7 -363,72 -455,144 -173,162 -144,177 -11,67 73,-47 193,-111 358,-122 161,-10 375,41 521,208 144,168 143,432 1,594 -137,167 -408,156 -529,19 -125,-135 -52,-353 75,-389 131,-45 244,45 251,117 12,75 -20,112 -13,121 0,8 39,-9 60,-85 25,-70 -34,-230 -219,-250 -180,-34 -407,198 -306,454 97,261 472,338 699,163 226,-173 270,-494 142,-716 -56,-93 -130,-164 -211,-216 57,16 117,25 177,28 172,7 346,-48 483,-152 -179,303 -254,664 -178,1013 18,107 47,211 85,311 0,0 -1,1 -1,1 -25,21 -60,47 -102,74 -33,-9 -86,-16 -95,33 1,-25 2,-67 -11,-79 -33,-32 -116,-45 -145,-94 27,50 7,119 5,160 -1,29 37,54 60,68 -32,-12 -51,7 -63,31 -137,45 -306,67 -501,31 -207,-41 -411,-158 -531,-322 -51,-69 -86,-146 -106,-225 15,-20 21,-44 -3,-67 22,16 59,40 77,37 48,-8 109,-68 170,-62 -61,-7 -110,-63 -146,-88 -25,-18 -70,-2 -96,9 46,-29 8,-76 -16,-100 3,-20 7,-39 12,-58 92,-383 452,-486 615,-453 167,30 183,28 48,-37 -69,-25 -188,-49 -336,-8 -148,38 -315,163 -406,371 -5,11 -10,22 -14,34 -25,-60 -57,-117 -97,-168 -118,-152 -301,-257 -499,-278 -199,-21 -393,31 -560,130 -163,106 -291,262 -355,442 -32,89 -52,183 -52,278 -3,101 21,184 11,254 -15,312 -432,543 -696,349 -126,-86 -195,-261 -138,-401zm5063 -1773c340,-91 717,-16 989,203 272,211 440,564 403,900 -36,339 -301,642 -642,729 -336,104 -730,-76 -855,-399 -119,-267 10,-530 151,-638 43,-35 83,-61 120,-81 1,1 2,2 4,3 0,0 273,118 282,482 0,0 150,-289 -18,-413 60,33 161,80 194,54 87,-69 148,-319 276,-355 -131,30 -290,-110 -389,-162 -69,-36 -144,56 -184,115 85,-186 -184,-349 -184,-349 156,285 33,494 2,538 -50,17 -107,46 -168,94 -172,123 -306,447 -169,742 137,365 583,574 963,460 380,-93 681,-429 725,-810 22,-187 -11,-374 -84,-544 64,43 134,74 204,94 317,92 592,-65 686,-172 98,-113 83,-121 0,-45 -82,68 -294,213 -596,157 -145,-29 -288,-110 -372,-225 -86,-115 -107,-265 -76,-388 64,-267 316,-342 430,-315 117,20 128,19 34,-28 -49,-15 -131,-34 -235,-5 -102,28 -221,114 -284,259 -42,92 -54,200 -35,304 -34,-34 -69,-67 -107,-97 -297,-245 -722,-333 -1097,-236 -281,59 -531,205 -728,403 34,-77 57,-160 69,-244 19,-190 -23,-386 -126,-548 -51,-81 -113,-156 -188,-216 -78,-66 -159,-101 -208,-153 -218,-191 -169,-592 86,-718 62,-15 124,-28 186,-40 120,4 240,62 297,162 79,127 35,325 -104,389 -135,74 -343,-26 -322,-184 4,-74 62,-142 136,-148 74,-10 153,43 151,116 -1,62 -54,92 -86,94 -35,6 -56,-9 -71,13 -13,12 13,53 76,48 61,0 139,-67 137,-154 5,-110 -111,-191 -214,-177 -108,7 -192,103 -200,202 -32,219 245,362 428,265 194,-88 252,-336 154,-509 -36,-65 -89,-117 -152,-154 43,-6 87,-11 131,-15 384,-35 714,-81 1072,-18 349,53 687,174 990,352 608,355 1064,949 1236,1622 192,666 26,1410 -436,1937 -366,428 -924,713 -1495,746 21,-10 42,-21 62,-34 184,-110 286,-376 162,-577 -96,-185 -363,-256 -528,-141 -24,-112 -123,-209 -242,-229 -253,-49 -480,195 -439,420 27,198 144,358 269,458 -553,-205 -993,-695 -1097,-1271 -155,-677 324,-1416 1024,-1571zm389 2396c5,-19 12,-37 22,-56 10,-20 22,-37 36,-53 -5,41 -23,79 -58,109zm-113 418c-13,14 -13,38 -9,60 -70,-37 -127,-77 -169,-113 -130,-128 -134,-132 -42,-16 36,39 92,90 171,139 -4,1 -8,2 -11,3 -13,-3 -25,-7 -38,-11 -120,-81 -252,-210 -308,-401 -86,-199 57,-453 282,-470 149,-25 274,97 294,221 -3,3 -5,5 -8,8 -64,54 -92,125 -93,196 -63,35 -143,36 -195,-6 -66,-49 -80,-146 -32,-195 46,-54 128,-51 160,-8 36,42 23,98 -12,116 -36,15 -58,8 -71,-4 17,6 36,2 47,-13 13,-18 9,-42 -9,-55 -18,-13 -43,-9 -56,8 -7,10 -9,21 -7,32 0,15 8,48 65,56 36,1 90,-30 91,-91 2,-57 -60,-129 -145,-112 -80,9 -156,105 -121,202 24,97 152,167 266,124 8,-2 15,-5 22,-8 16,110 93,210 197,230 190,45 317,-136 279,-237 -21,-74 -63,-102 -86,-113 -4,-2 -7,-3 -10,-4 -5,-2 -7,-3 -7,-3 0,0 0,0 -1,0 -31,-8 -64,3 -84,29 -26,35 -19,84 17,109 36,26 86,18 112,-17 14,-19 18,-42 14,-63 5,7 10,15 14,24 40,63 4,218 -148,245 -112,31 -253,-82 -260,-221 70,-46 115,-131 110,-215 126,-92 326,-80 431,51 147,151 116,394 -24,522 -70,72 -158,114 -247,132 -65,-1 -129,-5 -193,-13 -20,-21 -47,-37 -77,-12 18,-19 47,-53 45,-71 -4,-47 -58,-112 -47,-170 -14,58 -75,100 -105,132zm-2099 -4530c-5,35 -15,67 -27,95 -153,65 -302,137 -447,217 -8,-1 -15,-1 -22,-2 -134,-21 -138,-21 -32,9 10,2 21,3 32,5 -8,4 -15,9 -23,13 -77,-13 -159,-42 -241,-98 -140,-81 -171,-291 -46,-398 77,-79 206,-60 274,5 0,3 -1,5 -1,8 -13,59 2,113 33,155 -21,47 -68,81 -117,79 -61,-1 -114,-51 -107,-101 4,-51 52,-86 91,-73 40,9 58,48 45,74 -15,25 -32,30 -45,28 13,-3 23,-14 23,-28 0,-16 -13,-29 -30,-29 -16,0 -30,13 -30,29 0,9 4,16 10,21 6,9 26,26 64,6 22,-15 40,-56 13,-93 -24,-35 -94,-51 -136,-4 -44,39 -44,128 21,169 57,47 162,32 212,-40 3,-4 6,-8 9,-13 59,59 150,84 221,52 132,-55 126,-216 58,-260 -46,-34 -83,-33 -102,-30 -3,1 -6,1 -8,2 -3,1 -5,2 -6,1 0,0 0,0 0,1 -22,9 -37,29 -37,53 0,32 27,58 59,58 33,0 59,-26 59,-58 0,-17 -8,-32 -21,-43 6,2 13,5 19,8 52,20 100,127 23,208 -52,66 -186,60 -253,-20 21,-57 9,-126 -32,-174 33,-108 157,-186 277,-154 154,26 248,183 219,318zm-505 -119c15,26 22,56 15,89 -5,-13 -10,-26 -12,-42 -3,-16 -4,-32 -3,-47zm-7137 4563c177,340 493,609 864,735 368,138 795,95 1146,-32 730,-231 1349,-697 1874,-1216 141,-139 277,-283 410,-429 -48,176 33,367 179,474 344,258 866,-20 902,-420 14,-103 -9,-193 -3,-266 2,-79 22,-157 50,-231 57,-148 167,-274 302,-357 263,-179 658,-164 858,94 72,87 118,198 128,309 -19,-12 -41,-23 -53,-21 -47,8 -108,68 -169,62 61,7 110,63 146,88 18,13 46,8 70,0 -29,148 -139,279 -285,336 -147,60 -325,39 -435,-76 -111,-107 -148,-293 -52,-416 87,-125 295,-170 404,-52 56,52 80,136 61,206 -21,71 -91,127 -168,130 -142,-5 -136,-138 -179,-126 -53,-12 -9,185 181,181 102,-2 195,-72 226,-167 29,-96 -1,-201 -70,-271 -141,-157 -409,-106 -522,50 -127,159 -87,395 49,530 131,149 367,182 546,112 139,-50 254,-154 321,-284 15,46 34,91 59,134 120,211 338,353 555,413 287,83 550,24 738,-70 -13,29 -40,60 -92,69 0,0 107,47 121,-24 -1,25 -2,67 11,79 33,31 116,45 145,94 -27,-50 -7,-119 -5,-160 1,-29 -37,-54 -60,-68 67,26 79,-87 79,-87 -34,38 -71,46 -102,43 63,-41 113,-83 147,-121 6,-7 12,-14 18,-21 217,527 693,949 1259,1102 12,9 25,14 40,11 3,1 7,1 10,2 -16,19 -34,43 -33,57 4,47 58,112 47,171 13,-58 75,-100 105,-132 15,-16 13,-45 7,-69 1,0 3,1 4,1 772,128 1568,-202 2068,-770 510,-566 700,-1387 498,-2113 -175,-715 -648,-1354 -1287,-1748 106,-2 262,27 415,168 0,0 -103,-308 -312,-280 66,-19 172,-55 176,-96 11,-109 -127,-327 -63,-442 -71,111 -285,122 -393,153 -75,22 -62,139 -46,208 -75,-190 -383,-119 -383,-119 200,60 300,174 349,264 -268,-132 -556,-225 -852,-273 -190,-31 -384,-43 -577,-38 -97,2 -193,10 -289,22l-72 9c-1,0 -12,1 -19,3l-34 0c-50,2 -98,5 -146,9 -419,44 -824,152 -1207,310 0,-1 1,-1 1,-2 61,-143 1,-344 -163,-409 -140,-68 -329,4 -375,142 -65,-57 -168,-71 -247,-32 -171,80 -194,321 -69,435 88,84 187,127 284,146 -116,67 -229,138 -339,213 -504,344 -915,783 -1299,1234 -2,-5 -7,0 -13,15 -56,65 -111,131 -165,196 -8,-15 -17,-28 -26,-32 -45,-18 -129,0 -177,-36 47,38 58,111 74,151 6,14 20,23 36,30 -3,3 -5,6 -8,9 -16,19 -31,38 -47,57 -22,11 -46,21 -72,30 -244,91 -540,-46 -592,-267 -68,-222 84,-380 180,-407 95,-33 102,-38 13,-34 -75,3 -304,115 -270,398 14,131 96,263 220,337 126,73 280,85 409,53 10,-2 19,-5 29,-8 -420,514 -830,1032 -1294,1498 -509,512 -1098,963 -1789,1188 -344,125 -699,160 -1037,42 -332,-110 -619,-348 -781,-653 -162,-303 -215,-672 -77,-988 128,-318 421,-565 763,-646 339,-91 720,34 930,309 216,266 249,675 11,932 -216,262 -668,333 -908,72 -117,-118 -180,-297 -140,-456 38,-160 181,-291 349,-317 282,-48 450,249 382,396 -24,-89 -107,-155 -206,-155 -118,0 -214,93 -214,208 0,115 96,208 214,208 51,0 98,-18 135,-47 53,-25 113,-74 156,-165 116,-210 -120,-592 -481,-530 -202,29 -376,185 -425,379 -51,196 23,402 159,545 137,144 346,220 547,197 198,-22 386,-118 516,-265 279,-297 245,-773 2,-1073 -234,-314 -673,-462 -1057,-363 -384,86 -717,361 -864,718 -159,358 -103,774 73,1109z"/>
  <path class="fil0" d="M7810 2677c-129,-103 -82,-287 21,-321 101,-43 179,23 188,65 12,45 -3,65 -5,61 -6,-3 -1,-31 -30,-66 -25,-35 -110,-49 -164,12 -54,55 -26,188 78,221 103,36 245,-36 266,-161 24,-124 -55,-259 -179,-305 -271,-81 -444,124 -477,207 -34,95 -54,95 -14,-37 28,-125 289,-353 582,-200 133,77 207,255 142,408 -64,154 -280,222 -408,115z"/>
  <path class="fil0" d="M14560 2668c-159,122 -421,68 -488,-115 -70,-180 89,-342 214,-318 129,14 171,126 153,174 -15,53 -42,65 -42,59 -5,-6 18,-32 9,-85 -5,-50 -84,-113 -175,-82 -89,26 -140,178 -53,272 84,96 274,103 370,-13 99,-113 100,-298 -1,-415 -105,-113 -251,-154 -365,-146 -116,8 -198,54 -250,86 -92,78 -113,67 8,-46 62,-52 175,-106 317,-102 139,3 307,72 402,229 90,155 59,380 -99,501z"/>
  <path class="fil0" d="M4516 6619c-93,0 -168,-73 -168,-164 0,-91 75,-164 168,-164 93,0 168,73 168,164 0,91 -75,164 -168,164z"/>
  <path class="fil0" d="M3412 7413c56,-10 113,-38 147,-86 17,-24 28,-51 34,-78 82,-51 165,-104 247,-154 226,-138 451,-277 676,-421 224,144 450,283 676,421 83,50 165,103 247,154 6,27 17,53 34,78 33,48 91,76 147,86 33,6 65,6 97,1 50,27 100,53 151,76 -214,44 -450,38 -676,43 -225,5 -451,6 -676,6 -225,0 -451,-2 -676,-6 -226,-5 -462,1 -676,-43 50,-23 101,-49 151,-76 32,5 65,6 98,-1z"/>
  <path class="fil0" d="M3750 9223c0,-49 -1,-97 -2,-144 -1,-159 -11,-318 -29,-477 -18,-159 -44,-319 -83,-478 -34,-137 -64,-294 -159,-429 693,0 1385,0 2078,0 -95,135 -125,292 -159,429 -39,159 -65,318 -83,478 -18,159 -29,318 -30,477 0,47 -2,95 -2,144 0,97 5,197 39,293 -536,0 -1072,0 -1608,0 33,-96 39,-197 39,-294zm-75 -143c0,48 2,96 2,143 0,111 -8,220 -53,315l-23 51 57 0c572,0 1144,0 1716,0l57 0 -24 -51c-44,-95 -53,-203 -53,-314 0,-48 1,-96 2,-144 1,-156 11,-313 29,-469 18,-157 44,-314 81,-469 39,-161 74,-331 190,-458l54 -60 -82 0c-743,0 -1485,0 -2228,0l-82 0 55 60c117,127 151,297 190,458 38,155 64,312 82,469 18,156 28,313 29,469z"/>
  <path class="fil0" d="M3493 9676c681,0 1363,0 2044,0 -2,27 -1,54 -1,80 3,68 19,136 29,203 0,28 0,57 0,85 -78,-68 -174,-96 -263,-122 -87,-25 -175,-42 -263,-55 -148,-22 -298,-33 -447,-36 36,195 150,252 150,252 182,134 242,-68 242,-68 74,70 22,128 22,128 237,35 230,268 230,268 -168,-271 -369,-166 -508,-278 -117,-94 -145,-220 -149,-302 -21,0 -43,-1 -65,-1 -21,0 -42,0 -62,1 -4,82 -32,208 -149,302 -139,112 -340,8 -508,278 0,0 -7,-233 230,-268 0,0 -52,-58 22,-128 0,0 60,202 242,68 0,0 114,-57 150,-252 -150,3 -300,14 -449,36 -88,13 -176,31 -263,55 -89,25 -184,54 -263,122 0,-18 0,-36 0,-54 11,-71 28,-144 32,-217 1,-31 2,-65 -3,-97z"/>
  <path class="fil0" d="M5537 9676c4,-44 16,-87 53,-123 30,-27 72,-32 105,-29 33,5 63,10 93,26 58,29 84,103 57,150 -24,45 -62,76 -104,78 -41,0 -66,-24 -76,-40 -11,-17 -11,-30 -11,-30 -1,2 -3,-28 22,-36 21,-7 39,0 39,2 4,6 -46,0 -42,32 0,0 0,9 12,23 11,13 36,31 67,23 29,-8 65,-43 72,-84 7,-42 -30,-86 -82,-98 -55,-14 -118,-12 -139,40 -23,50 -18,116 -11,177 16,123 63,250 32,372 -13,60 -62,121 -127,148 -68,33 -154,18 -212,-26 -59,-42 -99,-118 -84,-191 7,-35 25,-71 57,-92 31,-21 69,-27 102,-24 65,7 127,41 147,99 15,62 -30,109 -72,119 -44,9 -77,-11 -93,-25 -17,-16 -20,-30 -21,-30 -8,-20 1,-38 9,-46 8,-9 15,-11 20,-13 10,-3 11,-1 11,-1 2,4 -15,14 -21,27 -7,13 -1,27 -1,27 0,0 2,8 13,19 11,10 33,24 62,22 28,0 60,-27 66,-65 5,-36 -33,-74 -81,-88 -47,-15 -110,-8 -136,36 -27,45 -20,110 19,154 38,45 102,73 160,61 58,-14 111,-59 126,-116 18,-61 12,-127 1,-195 -11,-66 -26,-135 -29,-203 -1,-26 -2,-53 1,-80z"/>
  <path class="fil0" d="M5713 9676c0,-5 0,0 0,0l0 0z"/>
  <path class="fil0" d="M3245 9568c30,-16 60,-21 93,-26 33,-3 74,2 105,29 32,31 45,68 51,105 5,33 4,66 3,97 -3,73 -21,146 -32,217 -9,63 -13,124 3,181 16,57 69,103 126,116 58,12 123,-16 160,-61 39,-44 47,-109 19,-154 -26,-45 -89,-52 -137,-36 -48,14 -87,51 -81,88 6,37 38,65 66,65 29,2 51,-12 62,-22 11,-11 13,-19 13,-18 0,0 6,-14 -1,-27 -6,-13 -23,-23 -21,-27 0,0 1,-2 11,1 5,2 12,5 20,13 8,8 16,26 9,46 0,0 -3,14 -21,30 -16,15 -49,35 -93,25 -42,-10 -87,-58 -72,-119 20,-58 82,-92 147,-99 33,-3 70,3 102,24 32,21 50,57 57,92 15,73 -25,149 -84,191 -58,44 -144,60 -212,26 -65,-27 -114,-88 -127,-148 -31,-121 16,-249 32,-372 8,-61 12,-127 -11,-177 -21,-52 -84,-54 -139,-40 -52,12 -89,56 -82,98 7,41 42,76 72,84 31,8 57,-10 67,-23 11,-14 12,-24 12,-23 4,-31 -46,-26 -42,-31 0,-2 18,-10 39,-2 24,8 23,38 22,36 0,0 0,12 -11,30 -11,16 -35,40 -76,40 -42,-2 -80,-32 -104,-78 -27,-48 -1,-121 57,-150z"/>
  <path class="fil0" d="M3319 9691c0,-1 0,-1 0,0l0 0z"/>
  <path class="fil0" d="M3319 9693c0,0 0,-1 0,-1 0,0 0,1 0,1z"/>
  <path class="fil0" d="M3319 9693c0,0 0,0 0,0 0,0 0,0 0,0z"/>
  <path class="fil0" d="M5619 7413c-56,-10 -113,-38 -147,-86 -17,-24 -28,-51 -34,-78 -6,-26 -7,-52 -4,-76 11,-98 65,-192 158,-222 98,-22 174,45 190,109 15,67 -17,116 -41,141 -25,26 -48,31 -48,31 -32,11 -60,-1 -73,-13 -14,-12 -18,-23 -21,-30 -5,-15 -2,-17 -2,-17 7,-2 22,22 43,32 21,11 43,1 43,1 0,0 12,-3 29,-20 16,-17 38,-50 35,-94 0,-42 -44,-90 -103,-99 -58,-8 -117,50 -140,123 -25,71 -13,167 58,206 71,41 175,30 245,-29 72,-57 117,-155 97,-242 -22,-87 -94,-167 -185,-191 -192,-53 -415,33 -634,43 -107,3 -231,8 -323,-81 -43,-46 -51,-108 -46,-158 7,-50 15,-95 42,-140 47,-88 164,-126 240,-86 72,36 121,94 124,157 0,62 -38,99 -64,115 -27,17 -48,17 -47,17 4,1 -44,4 -58,-33 -11,-31 0,-59 4,-60 9,-6 0,70 50,64 -1,0 15,0 37,-18 21,-16 50,-55 37,-102 -12,-44 -69,-98 -133,-108 -67,-10 -138,46 -156,124 -22,83 -20,178 63,210 79,34 184,28 282,16 196,-24 399,-95 592,-48 96,20 193,94 236,192 53,102 28,232 -42,320 -48,65 -125,114 -207,128 -32,5 -65,6 -97,-1z"/>
  <path class="fil0" d="M4958 6636c-8,-1 0,0 0,0l0 0z"/>
  <path class="fil0" d="M3066 6966c43,-98 141,-172 236,-192 193,-46 397,24 592,48 97,12 202,18 282,-16 83,-32 86,-127 64,-210 -18,-78 -89,-134 -156,-124 -65,11 -121,64 -133,108 -13,47 15,86 37,102 22,17 38,18 37,18 50,6 41,-70 50,-64 4,0 15,28 4,60 -13,37 -61,34 -58,33 0,0 -20,0 -47,-17 -25,-16 -64,-53 -64,-115 3,-63 51,-121 123,-157 76,-40 193,-2 240,86 26,45 34,90 42,140 5,50 -3,112 -46,158 -92,89 -216,83 -323,81 -219,-10 -442,-96 -634,-43 -91,24 -163,104 -185,191 -19,87 26,185 97,242 70,59 174,70 245,29 71,-39 83,-135 58,-206 -23,-73 -82,-131 -140,-123 -59,9 -103,57 -103,99 -3,44 19,78 35,94 17,17 30,20 29,20 0,0 22,10 43,-1 22,-10 37,-34 43,-32 0,0 2,2 -2,17 -3,7 -7,18 -21,30 -12,12 -41,25 -73,13 1,0 -22,-5 -48,-31 -24,-25 -55,-74 -41,-141 16,-64 92,-131 190,-109 93,30 147,123 158,222 2,24 1,50 -4,76 -6,27 -17,53 -34,78 -34,48 -91,76 -147,86 -33,6 -65,6 -98,1 -82,-14 -159,-63 -207,-128 -70,-88 -95,-218 -42,-320z"/>
  <path class="fil0" d="M4073 6636c0,0 8,-1 0,0l0 0z"/>
  <path class="fil0" d="M4316 5944c76,38 128,-24 156,-75 -28,-47 -80,-101 -156,-52 0,0 74,-180 129,-80 -17,-42 -42,-118 -24,-165 25,-68 83,-166 83,-274 2,107 81,201 97,282 6,31 -17,101 -32,142 53,-109 138,62 138,62 -76,-38 -128,24 -156,75 28,47 80,101 156,52 0,0 -74,180 -129,80 17,42 42,118 24,165 -25,68 -83,166 -83,274 -2,-107 -81,-201 -97,-282 -6,-31 17,-101 32,-142 -53,109 -138,-62 -138,-62z"/>
  <path class="fil0" d="M4305 7135c5,-44 5,-85 0,-124 37,-15 74,-35 111,-62 42,-17 78,-39 110,-62 32,24 69,45 110,62 36,26 74,47 111,62 -5,39 -6,81 0,124 -5,44 -5,85 0,124 -37,15 -74,35 -111,62 -42,17 -78,39 -110,62 -32,-24 -69,-45 -110,-62 -36,-26 -73,-47 -111,-62 5,-39 6,-81 0,-124z"/>
 </g>
</svg>
