<?xml version="1.0" encoding="UTF-8"?>
<!DOCTYPE svg PUBLIC "-//W3C//DTD SVG 1.1//EN" "http://www.w3.org/Graphics/SVG/1.1/DTD/svg11.dtd">
<!-- Creator: CorelDRAW X5 -->
<svg xmlns="http://www.w3.org/2000/svg" xml:space="preserve" width="210mm" height="297mm" style="shape-rendering:geometricPrecision; text-rendering:geometricPrecision; image-rendering:optimizeQuality; fill-rule:evenodd; clip-rule:evenodd"
viewBox="0 0 21000 29700"
 xmlns:xlink="http://www.w3.org/1999/xlink">
 <defs>
  <style type="text/css">
   <![CDATA[
    .fil0 {fill:#332C2B}
    .fil2 {fill:#332C2B;fill-rule:nonzero}
    .fil1 {fill:#C9A268;fill-rule:nonzero}
    .fil4 {fill:#DCC39C;fill-rule:nonzero}
    .fil3 {fill:#EEE1CF;fill-rule:nonzero}
    .fil5 {fill:#F2EADC;fill-rule:nonzero}
    .fil6 {fill:#FDFCEC;fill-rule:nonzero}
   ]]>
  </style>
 </defs>
 <g id="图层_x0020_1">
  <metadata id="CorelCorpID_0Corel-Layer"/>
  <path class="fil0" d="M5873 5806c-13,31 -16,59 -12,82 9,54 61,98 123,87 42,-7 62,-47 58,-81 -6,-53 -78,-62 -100,-19 -9,17 -9,37 9,55 -20,-3 -33,-12 -43,-27 -10,-15 -31,-62 49,-163 30,-32 54,-71 67,-114 28,-92 12,-201 -53,-273 -29,-33 -85,-72 -138,-79 -31,-4 -62,7 -84,26 -28,24 -48,78 -16,108 11,10 27,16 44,14 70,-9 57,-120 -12,-85 19,-53 105,-47 152,11 28,34 37,78 31,120 -5,35 -22,60 -63,78 -27,13 -52,14 -78,34 -60,46 -23,127 67,118 0,0 0,0 1,0 40,-4 126,-28 136,-141 0,17 -1,32 -5,47 -24,119 -195,226 -325,197 -63,-14 -144,-86 -79,-151 15,-15 36,-25 50,-39 45,-34 6,-96 -51,-90 -50,5 -77,56 -89,96 -18,57 -3,110 50,158 7,7 15,13 23,20 -113,-52 -178,-168 -113,-270 66,-100 69,-145 21,-167 -46,-21 -77,20 -80,48 -60,-113 -176,-119 -209,-54 -16,32 -16,65 22,83 74,34 115,-78 41,-96 19,-7 35,-6 52,2 17,8 61,37 46,166 -14,110 22,211 123,277 72,48 156,71 240,64 52,-4 101,-19 145,-43z"/>
  <path class="fil0" d="M6206 5806c13,31 16,59 12,82 -9,54 -61,98 -123,87 -42,-7 -62,-47 -58,-81 6,-53 78,-62 100,-19 9,17 9,37 -9,55 20,-3 33,-12 43,-27 10,-15 31,-62 -49,-163 -30,-32 -54,-71 -67,-114 -28,-92 -12,-201 53,-273 29,-33 85,-72 138,-79 31,-4 62,7 84,26 28,24 48,78 16,108 -11,10 -27,16 -44,14 -70,-9 -57,-120 12,-85 -19,-53 -105,-47 -152,11 -28,34 -37,78 -31,120 5,35 22,60 63,78 27,13 52,14 78,34 60,46 23,127 -67,118 0,0 0,0 -1,0 -40,-4 -126,-28 -136,-141 0,17 1,32 5,47 24,119 195,226 325,197 63,-14 145,-86 79,-151 -15,-15 -36,-25 -50,-39 -45,-34 -6,-96 51,-90 50,5 77,56 89,96 18,57 3,110 -50,158 -7,7 -15,13 -23,20 113,-52 178,-168 113,-270 -66,-100 -69,-145 -21,-167 46,-21 77,20 80,48 60,-113 176,-119 209,-54 17,32 16,65 -22,83 -74,34 -115,-78 -41,-96 -19,-7 -35,-6 -52,2 -17,8 -61,37 -46,166 14,110 -22,211 -123,277 -72,48 -156,71 -240,64 -52,-4 -101,-19 -145,-43z"/>
  <polygon class="fil1" points="5145,3892 5544,5200 6053,5200 6053,3892 "/>
  <path class="fil2" d="M5554 5188l487 0 0 -1284 -879 0 392 1284 0 0zm512 23l-530 0 -406 -1331 937 0 0 1331z"/>
  <polygon class="fil3" points="6053,5200 6533,5200 6934,3892 6053,3892 "/>
  <path class="fil2" d="M6065 5188l458 0 394 -1284 -852 0 0 1284zm477 23l-502 0 0 -1331 910 0 -408 1331 0 0z"/>
  <polygon class="fil3" points="6908,3856 6373,3856 6056,3313 6175,3313 "/>
  <polygon class="fil4" points="6056,3313 6373,3856 5706,3856 6022,3313 "/>
  <polygon class="fil1" points="6022,3313 5706,3856 5171,3856 5904,3313 "/>
  <polygon class="fil2" points="6900,3865 6170,3325 6077,3325 6383,3850 6362,3862 6035,3301 6179,3301 6916,3847 6900,3865 "/>
  <polygon class="fil2" points="5178,3865 5163,3847 5900,3301 6043,3301 5717,3862 5695,3850 6002,3325 5908,3325 5178,3865 "/>
  <polygon class="fil5" points="6811,3908 5268,3908 5612,5215 6465,5215 "/>
  <path class="fil2" d="M5622 5204l834 0 340 -1284 -1512 0 338 1284 0 0zm853 23l-872 0 -351 -1331 1575 0 -352 1331 0 0z"/>
  <polygon class="fil6" points="6606,4059 5472,4059 5737,5065 6340,5065 "/>
  <path class="fil2" d="M7189 3848c28,0 50,21 50,47 0,26 -23,47 -50,47l-2299 0c-28,0 -50,-21 -50,-47 0,-26 23,-47 50,-47l2299 0z"/>
  <path class="fil0" d="M6355 3284l-270 0c22,-14 36,-37 36,-64 0,-29 -17,-53 -41,-67l101 0 0 -24c-22,-19 -47,-32 -73,-40 29,-17 52,-54 34,-98 -14,-34 -63,-70 -90,-108 -1,1 -1,3 -2,4 -6,11 -22,5 -23,-5 -27,38 -77,74 -91,109 -18,44 5,81 34,98 -26,8 -51,22 -73,40l0 24 101 0c-24,13 -41,38 -41,67 0,27 14,50 36,64l-270 0c-12,0 -21,9 -21,20 0,11 9,20 21,20l632 0c12,0 21,-9 21,-20 0,-11 -9,-20 -21,-20z"/>
  <path class="fil2" d="M6740 5232c0,-26 -23,-47 -50,-47l-1301 0c-28,0 -50,21 -50,47 0,26 23,47 50,47l1301 0c28,0 50,-21 50,-47z"/>
  <path class="fil0" d="M6039 2871c-29,0 -53,-22 -53,-50 0,-28 24,-50 53,-50 29,0 53,22 53,50 0,28 -24,50 -53,50l0 0zm88 -50c0,-46 -39,-83 -88,-83 -49,0 -88,37 -88,83 0,46 39,83 88,83 49,0 88,-37 88,-83z"/>
  <path class="fil2" d="M1345 842c-1,-110 31,-199 72,-199 41,0 74,88 76,198 1,109 -31,198 -72,199 -41,0 -74,-88 -75,-197zm731 19369c-75,-62 -156,-78 -206,-171 -41,-70 -74,-894 -74,-1042 0,-124 -29,-400 -153,-486 99,-47 165,-225 16,-272 -12,-144 277,-260 95,-424 34,-88 26,-249 93,-318 13,-14 11,-37 -8,-43 -196,-63 -188,-377 -151,-556 33,-160 157,-614 -83,-669 74,-77 15,-147 -76,-132 0,-5248 0,-13532 0,-14523 65,-12 109,-33 109,-57 0,-27 -55,-51 -134,-61 53,-29 89,-82 89,-144 0,-82 -63,-150 -146,-163 89,-23 97,-121 125,-235 13,-56 40,-155 100,-203 47,-37 111,-53 173,-39 1,0 2,0 3,0 -59,-147 -227,-163 -289,-104 11,-125 -35,-254 -146,-357 -109,105 -152,235 -139,360 -63,-58 -231,-40 -287,109 1,0 2,0 3,-1 62,-15 126,-1 174,36 61,47 90,145 104,201 29,112 39,208 125,232 -86,11 -151,80 -151,163 0,62 36,115 89,144 -79,10 -134,33 -134,61 0,24 44,45 109,57l0 14523c-91,-15 -150,56 -76,132 -239,55 -116,508 -83,669 37,180 45,493 -151,556 -19,6 -21,29 -8,43 67,69 59,230 93,318 -182,163 107,280 95,424 -149,47 -83,225 16,272 -124,86 -153,361 -153,486 0,148 -33,972 -74,1042 -50,93 -132,109 -206,171 -152,126 -22,181 178,204l959 0c201,-23 330,-78 178,-204z"/>
  <path class="fil2" d="M6326 2597c-110,71 -243,97 -374,73 -41,-7 -80,-20 -117,-36 24,3 48,3 69,1 64,-5 113,-56 111,-117 -2,-63 -58,-112 -124,-110 -15,0 -29,4 -42,9 -27,7 -52,17 -72,22 -53,13 -110,23 -192,-70 -50,-56 -58,-124 -43,-180 6,-22 28,-67 54,-86 46,-32 106,-18 114,-13 -33,5 -58,33 -56,65 1,35 33,63 70,62 38,-1 67,-31 66,-66 -1,-17 -8,-34 -19,-49 -53,-62 -124,-54 -173,-30 -43,20 -76,76 -85,99 -35,91 -24,214 56,329 -17,-5 -33,-10 -50,-14 -148,-34 -301,-11 -431,63 -130,75 -221,192 -257,332 -1,4 -2,9 -3,14 65,-525 140,-1063 554,-1327 365,-233 863,-144 1111,199 196,272 121,643 -167,828zm-3487 1410c-11,13 -21,26 -31,39 -9,-137 -79,-242 -164,-295 -22,-14 -84,-40 -131,-31 -54,9 -117,42 -119,121 0,18 5,36 15,50 21,29 64,36 95,16 31,-20 38,-60 17,-89 -20,-27 -57,-35 -87,-20 3,-9 42,-53 99,-54 33,1 79,24 98,38 48,36 84,95 80,168 -7,121 -58,145 -109,165 -20,7 -46,13 -72,23 -14,3 -27,9 -39,17 -55,36 -68,106 -30,158 37,50 109,63 163,31 17,-11 36,-24 53,-39 -81,140 -235,238 -416,246 -349,15 -645,-241 -660,-569 -20,-414 323,-767 763,-786 500,-22 901,367 1288,751 -4,-3 -8,-6 -11,-10 -242,-189 -601,-157 -802,71zm3712 -2275c-269,-373 -812,-470 -1209,-217 -449,287 -520,856 -588,1407l-6 46c-47,327 -109,566 -176,741 13,-82 -3,-172 -72,-243 -99,-95 -265,-105 -391,-35 0,0 0,0 0,0l0 0c0,0 0,0 0,0l0 0c-32,19 -42,58 -22,88 20,30 62,39 94,21 4,-2 7,-5 11,-7 0,0 0,0 0,0 66,-54 182,-69 262,-16 81,54 108,171 86,275 -116,262 -242,350 -326,377 -140,45 -267,-35 -348,-109 -46,-45 -92,-90 -138,-137 -389,-387 -792,-787 -1304,-796l0 -1c-126,-3 -240,-27 -349,-72 -403,-169 -586,-615 -407,-994 141,-300 516,-436 835,-303 122,51 215,143 263,260 15,37 24,74 29,112 -11,-21 -23,-40 -35,-56 -38,-49 -110,-61 -164,-27 -55,35 -70,105 -33,157 8,12 19,22 30,29 20,18 43,32 58,46 40,36 78,76 38,191 -25,69 -81,112 -140,129 -23,7 -75,13 -106,2 -53,-20 -73,-75 -71,-84 22,24 60,29 89,11 31,-20 40,-60 19,-89 -21,-29 -63,-37 -94,-18 -15,10 -26,24 -34,41 -28,75 17,127 64,154 41,24 109,21 135,16 100,-20 205,-93 267,-218 4,16 9,31 14,47 48,136 149,246 285,311 81,38 168,58 256,58 60,0 120,-9 179,-27 35,-11 67,-25 98,-43 90,-49 149,-121 173,-192 8,-24 18,-87 -3,-128 -24,-47 -74,-94 -156,-75 -19,5 -35,14 -47,28 -24,27 -20,68 9,90 29,22 72,19 96,-9 22,-25 20,-61 -3,-84 10,0 66,24 82,75 8,30 -3,78 -12,99 -24,53 -74,102 -150,118 -125,27 -164,-13 -198,-54 -13,-16 -26,-38 -43,-59 -7,-12 -16,-22 -28,-31 -51,-40 -127,-33 -170,16 -41,47 -35,116 13,156 19,16 42,32 69,46 -46,-8 -90,-22 -133,-42 -119,-57 -208,-153 -249,-273 -22,-63 -32,-128 -31,-193 10,-85 -1,-171 -35,-252 -55,-134 -161,-239 -301,-297 -354,-148 -770,3 -927,337 -194,412 5,897 443,1081 40,17 82,31 124,42 -383,100 -657,438 -638,826 17,355 329,633 702,633 10,0 21,0 32,-1 254,-11 462,-177 525,-397 25,-61 59,-118 104,-169 120,-136 305,-192 477,-162 -30,3 -58,11 -81,19 -60,21 -92,83 -72,141 21,59 89,92 152,73 14,-5 27,-11 38,-20 24,-13 45,-30 63,-40 47,-27 99,-51 205,17 64,41 92,104 94,162 1,23 -7,71 -27,97 -35,42 -96,45 -106,42 30,-14 46,-47 35,-78 -12,-34 -50,-52 -86,-41 -36,11 -55,47 -44,81 6,16 17,30 33,42 69,46 135,19 175,-17 36,-30 51,-93 52,-118 5,-75 -22,-162 -87,-239 -2,-3 -5,-5 -7,-8 36,35 71,71 107,106 135,125 284,169 420,125 276,-89 478,-523 583,-1255l0 -1c0,3 0,6 0,9 -3,98 31,183 82,240 17,19 69,61 117,65 55,6 124,-10 151,-85 5,-18 6,-35 0,-52 -12,-33 -51,-51 -86,-40 -36,11 -55,48 -43,81 11,31 44,48 77,42 -5,8 -56,40 -111,26 -32,-9 -69,-43 -83,-62 -35,-47 -53,-113 -27,-182 42,-114 98,-124 153,-130 21,-2 48,0 76,-3 14,0 29,-1 43,-6 63,-20 97,-85 75,-144 -21,-58 -86,-89 -148,-72 -24,7 -51,17 -78,31 31,-32 68,-61 108,-84 114,-65 248,-85 377,-56 68,16 132,42 191,77 71,53 155,89 246,105 149,27 301,-3 427,-83 320,-205 404,-618 186,-920z"/>
 </g>
</svg>
