<?xml version="1.0" encoding="UTF-8"?>
<!DOCTYPE svg PUBLIC "-//W3C//DTD SVG 1.1//EN" "http://www.w3.org/Graphics/SVG/1.1/DTD/svg11.dtd">
<!-- Creator: CorelDRAW X5 -->
<svg xmlns="http://www.w3.org/2000/svg" xml:space="preserve" width="210mm" height="297mm" style="shape-rendering:geometricPrecision; text-rendering:geometricPrecision; image-rendering:optimizeQuality; fill-rule:evenodd; clip-rule:evenodd"
viewBox="0 0 21000 29700"
 xmlns:xlink="http://www.w3.org/1999/xlink">
 <defs>
  <style type="text/css">
   <![CDATA[
    .fil0 {fill:#332C2B}
    .fil2 {fill:#332C2B;fill-rule:nonzero}
    .fil1 {fill:#C9A268;fill-rule:nonzero}
    .fil4 {fill:#DCC39C;fill-rule:nonzero}
    .fil3 {fill:#EEE1CF;fill-rule:nonzero}
    .fil5 {fill:#F2EADC;fill-rule:nonzero}
    .fil6 {fill:#FDFCEC;fill-rule:nonzero}
   ]]>
  </style>
 </defs>
 <g id="图层_x0020_1">
  <metadata id="CorelCorpID_0Corel-Layer"/>
  <path class="fil0" d="M7909 6253c-19,34 -24,65 -18,91 13,60 90,108 180,96 61,-8 91,-51 85,-89 -9,-58 -115,-68 -147,-21 -14,18 -13,41 14,61 -29,-3 -48,-13 -63,-29 -15,-17 -46,-68 72,-179 45,-36 79,-78 98,-126 41,-102 17,-221 -78,-301 -43,-36 -125,-79 -203,-87 -46,-4 -92,8 -124,28 -41,26 -71,86 -24,119 16,11 40,18 65,16 103,-9 84,-132 -18,-94 28,-58 154,-51 224,12 41,37 54,86 46,132 -7,38 -33,66 -92,86 -40,14 -76,15 -115,38 -88,51 -34,139 99,129 0,0 1,0 1,0 59,-4 186,-31 199,-155 0,18 -2,36 -7,52 -36,131 -287,249 -477,217 -92,-16 -212,-94 -116,-166 22,-16 52,-27 74,-43 66,-37 9,-106 -74,-100 -74,6 -113,62 -131,105 -26,63 -4,121 73,174 11,8 22,15 33,22 -166,-58 -261,-185 -166,-298 96,-111 101,-159 31,-183 -67,-23 -113,21 -118,53 -88,-124 -258,-131 -307,-59 -24,35 -23,72 33,91 109,38 170,-85 61,-106 28,-8 51,-6 77,2 26,9 89,41 67,183 -20,121 32,232 180,305 106,53 229,78 353,71 76,-4 149,-21 213,-47z"/>
  <path class="fil0" d="M8398 6253c19,34 24,65 18,91 -13,60 -90,108 -180,96 -61,-8 -91,-51 -85,-89 9,-58 115,-68 147,-21 14,18 13,41 -14,61 29,-3 48,-13 63,-29 15,-17 46,-68 -72,-179 -45,-36 -79,-78 -98,-126 -41,-102 -17,-221 78,-301 43,-36 125,-79 203,-87 46,-4 92,8 124,28 41,26 71,86 24,119 -16,11 -40,18 -65,16 -103,-9 -84,-132 18,-94 -28,-58 -154,-51 -224,12 -41,37 -54,86 -46,132 7,38 33,66 92,86 40,14 76,15 115,38 88,51 34,139 -99,129 0,0 -1,0 -1,0 -59,-4 -186,-31 -199,-155 0,18 2,36 7,52 36,131 287,249 477,217 92,-16 212,-94 116,-166 -22,-16 -52,-27 -74,-43 -66,-37 -9,-106 74,-100 74,6 113,62 131,105 26,63 4,121 -73,174 -11,8 -22,15 -33,22 166,-58 261,-185 166,-298 -96,-111 -101,-159 -31,-183 67,-23 113,21 118,53 88,-124 258,-131 307,-59 24,35 23,72 -33,91 -109,38 -170,-85 -61,-106 -28,-8 -51,-6 -77,2 -26,9 -89,41 -67,183 20,121 -32,232 -180,305 -106,53 -229,78 -353,71 -76,-4 -149,-21 -213,-47z"/>
  <polygon class="fil1" points="6840,4146 7426,5586 8173,5586 8173,4146 "/>
  <path class="fil2" d="M7440 5573l715 0 0 -1414 -1291 0 576 1414 0 0zm751 26l-779 0 -597 -1465 1375 0 0 1465z"/>
  <polygon class="fil3" points="8173,5586 8878,5586 9467,4146 8173,4146 "/>
  <path class="fil2" d="M8191 5573l673 0 578 -1414 -1251 0 0 1414zm700 26l-737 0 0 -1465 1336 0 -599 1465 0 0z"/>
  <polygon class="fil3" points="9429,4106 8643,4106 8178,3509 8352,3509 "/>
  <polygon class="fil4" points="8178,3509 8643,4106 7664,4106 8129,3509 "/>
  <polygon class="fil1" points="8129,3509 7664,4106 6878,4106 7955,3509 "/>
  <polygon class="fil2" points="9418,4116 8346,3521 8209,3521 8659,4100 8627,4113 8147,3496 8359,3496 9441,4096 9418,4116 "/>
  <polygon class="fil2" points="6889,4116 6866,4096 7948,3496 8159,3496 7680,4113 7648,4100 8098,3521 7961,3521 6889,4116 "/>
  <polygon class="fil5" points="9287,4164 7020,4164 7526,5603 8779,5603 "/>
  <path class="fil2" d="M7540 5590l1224 0 499 -1414 -2220 0 497 1414 0 0zm1253 26l-1281 0 -515 -1465 2313 0 -517 1465 0 0z"/>
  <polygon class="fil6" points="8986,4330 7320,4330 7710,5437 8595,5437 "/>
  <path class="fil2" d="M9842 4098c41,0 74,23 74,52 0,29 -33,52 -74,52l-3377 0c-41,0 -74,-24 -74,-52 0,-29 33,-52 74,-52l3377 0z"/>
  <path class="fil0" d="M8617 3476l-396 0c32,-15 53,-41 53,-70 0,-31 -24,-58 -60,-73l149 0 0 -26c-32,-20 -69,-35 -108,-45 43,-18 77,-60 50,-108 -21,-38 -92,-77 -133,-119 -1,2 -2,3 -3,5 -9,12 -32,5 -33,-5 -40,42 -112,81 -133,120 -27,48 7,89 50,108 -39,9 -76,24 -108,45l0 26 149 0c-36,15 -60,42 -60,73 0,29 21,55 53,70l-397 0c-17,0 -31,10 -31,22 0,12 14,22 31,22l928 0c17,0 31,-10 31,-22 0,-12 -14,-22 -31,-22z"/>
  <path class="fil2" d="M9183 5621c0,-29 -33,-52 -74,-52l-1910 0c-41,0 -74,23 -74,52 0,29 33,52 74,52l1910 0c41,0 74,-23 74,-52z"/>
  <path class="fil0" d="M8153 3022c-43,0 -78,-25 -78,-55 0,-31 35,-55 78,-55 43,0 78,25 78,55 0,31 -35,55 -78,55l0 0zm129 -55c0,-50 -58,-91 -129,-91 -71,0 -129,41 -129,91 0,50 58,91 129,91 71,0 129,-41 129,-91z"/>
  <path class="fil2" d="M1345 842c-1,-110 31,-199 72,-199 41,0 74,88 76,198 1,109 -31,198 -72,199 -41,0 -74,-88 -75,-197zm731 19369c-75,-62 -156,-78 -206,-171 -41,-70 -74,-894 -74,-1042 0,-124 -29,-400 -153,-486 99,-47 165,-225 16,-272 -12,-144 277,-260 95,-424 34,-88 26,-249 93,-318 13,-14 11,-37 -8,-43 -196,-63 -188,-377 -151,-556 33,-160 157,-614 -83,-669 74,-77 15,-147 -76,-132 0,-5248 0,-13532 0,-14523 65,-12 109,-33 109,-57 0,-27 -55,-51 -134,-61 53,-29 89,-82 89,-144 0,-82 -63,-150 -146,-163 89,-23 97,-121 125,-235 13,-56 40,-155 100,-203 47,-37 111,-53 173,-39 1,0 2,0 3,0 -59,-147 -227,-163 -289,-104 11,-125 -35,-254 -146,-357 -109,105 -152,235 -139,360 -63,-58 -231,-40 -287,109 1,0 2,0 3,-1 62,-15 126,-1 174,36 61,47 90,145 104,201 29,112 39,208 125,232 -86,11 -151,80 -151,163 0,62 36,115 89,144 -79,10 -134,33 -134,61 0,24 44,45 109,57l0 14523c-91,-15 -150,56 -76,132 -239,55 -116,508 -83,669 37,180 45,493 -151,556 -19,6 -21,29 -8,43 67,69 59,230 93,318 -182,163 107,280 95,424 -149,47 -83,225 16,272 -124,86 -153,361 -153,486 0,148 -33,972 -74,1042 -50,93 -132,109 -206,171 -152,126 -22,181 178,204l959 0c201,-23 330,-78 178,-204z"/>
  <path class="fil2" d="M8574 2721c-162,78 -357,107 -549,81 -60,-8 -117,-22 -171,-39 36,3 70,3 101,1 94,-5 166,-62 163,-129 -3,-69 -85,-123 -183,-121 -22,0 -43,4 -62,9 -39,7 -76,19 -106,24 -78,15 -161,25 -282,-78 -73,-62 -85,-136 -62,-198 9,-25 41,-73 80,-95 68,-35 156,-20 167,-14 -48,6 -85,36 -83,72 2,39 48,69 103,68 55,-1 98,-34 97,-73 -1,-19 -11,-37 -28,-53 -78,-68 -182,-59 -254,-33 -63,21 -112,84 -125,109 -51,100 -36,235 82,362 -24,-6 -49,-11 -74,-15 -217,-37 -442,-12 -632,70 -191,82 -325,212 -377,365 -2,5 -3,10 -4,15 96,-579 205,-1170 813,-1461 536,-257 1268,-158 1632,219 288,299 178,708 -245,911zm-5121 1553c-16,14 -31,29 -46,43 -13,-151 -116,-267 -241,-325 -32,-15 -124,-44 -193,-35 -79,10 -171,46 -175,134 0,20 8,39 23,55 32,32 94,40 139,18 45,-22 56,-66 25,-98 -29,-29 -84,-38 -127,-22 4,-10 62,-59 146,-60 49,1 116,26 144,42 70,40 124,105 118,185 -10,133 -85,160 -160,181 -29,8 -67,15 -105,25 -20,4 -40,10 -58,19 -80,39 -100,117 -44,174 54,55 160,70 240,34 26,-12 52,-26 79,-43 -119,154 -345,263 -611,271 -512,16 -947,-265 -970,-626 -29,-456 474,-844 1121,-865 735,-24 1323,404 1891,827 -6,-4 -11,-7 -17,-11 -355,-208 -883,-173 -1177,78zm5452 -2505c-396,-411 -1192,-518 -1775,-238 -660,316 -764,943 -864,1549l-8 51c-69,360 -160,623 -258,815 19,-91 -4,-190 -106,-267 -146,-104 -390,-115 -575,-38 0,0 0,0 -1,0l0 0c0,0 0,0 -1,0l0 0c-47,21 -61,64 -32,97 29,33 91,43 137,23 6,-2 11,-5 15,-8 0,0 0,0 0,0 97,-59 268,-76 384,-18 119,59 159,188 126,303 -171,289 -355,385 -479,415 -206,50 -392,-38 -510,-120 -67,-49 -135,-100 -203,-150 -572,-426 -1162,-866 -1916,-876l0 -1c-185,-3 -353,-29 -513,-79 -592,-186 -860,-677 -598,-1094 208,-331 758,-480 1226,-334 179,56 316,158 387,287 22,40 36,82 43,123 -16,-23 -33,-44 -51,-61 -56,-53 -162,-67 -241,-30 -81,38 -103,116 -49,173 12,13 27,24 44,32 30,20 62,36 85,50 59,39 115,84 55,210 -36,76 -119,123 -205,142 -34,8 -110,14 -156,2 -78,-22 -107,-83 -105,-93 33,26 88,32 130,12 46,-22 58,-66 28,-98 -31,-32 -93,-41 -139,-19 -22,11 -39,26 -49,45 -41,83 25,140 94,170 60,27 160,23 198,17 147,-22 302,-103 392,-240 6,17 13,35 21,52 70,150 218,271 418,342 118,42 246,63 375,63 88,0 177,-10 263,-30 51,-12 99,-28 144,-47 132,-54 218,-133 254,-212 12,-26 27,-96 -5,-141 -35,-51 -109,-104 -230,-83 -27,6 -51,16 -68,30 -35,30 -29,75 14,99 43,25 106,20 141,-10 32,-28 29,-67 -4,-93 15,0 97,26 121,83 12,33 -4,86 -18,109 -36,58 -109,112 -220,130 -184,30 -241,-15 -290,-60 -18,-17 -38,-42 -63,-65 -10,-13 -24,-24 -41,-34 -76,-44 -187,-36 -249,17 -60,52 -52,128 19,172 28,17 62,35 101,50 -67,-9 -133,-24 -195,-46 -175,-62 -305,-169 -366,-300 -32,-69 -47,-141 -46,-213 15,-93 -2,-188 -51,-278 -80,-147 -237,-263 -441,-327 -520,-163 -1131,4 -1362,371 -285,454 7,988 650,1190 59,19 120,34 183,47 -562,110 -964,482 -938,909 25,391 482,697 1031,697 15,0 31,0 46,-1 373,-12 678,-195 770,-437 36,-67 87,-130 153,-186 176,-150 447,-212 701,-178 -44,4 -85,12 -119,21 -88,23 -136,92 -106,156 30,65 130,101 223,80 21,-5 40,-12 56,-21 35,-15 66,-33 92,-44 69,-29 145,-56 301,19 94,45 135,114 138,178 1,25 -11,79 -39,107 -52,47 -142,50 -155,46 44,-15 67,-51 51,-85 -17,-37 -73,-57 -126,-45 -53,12 -81,52 -64,89 9,18 26,34 48,46 101,50 198,21 257,-18 53,-33 75,-102 77,-130 8,-83 -32,-178 -127,-263 -3,-3 -7,-6 -10,-9 52,39 104,78 157,117 198,137 418,186 617,138 406,-98 702,-576 857,-1382l0 -1c0,3 0,7 0,10 -4,108 45,201 121,264 25,21 101,67 172,71 80,6 183,-11 221,-94 8,-19 8,-39 0,-57 -18,-37 -74,-57 -127,-44 -52,13 -80,53 -63,89 16,34 65,53 114,47 -7,9 -82,44 -163,29 -47,-10 -101,-48 -122,-69 -51,-52 -78,-125 -40,-201 62,-126 145,-137 225,-143 31,-2 70,0 111,-3 21,0 42,-2 63,-6 93,-22 142,-93 111,-158 -31,-64 -126,-98 -217,-80 -36,8 -75,18 -114,34 46,-36 99,-67 159,-93 167,-72 364,-94 554,-61 101,17 194,46 281,85 104,58 227,98 361,116 219,29 442,-3 627,-92 471,-226 593,-681 273,-1013z"/>
 </g>
</svg>
