<?xml version="1.0" encoding="UTF-8"?>
<!DOCTYPE svg PUBLIC "-//W3C//DTD SVG 1.1//EN" "http://www.w3.org/Graphics/SVG/1.1/DTD/svg11.dtd">
<!-- Creator: CorelDRAW X5 -->
<svg xmlns="http://www.w3.org/2000/svg" xml:space="preserve" width="210mm" height="297mm" style="shape-rendering:geometricPrecision; text-rendering:geometricPrecision; image-rendering:optimizeQuality; fill-rule:evenodd; clip-rule:evenodd"
viewBox="0 0 21000 29700"
 xmlns:xlink="http://www.w3.org/1999/xlink">
 <defs>
  <style type="text/css">
   <![CDATA[
    .fil0 {fill:#332C2B;fill-rule:nonzero}
   ]]>
  </style>
 </defs>
 <g id="图层_x0020_1">
  <metadata id="CorelCorpID_0Corel-Layer"/>
  <path class="fil0" d="M8950 3100l-103 -6 0 -60 103 0 0 67zm11176 2085l0 -623 -351 0 0 -555 -270 0 0 274 -1 0 0 282 -118 0 0 -686 -91 0 0 -68 -122 0 0 -66 -107 0 0 66 -115 0 0 68 -125 0 0 634 -50 -1 0 -50 -60 0 0 103 -1 0 0 -779 -65 0 0 -135 -116 0 0 135 -82 0 0 254 -100 0 0 -282 -31 0 0 -22 -28 0 0 22 -28 0 0 -22 -28 0 0 22 -46 0 0 282 -73 0 0 -36 -12 0 0 -675 -232 0 0 -313 -452 0 0 504 -1 0 0 94 -118 0 0 389 -1 0 0 -36 -80 0 0 -1192 -152 0 0 -125 -205 0 0 -122 -180 0 0 122 -192 0 0 125 -209 0 0 1168 -84 -2 0 -91 -101 0 0 51 -2 -1 0 -1295 -109 0 0 -249 -195 0 0 249 -137 0 0 1409 -93 0 0 -73 -73 0 0 -1387 -53 0 0 -41 -47 0 0 41 -47 0 0 -41 -47 0 0 41 -77 0 0 1279 -35 0 0 206 -18 0 0 -504 -69 0 0 -529 -20 0 0 -1243 -579 0 0 1081 -143 0 0 -516 -240 0 0 -38 -383 0 0 717 -1 0 0 -66 -262 0 0 -173 -106 0 0 -35 -94 0 0 35 -96 0 0 -35 -94 0 0 35 -155 0 0 173 -45 0 0 -288 -177 0 0 288 -113 0 0 1001 -66 0 0 -460 -207 0 0 549 -56 0 0 -835 -53 0 0 -41 -47 0 0 41 -47 0 0 -41 -47 0 0 41 -77 0 0 725 -114 0 0 -1010 -34 0 0 -37 -69 0 0 -27 -131 -65 0 -321 -74 0 0 -125 -100 0 0 -122 -88 0 0 122 -94 0 0 125 -102 0 0 1445 -89 -2 0 -91 -197 0 0 -357 -179 -174 0 695 -263 0 0 -73 -31 0 0 -728 -280 0 0 -1031 -207 0 0 1230 -27 0 0 -416 -187 0 0 -476 -415 0 0 -25 -107 0 0 25 -387 0 0 53 -30 0 0 -255 -117 0 0 255 -82 0 0 347 -68 0 0 -799 -179 -389 0 790 -15 0 0 768 -73 0 0 -303 -12 0 0 -1277 -346 0 0 1110 -85 0 0 -530 -143 0 0 -39 -229 0 0 737 -1 0 0 -67 -156 0 0 -178 -64 0 0 -36 -56 0 0 36 -57 0 0 -36 -56 0 0 36 -93 0 0 178 -27 0 0 -296 -105 0 0 296 -67 0 0 1028 -39 0 0 -472 -123 0 0 214 -33 0 0 -508 -31 0 0 -42 -28 0 0 42 -28 0 0 -42 -28 0 0 42 -46 0 0 745 -68 0 0 -1037 -21 0 0 -38 -41 0 0 -28 -78 -67 0 -330 -44 0 0 -128 -60 0 0 -125 -52 0 0 125 -56 0 0 128 -61 0 0 942 -206 0 0 21 -72 -120 0 686 -14 0 0 -280 -143 0 0 -21 -18 0 0 -493 -167 0 0 -1058 -123 0 0 1263 -146 0 0 -253 -61 0 0 -95 79 0 0 -568 -542 0 0 568 83 0 0 68 -141 -15 0 -211 -118 0 0 -821 -107 -400 0 1600 -157 0 0 -168 -191 0 0 542 -23 0 0 66 -56 0 0 68 -61 0 0 301 -216 0 0 198 -61 -54 0 377 -157 0 0 -40 -18 0 0 -395 -167 0 0 -559 -123 0 0 668 -146 0 0 -134 -61 0 0 -50 79 0 0 -300 -542 0 0 300 83 0 0 36 -142 -8 0 -111 -118 0 0 -434 -107 -211 0 846 -157 0 0 -89 -191 0 0 517 -356 0 0 623 18795 0zm-10538 -2152l50 0 0 93 -50 0 0 -93z"/>
 </g>
</svg>
